<?xml version="1.0" encoding="UTF-8"?>
<svg id="Layer_2" data-name="Layer 2" xmlns="http://www.w3.org/2000/svg" viewBox="0 0 2060.8 3098.35">
  <defs>
    <style>
      .cls-1 {
        fill: none;
        stroke: #fff;
        stroke-miterlimit: 10;
      }
    </style>
  </defs>
  <g id="Layer_1-2" data-name="Layer 1">
    <g>
      <path class="cls-1" d="M1450.64,983.22c14.95,0,28.29,0,41.62,0,16.41,0,32.84-.42,49.23.2,8.76.33,14.94-2.71,20.95-8.8,29.68-30.07,59.6-59.91,89.66-89.59,5.69-5.62,8.58-11.43,8.25-19.67-.65-16.38-.14-32.8-.43-49.2-.14-7.93,2.34-14.12,8.11-19.87,77.51-77.17,154.84-154.52,232.21-231.83,6.89-6.89,14.45-12.47,12.01-24.99-1.77-9.04,8.3-16.84,17.36-16.47,9.07.37,16.92,8.5,16.99,17.6.08,9.33-7.5,18.32-17.01,16.6-11.73-2.12-17.47,4.66-24.03,11.22-49.93,49.9-99.78,99.87-149.69,149.8-25.65,25.66-51.07,51.58-77.22,76.73-9,8.66-13.11,17.71-12.24,30.21.96,13.85-.25,27.84.38,41.73.42,9.22-2.47,16.05-9.15,22.39-16.21,15.4-31.92,31.34-47.73,47.16-2.25,2.25-3.95,5.06-7.11,9.18,5.22.64,8.45,1.38,11.67,1.39,35.81.13,71.62,0,107.43.3,8.57.07,15.11-2.56,21.15-8.72,25.41-25.9,51.09-51.55,76.89-77.06,5.27-5.21,8.2-10.19,7.48-18.2-1.03-11.37,7.38-19.23,17.96-18.65,9.72.53,16.41,7.96,16.05,17.86-.37,10.39-8.14,18.57-18.53,16.47-9.3-1.88-13.76,2.7-19.07,8.02-25.96,26.06-52.18,51.86-77.91,78.15-6.08,6.21-12.51,8.67-21.04,8.61-39.79-.29-79.58.08-119.36-.37-9.22-.1-15.9,2.41-22.13,9.35-8.26,9.21-16.4,20.51-27.08,25.02-10.64,4.5-24.36,1.95-36.74,2.06-19.89.18-39.8.44-59.68-.24-8.82-.3-14.85,2.82-20.84,8.87-40.91,41.34-82.26,82.24-123.04,123.71-8.59,8.74-17.26,14.47-29.98,12.44-13.41-2.14-23.2,3.46-32.62,13.23-27.59,28.62-56.07,56.41-84.46,84.25-6.16,6.04-8.88,12.44-8.44,21.14.57,11.24-1.58,22.21,10.13,30.59,6.97,4.99,5.02,16.57-1.25,22.65-6.14,5.95-16.66,6.41-23.23,1.01-7.33-6.02-10.06-18.32-2.78-23.67,12.01-8.84,10.99-20.27,10.14-31.95-.72-9.9,2.99-16.64,9.96-23.45,30.94-30.22,61.51-60.82,91.78-91.72,6.16-6.28,12.59-9.76,21.01-8.46,17.51,2.71,29.6-4.88,41.53-17.22,38-39.31,76.96-77.72,115.86-116.15,6.92-6.84,9.64-13.77,9.37-23.63-.75-27.32.05-54.68-.3-82.01-.11-8.6,2.5-15.05,8.63-21.13,54.01-53.56,107.8-107.34,161.67-161.04,6.28-6.26,12.46-11.51,10.35-22.71-1.65-8.72,8.85-16.82,17.58-16.44,9.28.4,16.93,8.27,17.02,17.48.09,9.86-8.07,19.17-17.92,17.48-10.62-1.83-16.58,2.9-23.16,9.51-51.91,52.14-103.88,104.22-156.19,155.95-7.66,7.57-11.36,15.19-11.05,26.11.7,24.83.18,49.7.23,74.56,0,3.9.38,7.79.72,14.21Z"/>
      <path class="cls-1" d="M1214.46,327.66c1.26.59,2.52,1.7,3.79,1.71,24.36.12,48.73.4,73.07-.12,4.45-.1,9.83-2.53,13.08-5.66,18.62-17.91,36.57-36.51,55.11-54.51,5.27-5.12,3.8-10.64,3.47-16.54-.59-10.49,4.18-18.54,13.42-23.03,8.58-4.17,17.43-3.41,25.32,2.56,8.88,6.72,12.35,18.09,8.59,27.86-3.85,10.03-14.01,17.99-24.44,15.52-11.5-2.72-17.41,2.62-24.23,9.77-15.09,15.82-31.04,30.83-46.08,46.7-7.36,7.77-15.07,11.19-26.13,10.87-27.82-.81-55.68,0-83.53-.17-6.33-.04-11.33,1.27-15.98,6.03-17.35,17.78-34.88,35.39-52.77,52.63-6.94,6.69-10.03,13.72-9.78,23.6.69,27.32-.15,54.67.53,81.99.23,9.42-3.03,15.86-9.46,22.19-30.47,29.95-60.56,60.28-90.96,90.3-5.46,5.39-9.6,10.29-9.28,19.05.37,10.27-7.37,16.79-16.91,17-8.68.18-16.56-6.47-17.74-14.97-1.23-8.87,4.7-18.26,14.58-19.26,9.46-.96,15.18-6,21.22-12.09,27.99-28.23,55.97-56.49,84.46-84.22,7.75-7.55,11.12-15.4,10.89-26.2-.58-27.32.17-54.67-.38-82-.17-8.27,2.43-14.04,8.13-19.66,31.15-30.69,61.92-61.78,93.17-92.37,5.48-5.37,7.64-10.82,7.62-18.32-.22-64.11-.19-128.23-.1-192.34,0-6.66-1.09-11.99-6.18-17.34-7.57-7.95-6.33-18.67,1.1-25.18,6.61-5.79,16.54-5.67,23.14.29,7.56,6.82,8.62,16.61.61,24.98-5.69,5.95-5.71,12.17-5.71,19.1.02,62.62-.37,125.25.33,187.86.15,13.54-2.42,24.33-13.59,32.31-3.61,2.58-7.32,5.02-10.99,7.53.87,1.38,1.75,2.75,2.62,4.13ZM1398.07,252.18c.29-5.99-4.88-11.66-10.69-11.73-5.73-.07-11.54,5.49-11.32,11.23.24,6.34,4.11,9.78,10.09,10.67,5.99.9,11.63-4.12,11.93-10.17Z"/>
      <path class="cls-1" d="M1640.81,1139.03c-3.76-.39-7.52-1.11-11.28-1.12-31.82-.11-63.64.14-95.46-.27-8.64-.11-15.38,2.25-21.12,8.62-5.31,5.9-10.83,11.66-16.67,17.03-5.32,4.89-8.76,9.76-8.96,17.74-.25,9.78-8.98,16.8-17.71,16.59-8.41-.2-16.25-7.65-16.88-16.02-.76-10.19,5.62-18.36,16.74-18.63,7.44-.18,11.96-3.36,16.55-8.14,7.23-7.52,14.99-14.55,22.01-22.24,5.48-6.01,11.74-8.1,19.8-8.06,63.14.26,126.29-.15,189.42.48,11.61.12,19.53-3.46,27.28-11.63,17.08-18.03,35.22-35.05,52.48-52.92,5.67-5.86,11.63-8.38,19.71-8.15,15.9.45,31.82-.04,47.72.26,9.09.17,17.18-.21,24.48-7.5,6.06-6.04,13.59-4.85,20.4.4,6.35,4.9,8.62,12.87,5.7,19.98-2.7,6.56-10.82,11.93-17.95,10.81-3.7-.58-7.94-2.25-10.44-4.85-4.63-4.83-9.74-5.95-16.05-5.83-15.9.31-31.83.5-47.72-.04-8.71-.3-15.03,2.78-20.97,8.86-18.05,18.49-36.63,36.46-54.63,54.99-5.96,6.13-12.08,9.06-20.93,8.64-16.37-.79-32.81,0-49.21-.32-6.96-.14-12.18,2.17-17.33,6.82-25.84,23.38-25.95,23.26-26.04,58.4,0,1.49-.25,3.03.03,4.47,5.13,26.29-5.2,45.81-25.84,61.48-7.33,5.57-13.55,12.06-13.96,23.09-.33,8.74-9.95,14.13-18.69,13.1-8.26-.98-14.57-7.56-15.23-15.87-.67-8.53,5.42-18.26,13.92-18.4,23.23-.38,31.08-20.56,44.56-33.29,2.54-2.4,2.22-8.39,2.29-12.74.26-14.9.91-29.87-.13-44.7-.82-11.63,2.88-20.1,11.63-27.23,3.71-3.02,6.7-6.93,10.02-10.43-.52-1.12-1.04-2.24-1.56-3.37Z"/>
      <path class="cls-1" d="M823.14,209.32c1.04-6.25,1.85-8.95,1.87-11.64.12-21.37-.18-42.75.24-64.11.16-8.13-2.41-14.46-8.21-19.85-4.73-4.4-9.57-8.72-13.91-13.49-6.13-6.73-11.66-12.33-22.62-10.72-9.07,1.34-16.97-8.14-17.17-17.04-.17-7.85,5.97-15.5,13.81-17.22,9.07-1.98,19.13,3.08,20.38,12.75,1.25,9.66,7.43,14.63,13.16,20.61,8.92,9.32,20.96,17.3,25.77,28.41,4.56,10.53,1.68,24.35,1.79,36.72.17,19.88.38,39.76-.03,59.64-.16,7.56,1.91,13.41,7.4,18.54,7.26,6.79,13.94,14.2,21.28,20.89,5.55,5.05,7.94,10.63,7.86,18.28-.36,31.8-.36,63.62.01,95.42.08,6.76-2.62,11.04-7.11,15.43-18.82,18.43-37.37,37.13-56.08,55.67-6.05,5.99-11.33,11.58-11.13,21.52.18,9.18-8.31,15.53-16.9,15.45-9.03-.09-17.12-8.04-17.43-17.15-.29-8.5,5.76-16.56,15.14-17.16,8.34-.53,13.64-4.36,19.05-9.89,17.38-17.76,34.95-35.32,52.79-52.61,5.76-5.58,8.5-11.41,8.36-19.63-.46-26.33-.38-52.68-.05-79.02.11-8.51-2.23-15.14-8.47-21.18-18.21-17.62-36.03-35.64-53.85-53.66-4.73-4.79-9.69-7.59-16.78-8.15-10.35-.82-16.51-8.53-16.09-17.8.39-8.42,7.89-16.2,16.18-16.78,9.25-.64,17.78,5.57,18.08,15.79.46,15.5,12.57,20.57,22.65,31.97Z"/>
      <path class="cls-1" d="M317.2,568.76c.74-4.24,1.62-6.97,1.63-9.72.17-35.27,0-70.55.49-105.81.1-6.88-3.28-10.74-7.17-15.42-6.04-7.27-5.42-16.85.37-23.18,5.99-6.54,15.51-7.49,23.03-2.29,8.09,5.58,10.53,17.21,3.07,24.73-6.61,6.67-6.8,13.61-6.77,21.65.13,37.76.33,75.52-.18,113.27-.13,9.72,1.67,17.76,9.7,23.49,22.25,15.88,30.22,36.91,26.95,64.16-2.24,18.61-.1,37.72-.63,56.58-.27,9.59,2.27,16.95,9.42,23.78,17.95,17.16,35.23,35.02,52.7,52.68,4.63,4.68,9.2,7.98,16.56,8.42,11.41.68,17.82,8.69,17.02,18.45-.72,8.83-8.07,16.05-16.53,16.24-9.83.22-17.36-6.22-18.26-17.6-.57-7.16-3.62-11.83-8.43-16.56-19.13-18.81-37.78-38.11-57.05-56.77-5.87-5.68-8.24-11.6-8.14-19.67.34-27.82-.22-55.65.25-83.46.16-9.67-2.67-16.66-9.72-23.54-28.83-28.08-57.07-56.77-85.46-85.3-6-6.03-11.57-11.32-21.42-11.44-9.05-.11-14.97-9.01-14.41-17.69.58-8.93,7.59-15.98,16.32-16.41,8.83-.44,18.28,5.53,17.98,14.19-.41,11.82,6.6,18.02,13.59,24.96,12.33,12.26,24.6,24.57,37.02,36.74,1.93,1.89,4.5,3.11,8.06,5.5Z"/>
      <path class="cls-1" d="M641.08,1415.76c-19.99-20.16-37.03-38.14-55.02-55.12-7.92-7.47-11.61-14.99-10.66-25.98.91-10.57,1.77-21.07-9.52-29.18-8.24-5.92-6.28-18.63,1.27-24.97,6.72-5.66,18.36-4.84,24.44,1.71,6.13,6.61,6.82,18.57-1.18,23.92-12.79,8.56-6.59,20.45-8.33,30.99-1.43,8.66,3.84,13.83,9.2,19.18,17.23,17.19,34.8,34.08,51.38,51.89,6.88,7.38,14.34,9.49,23.74,9.46,51.69-.18,103.39.11,155.08-.3,8.18-.06,14.13,2.06,19.79,7.81,18.8,19.14,38.13,37.75,56.85,56.96,4.9,5.03,9.14,7.37,16.69,6.49,11.69-1.36,20.53,8.49,19.19,19.22-1.13,9.05-8.24,15.47-17.16,15.5-9.78.03-18.75-6.9-17.08-16.48,2.12-12.19-4.45-18.39-11.51-25.38-16.6-16.43-33.23-32.82-49.65-49.43-5.55-5.62-11.39-8.12-19.7-8.08-63.12.38-126.24.14-189.36.08-15.78-.01-31.59.45-47.33-.42-4.27-.24-9.02-3.86-12.35-7.14-29-28.61-57.73-57.5-86.54-86.31-14.75-14.76-29.59-29.44-44.2-44.33-4.41-4.5-9.07-7.14-15.66-7.01-15.9.32-31.81.21-47.71.06-5.89-.06-10.56,1.23-13.71,6.87-1.62,2.9-4.28,5.53-7.05,7.41-9.33,6.33-21.29,4.43-28.09-4.06-6.67-8.34-5.95-21.38,1.58-28.57,8.32-7.95,21.39-8.06,29.59.14,3.11,3.11,5.4,7.05,8.92,11.76,16.66,0,34.04.63,51.34-.22,11.86-.58,20.32,3.14,28.7,11.71,39.6,40.49,80.21,80,119.72,120.58,11.13,11.43,23.15,16.23,38.55,14.5,10.65-1.2,21.35-1.97,35.78-3.28ZM343.24,1261.35c-7.48.09-14.19,6.79-14.21,14.18-.01,8.27,7.05,14.87,15.39,14.4,7.7-.44,13.91-7.21,13.49-14.7-.42-7.36-7.39-13.96-14.67-13.88Z"/>
      <path class="cls-1" d="M1409.98,1280.69c-19.88,19.92-37.73,37.81-55.59,55.69-37.55,37.6-74.86,75.46-112.87,112.6-7.81,7.63-9.23,15.74-8.81,25.44.38,8.73-1.2,17.15,8.12,23.79,8.79,6.25,8.29,17.68,1.21,24.76-7.19,7.19-18.47,7.14-25.33-.12-6.73-7.12-6.82-18.57,1.7-24.93,7.22-5.39,8.91-11.74,7.8-19.34-2.45-16.8,4.31-28.41,16.37-40.2,52.23-51.02,103.28-103.24,155.07-154.72,6.52-6.48,9.82-12.94,9.4-22.17-.61-13.38-.4-26.82-.13-40.22.16-7.9-1.4-13.56-8.97-18.57-10.7-7.07-11.85-19.16-5.03-28.71,7.32-10.23,20.56-12.3,30.05-4.7,10.24,8.21,12.39,23.67,1.85,30.98-11.59,8.05-12.06,17.93-11.68,29.59.38,11.41.29,22.85-.02,34.27-.19,6.96,1.97,12.4,7.12,17.16,6.93,6.39,13.01,13.74,20.17,19.83,7.53,6.4,9.96,13.81,9.72,23.55-.59,23.83,2.41,48.04-.94,71.4-2.81,19.62,4.63,30.81,18.39,41.18,3.15,2.38,6.62,4.99,8.46,8.31,4.3,7.78,9.72,9.25,18.42,7.71,9.71-1.72,16.73,6.42,16.43,16.47-.23,7.68-10.54,16.8-18.22,16.12-8.74-.78-15.12-8.19-13.26-17.84,1.7-8.83-1.65-13.32-8.09-18.69-8.67-7.24-17.41-15.46-22.91-25.09-4.34-7.6-4.98-17.93-5.25-27.11-.7-23.82-.55-47.68-.18-71.51.13-8.57-2.01-15.2-8.63-20.98-8.11-7.1-15.44-15.09-24.37-23.94ZM1424.32,1186.59c.35-7.18-6.53-14.82-13.6-15.1-7.23-.29-14.35,6.46-14.71,13.94-.36,7.53,6.01,14.55,13.57,14.97,7.47.41,14.36-6.05,14.74-13.81Z"/>
      <path class="cls-1" d="M1377.24,897.47c0,10.93.36,21.87-.1,32.78-.44,10.63-.45,19.96,9.98,27.36,7.18,5.1,5.44,17.95-1.13,23.96-6.35,5.81-16.76,6-23.29.43-7.19-6.14-9.58-18.43-2.14-23.7,11.78-8.34,10.35-19.25,10.34-30.52-.02-24.84.19-49.68-.26-74.51-.16-8.54,2.12-15.07,8.32-21.18,31.48-31.04,62.72-62.33,93.79-93.78,5.65-5.72,11.51-8.44,19.68-8.18,16.88.53,33.8-.11,50.69.26,7.57.17,13.39-2.2,18.43-7.73,5.35-5.87,10.87-11.65,16.83-16.88,7.28-6.4,9.38-13.97,9.97-23.6.86-14.25-3.87-24.27-14.32-33.8-17.6-16.05-33.7-33.73-50.86-50.28-5.89-5.68-7.17-11.82-8.04-19.69-2.17-19.61,5.06-33.43,19.37-46.65,27.72-25.6,53.75-53.02,80.57-79.6,5.42-5.37,9.26-10.39,8.49-19.26-.96-11.06,7.28-17.89,17.66-17.37,9.82.49,16.74,7.73,16.63,17.4-.12,10.1-7.83,18.22-18.58,16.47-9.52-1.55-14.77,2.44-20.59,8.31-28.69,28.92-57.59,57.63-86.37,86.46-14.37,14.4-14.78,38.41-.68,52.72,17.44,17.69,34.93,35.33,52.82,52.55,6.88,6.62,9.46,13.66,10.48,23.32,2.03,19.28-5.87,31.92-18.79,45.45-13.61,14.26-27.34,21.11-46.79,18.82-11.27-1.33-22.84.06-34.26-.3-7.47-.24-13.08,2.02-18.46,7.48-30.35,30.78-60.94,61.31-91.73,91.65-5.84,5.75-8.02,11.92-7.78,19.9.42,13.9.12,27.81.12,41.72h.02Z"/>
      <path class="cls-1" d="M1739.25,644c0,13.41-.54,26.85.17,40.22.55,10.27-2.91,17.7-10.2,24.9-43.82,43.3-87.22,87.02-130.8,130.56-10.19,10.18-20.34,20.41-30.82,30.29-5.38,5.07-8.4,9.92-7.13,18.11,1.71,11.02-6.6,19.93-16.68,20.13-8.81.17-17.47-7.95-17.85-16.72-.42-9.65,7.26-18.75,17.69-17.8,8.89.8,13.89-3.11,19.26-8.48,46.03-46.01,92.12-91.95,138.19-137.92,8.09-8.07,15.98-16.35,24.3-24.17,5.11-4.8,7.16-10.21,7.1-17.16-.25-28.31-.31-56.63-.07-84.94.06-7.51-2.41-13.13-7.63-18.5-25.65-26.37-25.66-24.73-62.83-27.07-24.88-1.57-43,5.61-57.79,24.88-4.66,6.07-9.06,10.39-6.58,19.45,2.82,10.28-4.43,18.62-14.66,20.13-9.18,1.35-18.01-5.25-19.34-14.45-1.41-9.74,5.16-19.28,15.83-19.45,9.18-.14,14.76-4.4,20.36-10.21,3.79-3.94,8.41-7.25,11.5-11.65,9.04-12.89,21.34-16.04,36.3-14.92,13.35,1,26.84.67,40.23.12,9.12-.37,16.31,2,22.41,9.02,9.09,10.46,21.94,19.03,27.18,31.03,4.77,10.92,1.55,25.33,1.78,38.21.1,5.46.02,10.93.02,16.39h.07Z"/>
      <path class="cls-1" d="M282.7,1005.5c0-12.91-.15-25.82.05-38.73.14-9,.29-17.29-7.49-24.42-5.61-5.14-4.46-12.81-.52-19.31,3.78-6.23,11.16-9.4,17.92-7.77,7.53,1.81,12.82,6.79,13.32,14.23.33,4.9-1.3,11.29-4.5,14.77-4.95,5.39-5.89,10.81-5.84,17.52.21,27.8.26,55.61-.14,83.41-.11,7.6,2.28,13.09,7.61,18.39,42.61,42.36,85.06,84.87,127.39,127.51,4.78,4.82,9.44,7.65,16.65,7.99,10.51.49,16.72,7.94,16.56,17.29-.15,8.9-6.89,16.24-15.59,16.96-10.08.84-18.78-5.59-19.11-16.3-.25-7.91-3.67-12.61-8.83-17.73-43.34-43.01-86.38-86.33-129.7-129.35-5.72-5.68-8.3-11.62-7.98-19.77.58-14.87.17-29.78.17-44.68h.04Z"/>
      <path class="cls-1" d="M1445.68,477.24c19.38,0,38.76-.22,58.14.11,8.32.14,15.14-.72,20.67-8.44,4.55-6.35,13.78-7.08,20.34-3.84,6.7,3.3,10.89,11.47,9.55,18.6-1.36,7.25-7.88,14.32-15.37,13.89-5.37-.31-12.01-2.7-15.47-6.52-4.96-5.5-9.94-7.06-16.83-7.02-39.75.23-79.51.33-119.26,0-8.63-.07-14.96,2.51-20.96,8.75-16.52,17.18-33.33,34.11-50.62,50.51-7.79,7.39-11.37,15.17-11.07,26.1.72,26.3-.04,52.64.47,78.95.18,9.55-2.09,16.82-9.23,23.74-23.89,23.15-47.02,47.09-70.63,70.53-7.38,7.33-15.33,14.08-23.05,21.06-5.09,4.6-7.63,10.07-7.31,17.12.78,17.33,1.36,34.68,1.74,52.03.12,5.33,1.43,9.4,6.1,12.65,5.57,3.88,8.73,9.49,7.91,16.62-.71,6.13-7.59,14.21-12.79,15.25-5.59,1.12-17.34-4.77-20.38-10.21-3.38-6.05-2.97-14.37,3.32-18.85,8.04-5.73,9.63-12.65,9.44-21.64-.34-15.37.51-30.76.4-46.14-.06-7.96,2.46-14.08,8.19-19.82,30.15-30.21,59.81-60.91,90.02-91.06,6.8-6.78,10.13-13.56,9.87-23.49-.72-27.3.05-54.63-.42-81.93-.16-9.19,2.7-16.01,9.24-22.37,18.88-18.34,37.47-36.99,55.81-55.86,6.4-6.59,13.44-9.17,22.56-8.94,19.86.48,39.75.15,59.63.15v.09Z"/>
      <path class="cls-1" d="M511.25,1276.82c6.91,0,11.37-.48,15.7.1,9.91,1.32,15.76,9.2,14.66,19.01-.98,8.78-8.25,15.35-17.2,15.52-9.27.18-17.01-7.12-17.85-16.51-1.21-13.49-3.13-26.94-3.79-40.46-.65-13.39-.49-26.85.04-40.25.31-7.91-3.63-12.94-8.71-18.01-32.75-32.64-65.4-65.39-98.08-98.1-9.49-9.5-18.66-19.34-28.57-28.37-6.79-6.19-9.41-12.94-9.33-22.2.41-49.21-.39-98.44.53-147.64.28-14.84-3.79-25.98-15.11-34.95-1.94-1.54-3.92-3.19-5.35-5.18-8.71-12.16-20.43-15.87-35.08-14.63-7.85.66-13.69,2-19.37,8.32-9.32,10.37-24.47,7.03-29.08-5.28-2.67-7.15-.23-15.37,5.95-19.99,6.67-5,16.97-5.73,21.63,1.05,7.07,10.3,16.47,10.02,26.32,9.18,12.93-1.11,21.76,4.52,31.55,12.73,19.58,16.42,26.45,35.3,25.21,60.89-2.12,43.64-.25,87.47-.76,131.21-.12,10.41,3.33,17.7,10.54,24.82,40.71,40.16,80.79,80.94,121.75,120.84,9.39,9.15,13.58,18.61,12.88,31.43-.78,14.38-.49,28.82-.35,43.24.04,4.26,1.17,8.51,1.87,13.25Z"/>
      <path class="cls-1" d="M979.57,373.45c0,31.29-.45,62.6.24,93.88.24,10.98-3.51,18.54-11.16,26.01-29.51,28.8-58.34,58.29-87.76,87.18-6.48,6.36-9.91,12.82-9.58,22.15.61,17.36.31,34.77.02,52.15-.11,6.8.6,12.3,7.14,16.59,6.23,4.09,8.43,10.79,6.26,18.41-2.14,7.54-7.3,11.76-14.8,12.86-8.37,1.23-12.67-4.57-16.18-10.74-3.68-6.47-5.67-14.5,1.46-18.76,10.92-6.53,9.86-16,9.77-25.91-.14-15.89.15-31.8-.19-47.69-.18-8.44,2.23-14.83,8.58-21.03,30.23-29.48,59.7-59.74,89.89-89.26,7.41-7.24,10.18-15,10.14-25.07-.25-62.09.19-124.19-.39-186.28-.11-12.04,3.56-20.46,12.23-28.54,16.71-15.56,32.33-32.29,48.68-48.26,6.52-6.37,12.18-11.96,10.18-22.77-1.41-7.62,6.61-14.96,14.48-16.39,7.26-1.32,15.1,2.79,18.48,9.68,3.32,6.77,2.15,15.63-4.14,20.3-3.65,2.71-9.4,5.18-13.41,4.28-8.26-1.86-13.02,1.56-18.17,6.83-17.71,18.11-35.46,36.21-53.71,53.77-5.96,5.73-8.1,11.79-8.04,19.75.25,32.29.1,64.58.1,96.86h-.1Z"/>
      <path class="cls-1" d="M582.16,985.85c1.27,6.93,2.55,10.8,2.57,14.68.07,9.45-7.81,17.4-16.82,17.59-9.16.2-17.39-7.27-18.11-16.44-.75-9.5,5.89-19.12,15.3-18.24,11.42,1.07,17.43-5.22,24.08-11.9,28.76-28.89,57.43-57.87,86.37-86.58,5.68-5.64,8.48-11.6,8.44-19.71-.24-51.7-.29-103.39,0-155.09.05-8.19-2.7-14.02-8.42-19.62-9.54-9.35-21.74-18-26.58-29.55-4.62-11.03.12-25.6-1.71-38.26-3.72-25.65,5.36-44.61,25.07-60.66,13.04-10.62,23.98-23.79,36.16-35.51,6.62-6.37,11.72-12.46,10.62-22.92-.83-7.88,5.72-13.97,13.26-15.8,6.62-1.61,14.33,1.54,18.16,7.4,4.01,6.14,3.96,15.72-1.76,20.64-3.72,3.2-9.76,5.88-14.38,5.37-8-.87-13.13,1.88-18.34,7.19-18.11,18.44-36.39,36.72-54.85,54.82-4.98,4.88-7.24,10.13-7.09,17.15.35,16.4.35,32.81-.07,49.2-.18,7.02,1.76,12.36,6.93,17.16,7.64,7.1,14.54,14.99,22.19,22.09,5.12,4.75,7.27,9.91,7.23,17-.27,54.18-.38,108.36-.03,162.54.06,8.94-3.56,14.87-9.47,20.74-30.7,30.47-61.17,61.16-91.8,91.69-2.09,2.08-4.83,3.52-6.95,5.03Z"/>
      <path class="cls-1" d="M1406.9,623.93c.01-6.96-.23-13.93.07-20.88.34-7.79-1-13.84-8-19.34-8.71-6.84-8.32-17.69-1.16-24.87,6.88-6.9,17.18-7.27,24.18-.88,7.75,7.08,8.22,18.72-.78,26.06-6.82,5.56-8.13,11.66-8.01,19.45.24,15.41-.43,30.84.21,46.23.38,9.18-2.25,15.95-8.95,22.38-19.36,18.6-38.32,37.62-57.01,56.89-5.29,5.46-10.87,8.3-18.33,7.95-4.47-.21-8.95-.04-13.42-.2-8.43-.31-14.98,2.63-21.12,8.84-26.5,26.81-26.87,26.64-26.75,67.55.09,29.3.46,58.61,1.39,87.9.33,10.26-2.36,18.19-10.22,24.89-6.03,5.14-11.33,11.15-16.82,16.9-6.31,6.6-12.61,12.24-23.06,11.24-3.43-.33-7.34,3.69-10.92,5.91-4.11,2.54-7.77,6.43-12.2,7.68-7.58,2.13-16.13-3.35-19.14-10.81-3.1-7.67-.32-16.34,6.72-20.93,7.18-4.67,15.31-3.89,21.82,1.93,3.57,3.19,6.89,7.66,11.1,8.88,6.28,1.82,12.74-.02,17.68-5.28,5.45-5.79,10.67-11.93,16.84-16.88,10.46-8.4,12.63-19.51,12.66-31.83.07-25.77.46-51.53.35-77.3-.05-11.39-.71-22.81-1.6-34.17-.72-9.14,1.97-16.28,9.11-22.31,6.43-5.44,12.75-11.28,17.93-17.87,6.91-8.81,15.47-12.21,26.09-10.73,14.56,2.03,25.47-2.89,35.41-13.93,14.95-16.61,31.21-32.06,47.32-47.59,6.2-5.97,9.38-12.3,8.74-21.01-.58-7.91-.12-15.9-.11-23.85Z"/>
      <path class="cls-1" d="M1066.11,1091.47c10.5,1.38,18.6.14,25.41-9,5.4-7.25,17.61-5.73,24.04.81,6.3,6.41,6.17,17.93-.29,24.2-6.62,6.42-18.68,7.74-23.96.29-6.81-9.6-15.35-10.13-24.83-8.94-13.6,1.72-23.22-3.71-32.61-13.29-40.31-41.12-81.1-81.77-122.12-122.19-8.06-7.94-12.55-16.2-10.99-27.53.4-2.92-.01-5.95.1-8.93.28-7.26-1.29-12.81-7.89-17.87-9.65-7.38-9.13-15.46-.68-23.91,8.16-8.17,15.4-8.49,23.15-1.03,7.71,7.43,7.98,19.1-1.05,25.74-6.39,4.7-6.45,10.1-7.14,16.64-1.64,15.47,3.44,26.75,15.01,37.89,39.32,37.87,77.51,76.92,115.75,115.9,8.24,8.4,16.65,14.02,28.1,11.21Z"/>
      <path class="cls-1" d="M509.13,1076.46c-.92,10.22.35,18.8,9.95,25.98,7.47,5.58,5.87,17.32-.97,23.84-6.58,6.27-17.96,6.07-24.29-.44-6.96-7.15-8.23-17.97-.27-23.68,11.88-8.53,8.21-19.97,9.24-30.88.91-9.66-3.7-16.52-10.82-21.54-21.65-15.26-27.78-35.65-25.99-61.66,2.17-31.66.45-63.59.55-95.4.02-7.61-.5-13.89-7.73-19.46-9.13-7.04-8.45-18.68-.5-26,6.64-6.11,18.05-5.75,24.31.77,7.11,7.4,6.62,19.36-2.57,26-5.78,4.17-7.1,8.54-7.07,14.95.19,40.76.24,81.52-.04,122.27-.05,7.07,1.95,12.43,7.1,17.11,5.51,5.02,10.36,10.78,16.02,15.59,10.13,8.62,16.88,18.34,13.08,32.54Z"/>
      <path class="cls-1" d="M1874.91,773.27c-17.88,0-35.76.27-53.62-.12-7.99-.18-14.18,1.95-19.84,7.85-14.09,14.67-28.41,29.16-43.27,43.04-6.11,5.71-5.72,11.78-5.28,18.89.49,7.92-4.34,12.88-11.49,15.55-7.44,2.77-13.88.45-18.86-5.11-5.1-5.7-5.83-12.53-2.27-19.4,3.27-6.31,8.95-10.29,15.77-8.9,9.37,1.92,14.82-2.56,20.62-8.51,13.85-14.22,28.31-27.86,42.03-42.2,5.64-5.9,11.63-8.04,19.73-7.96,37.24.35,74.48.09,111.72.07,2.48,0,5.14-.43,7.39.33,8.17,2.74,13.26-.48,17.05-7.56,1.12-2.09,3.17-3.8,5.08-5.33,8.4-6.77,15.05-7.17,23-1.6,7.62,5.34,11.12,14.91,8.63,23.6-2.41,8.42-11.97,16.89-19.83,14.95-6.2-1.53-12.95-5.78-16.74-10.86-4.89-6.54-9.26-7.89-17.29-7.46-20.79,1.13-41.67.38-62.52.38v.34ZM1968.96,784.15c8.83.06,15.99-5.99,16.31-13.76.32-7.9-6.42-14.36-15.25-14.63-8.93-.27-15.34,5.81-15.08,14.29.24,7.76,6.5,14.05,14.02,14.1Z"/>
      <path class="cls-1" d="M1666.18,1490.56c3.49-5.28,6.27-11.24,10.59-15.73,15.17-15.76,30.65-31.23,46.47-46.34,6.63-6.33,9.65-13.14,9.29-22.35-.6-15.39.15-30.83-.5-46.22-.38-9.17,2.34-15.85,9.1-22.29,18.71-17.83,36.56-36.56,55.07-54.6,5.62-5.48,8.84-10.6,8.13-19.21-.71-8.61,8.09-16.42,15.89-16.97,8.38-.59,15.7,4.43,18.21,12.5,3.71,11.92-5.6,24.72-18.06,22.2-10.19-2.06-15.5,1.79-21.67,8.15-16.96,17.48-34.21,34.68-51.67,51.66-5.77,5.61-8.44,11.52-8.13,19.73.64,16.38.09,32.8.43,49.2.17,8-2.43,14.1-8.26,19.78-17.44,16.98-34.23,34.63-51.65,51.64-3.74,3.65-9.05,5.68-13.63,8.46l.38.38Z"/>
      <path class="cls-1" d="M308.19,1510.83c-7.45-5.5-15.26-10.59-22.25-16.62-7.11-6.14-13.47-13.17-20.07-19.9-6.65-6.78-12.36-12.28-24.14-8.58-11.37,3.57-22.56-7.49-23.13-19.35-.6-12.38,7.23-20.73,19.69-21,13.8-.3,23.76,7.38,22.17,19.94-1.64,12.95,4.71,19.56,12.95,27.5,12.35,11.89,23.03,25.5,34.43,38.38,0,0,.34-.35.34-.35ZM241.13,1429.28c-7.04-.35-15.43,7.48-15.9,14.84-.46,7.26,5.91,14.44,13.35,15.05,8.11.67,15.64-6.2,15.6-14.24-.04-7.43-6.62-15.33-13.05-15.65Z"/>
      <path class="cls-1" d="M1665.8,1490.18c.49,4.39,1.25,8.76,1.43,13.16.29,7.23-4.28,14.04-10.46,16.21-5.42,1.9-15.26-.81-19.03-5.25-4.13-4.87-4.8-13.75.09-19.14,2.91-3.2,7.93-5.52,12.28-6.1,5.2-.69,10.7.89,16.08,1.49,0,0-.38-.38-.38-.38Z"/>
      <path class="cls-1" d="M328.85,1532.36c-8.17-5.95-17.02-11.23-20.66-21.52,0,0-.34.35-.34.35,9.16,5,17.21,11.05,20.67,21.53,0,0,.34-.35.34-.35Z"/>
      <path class="cls-1" d="M219.86,685.49c-.17,7.35-6.98,13.98-14.5,14.11-7.19.12-14.27-6.83-14.41-14.15-.14-7.26,6.76-14.82,13.66-14.98,7.97-.18,15.43,7.17,15.25,15.02Z"/>
      <path class="cls-1" d="M653.1,1010.59c-.2,7.16-7.5,14.14-14.65,14.02-7.26-.13-14.28-7.12-14.36-14.29-.09-8,7.56-15.35,15.31-14.7,7.37.62,13.92,7.77,13.71,14.98Z"/>
      <path class="cls-1" d="M528.39,229.51c-7.42-.14-14.09-6.89-14.04-14.21.06-7.42,6.68-14.22,13.99-14.35,7.97-.15,15.18,7.21,14.77,15.08-.4,7.55-7.04,13.63-14.72,13.49Z"/>
      <path class="cls-1" d="M1398.07,252.18c-.3,6.05-5.94,11.07-11.93,10.17-5.97-.9-9.85-4.34-10.09-10.67-.22-5.74,5.59-11.3,11.32-11.23,5.81.07,10.98,5.75,10.69,11.73Z"/>
      <path class="cls-1" d="M1496.75,1873.08c-.3,7.61-7.12,13.96-14.66,13.66-7.74-.32-13.85-6.72-13.82-14.51.03-8.13,7.56-15.27,15.35-14.55,7.34.68,13.42,7.82,13.13,15.41Z"/>
      <path class="cls-1" d="M343.24,1261.35c7.28-.09,14.25,6.51,14.67,13.88.42,7.5-5.78,14.26-13.49,14.7-8.34.48-15.4-6.13-15.39-14.4.01-7.39,6.72-14.09,14.21-14.18Z"/>
      <path class="cls-1" d="M1424.32,1186.59c-.38,7.76-7.27,14.22-14.74,13.81-7.57-.41-13.94-7.44-13.57-14.97.36-7.48,7.48-14.23,14.71-13.94,7.06.28,13.94,7.93,13.6,15.1Z"/>
      <path class="cls-1" d="M1968.96,784.15c-7.53-.05-13.78-6.34-14.02-14.1-.26-8.48,6.15-14.56,15.08-14.29,8.83.26,15.57,6.73,15.25,14.63-.31,7.77-7.48,13.82-16.31,13.76Z"/>
      <path class="cls-1" d="M241.13,1429.28c6.42.32,13.01,8.22,13.05,15.65.04,8.03-7.49,14.9-15.6,14.24-7.44-.61-13.81-7.79-13.35-15.05.46-7.36,8.85-15.18,15.9-14.84Z"/>
      <g>
        <path class="cls-1" d="M328.51,1532.72c.62.49,1.24.98,1.87,1.47-.51-.61-1.01-1.22-1.52-1.83l-.35.36Z"/>
        <path class="cls-1" d="M1225.31,2012.4c5.05-5.13,9.98-8.55,17.92-8.7,10.27-.19,16.78-8.03,16.73-17.29-.05-9.47-7.23-16.82-16.93-17.34-9.22-.49-17.56,5.93-17.73,16.13-.14,8.07-3.94,12.68-9,17.67-18.75,18.49-37.08,37.4-55.99,55.72-6.85,6.64-10.23,13.43-10.1,23.4.56,42.1.2,84.22.17,126.33-.01,19.74-.01,39.48-.02,59.22-.02,51.13-.03,102.26-.09,153.39,0,2.84,0,9.47,0,10.25.06,14.08.07,28.17.09,42.25,0,5.44,0,10.87.02,16.31.02,11.6.38,23.2-.17,34.8-.13,2.75,3.25,4.62,10.1,6.45,18.91,5.05,37.24,10.25,55.99,15.35,5.06,1.37,8.86,2.64,9,4.87.18,2.81,8.52,4.58,17.73,4.44,9.7-.14,16.88-2.17,16.93-4.78.05-2.55-6.46-4.71-16.73-4.76-7.94-.04-12.87-.98-17.92-2.4-17.78-4.97-35.6-9.93-53.82-14.78-5.48-1.46-7.83-2.97-7.69-5.05.38-5.61.36-11.22.1-16.83-.38-8.45-.08-33.53,0-37.62.23-12.55.13-25.1.11-37.66,0-.94,0-9.57,0-12.99.02-45.57.12-91.15-.11-136.72-.08-14.86-1.62-29.72-1.53-44.57.19-30.67,1.16-61.34,1.54-92.01.25-20.36.27-40.74-.1-61.1-.14-7.55,2.2-13.04,7.69-18.33,18.22-17.59,36.04-35.61,53.82-53.65Z"/>
        <path class="cls-1" d="M1471.24,1854.76c-7.36,4.25-10.89,11.44-9.79,20.25,1.16,9.3,8.12,16.58,17.22,18.22,9.58,1.73,19.36-3.32,23.39-12.09,3.95-8.6,2.02-20.04-6.63-25.17-8.38-4.97-9.78-11.23-9.52-19.74.44-14.4-.29-28.85.31-43.24.36-8.72-2.54-15.07-8.78-20.98-12.27-11.62-23.97-23.82-35.91-35.78-30.92-30.95-61.85-61.89-92.75-92.87-5.34-5.35-10.58-9.72-19.17-9.65-42.77.37-85.55.28-128.32.04-6.53-.04-11.33,2.03-15.8,6.55-20.29,20.48-40.67,40.88-61.22,61.1-4.97,4.89-7.05,10.23-6.99,17.2.26,29.82.29,59.65,0,89.48-.08,8.08,2.55,14.04,8.37,19.67,18.94,18.31,37.4,37.13,56.1,55.7,11.91,11.83,12.24,37.51.24,49.6-18.2,18.36-36.43,36.71-55.06,54.63-6.97,6.7-9.78,13.84-9.72,23.61.4,61.99.2,123.98.2,185.98,0,26.71-.11,53.42.07,80.13.12,17.83,1.01,35.66.95,53.49-.09,30.29-.72,60.57-.94,90.86-.02,2.4-.02,8.53,0,9.19.23,8.34.85,16.68.94,25.03.06,4.91-.83,9.82-.95,14.73-.18,7.36-.07,14.71-.07,22.07,0,17.07.2,34.15-.2,51.22-.06,2.69,2.75,4.66,9.72,6.5,18.64,4.93,36.86,9.99,55.06,15.05,12,3.33,11.67,10.4-.24,13.66-18.69,5.12-37.15,10.3-56.1,15.34-5.83,1.55-8.45,3.19-8.37,5.42.29,8.21.25,16.43,0,24.65-.06,1.92,2.01,3.39,6.99,4.74,20.55,5.57,40.93,11.19,61.22,16.83,4.48,1.25,9.28,1.81,15.8,1.8,42.77-.07,85.55-.09,128.32,0,8.59.02,13.83-1.18,19.17-2.66,30.9-8.53,61.83-17.05,92.75-25.58,11.94-3.29,23.65-6.66,35.92-9.85,6.25-1.63,9.15-3.38,8.78-5.78-.6-3.96.13-7.94-.31-11.91-.26-2.35,1.13-4.07,9.52-5.44,8.65-1.41,10.59-4.56,6.63-6.93-4.03-2.42-13.81-3.81-23.39-3.33-9.09.45-16.06,2.46-17.22,5.02-1.1,2.43,2.43,4.41,9.79,5.58,6.64,1.06,8.32,2.44,8.17,4.38-.33,4.11-.23,8.21.02,12.32.11,1.89-1.77,3.43-6.75,4.79-43.34,11.88-86.43,23.83-130,35.64-3.78,1.03-10.4,1.76-15.74,1.78-40.78.16-81.56.1-122.35.13-6.31,0-11.38-.49-15.95-1.77-18.83-5.27-37.85-10.49-57.03-15.66-5.33-1.44-7.82-2.99-7.72-5.08.36-7.53.34-15.06.07-22.59-.08-2.35,2.47-4.16,8.72-5.82,16.81-4.47,33.09-9.09,49.64-13.63,1.3-.36,3.04-.59,5.73-1.09.81.9,1.81,1.52,1.83,2.13.16,6.98.09,13.96.29,20.94.06,2-.94,3.57-7.67,4.96-8.65,1.78-8.84,4.92-2.21,6.83,6.7,1.93,18.66,1.99,25.53.13,6.8-1.85,7.21-5.26-1.05-6.9-7.42-1.47-8.02-3.19-8-5.3.12-10.68-.42-21.36.35-32.03.23-3.21-3.65-5.41-11.73-7.53-18-4.72-35.27-9.65-53.13-14.42-6.15-1.64-8.54-3.38-8.44-5.8.5-12.18.15-24.37.14-36.56,0-7.1.12-14.19.12-21.29,0-18.01.01-36.02-.09-54.03,0-.89,0-9.18,0-12.43.1-65.39.1-130.78.09-196.16,0-25.77-.12-51.53-.12-77.3,0-44.24.36-88.49-.14-132.73-.1-8.8,2.29-15.1,8.44-21.06,17.86-17.29,35.13-35.2,53.13-52.34,8.07-7.69,11.96-15.7,11.73-27.35-.77-38.75-.23-77.53-.35-116.3-.02-7.66.58-13.92,8-19.25,8.26-5.93,7.85-18.33,1.05-25.04-6.87-6.78-18.83-6.56-25.53.46-6.63,6.95-6.44,18.34,2.21,24.81,6.72,5.03,7.72,10.76,7.67,18.01-.2,25.34-.12,50.69-.29,76.04-.01,2.23-1.02,4.44-1.83,7.73-2.69-1.84-4.44-2.68-5.73-3.97-16.55-16.5-32.83-33.27-49.64-49.5-6.24-6.03-8.8-12.61-8.72-21.14.26-27.34.28-54.68-.07-82.02-.1-7.6,2.39-13.23,7.72-18.45,19.17-18.79,38.19-37.74,57.03-56.87,4.58-4.65,9.64-6.46,15.95-6.44,40.78.14,81.57-.09,122.35.49,5.34.08,11.95,2.72,15.74,6.45,43.57,42.9,86.66,86.28,130,129.41,4.98,4.95,6.87,10.53,6.75,17.39-.25,14.91-.35,29.83-.02,44.73.16,7.07-1.52,12.08-8.17,15.92ZM1483.62,1857.67c7.34.68,13.42,7.82,13.12,15.41-.3,7.61-7.12,13.96-14.66,13.66-7.74-.32-13.85-6.72-13.82-14.51.03-8.13,7.56-15.27,15.35-14.55Z"/>
        <path class="cls-1" d="M1964.94,1269.57c9.56-.02,17.27-7.41,17.46-16.76.2-9.83-8.01-19.59-17.68-17.83-9.74,1.77-14.9-2.8-20.56-8.47-17.92-17.94-36.05-35.68-53.7-53.89-6-6.19-12.27-8.8-21.03-8.64-28.84.54-57.7.4-86.55.09-8.49-.09-14.91,2.19-21.09,8.45-42.29,42.8-84.8,85.37-127.65,127.6-7.39,7.28-10.36,14.76-10.16,24.98.53,27.33.31,54.68.03,82.03-.05,4.77-.27,10.83-3.03,14.04-8.93,10.38-19.09,19.72-29.24,29.92-4.47-3.86-7.57-6.23-10.32-8.94-16.62-16.43-32.88-33.24-49.86-49.28-7.17-6.77-9.71-14.13-9.59-23.73.41-32.31,1.74-64.73-.29-96.91-1.45-23.05,4.93-40.18,23.07-54.12,6.79-5.22,11.77-11.21,21.9-8.41,6.74,1.86,12.44-2.62,15.82-8.79,3.39-6.18,3.12-12.41-.94-18.3-4.17-6.05-11.25-8.66-18.31-6.86-7.82,2-14.22,7.94-12.97,15.91,1.72,10.98-4.3,16.52-10.92,22.7-5.81,5.43-11.11,11.4-16.96,16.78-5.12,4.71-7.09,9.95-7.03,17.08.35,41.76.42,83.52-.03,125.28-.09,8.72,2.32,15.01,8.56,21.02,18.26,17.59,36.13,35.59,53.93,53.65,8.87,9,8.62,10.37-.4,19.21-29.41,28.81-58.89,57.55-88.15,86.51-5.25,5.2-10.68,8.14-18.33,8.09-49.25-.28-98.49-.2-147.74-.36-2.67,0-5.33-1.18-7.99-1.81.43-1.99.3-3.25.88-3.83,16.31-16.64,32.25-33.67,49.23-49.6,8.23-7.72,12.55-15.4,12.2-27.06-.8-26.82-.06-53.68-.36-80.51-.09-7.81.77-13.86,7.84-19.34,8.99-6.97,8.56-18.86.88-26.11-6.3-5.94-18.34-5.6-24.49.7-6.92,7.09-7.26,18.13,1.41,25.05,7.49,5.98,8.19,12.82,8.14,20.95-.14,22.37-1.63,44.88.4,67.07,1.74,19.08-6.09,32.31-18.36,44.65-3.51,3.53-7.02,7.04-10.66,10.44-10.88,10.17-22.32,19.81-32.57,30.58-6.45,6.78-13.32,9.2-22.4,9.13-39.79-.31-79.59.14-119.38-.36-8.76-.11-15.05,2.41-21.03,8.53-18.07,18.49-36.27,36.87-54.94,54.74-7.77,7.44-10.77,15.33-10.76,26.23.19,203.27.37,406.54.24,609.8-.01,16.89.3,33.77.27,50.66-.07,36.77-.33,73.54-.33,110.31,0,2.38,0,8.45,0,9.11,0,10.13.26,20.26.33,30.38.03,4.65-.28,9.3-.27,13.95.13,55.99-.06,111.97-.24,167.96-.01,3,2.99,5.18,10.76,7.23,18.67,4.92,36.87,9.98,54.94,15.08,5.98,1.68,12.26,2.38,21.03,2.35,39.79-.14,79.59-.01,119.38-.1,9.08-.02,15.95.65,22.4,2.51,10.25,2.97,21.68,5.62,32.57,8.42,3.63.93,7.15,1.9,10.66,2.88,12.27,3.4,20.1,7.04,18.36,12.3-2.02,6.11-.53,12.31-.4,18.47.05,2.24-.66,4.12-8.14,5.77-8.67,1.91-8.33,4.95-1.41,6.9,6.15,1.73,18.19,1.83,24.49.19,7.68-2,8.11-5.27-.88-7.19-7.07-1.51-7.93-3.18-7.84-5.33.3-7.39-.44-14.79.36-22.18.35-3.21-3.97-5.33-12.2-7.45-16.98-4.39-32.93-9.08-49.23-13.66-.57-.16-.45-.51-.88-1.06,2.66-.17,5.32-.5,7.99-.5,49.25-.05,98.49-.02,147.74-.1,7.65-.01,13.08.8,18.33,2.23,29.26,7.98,58.74,15.89,88.15,23.83,9.02,2.43,9.27,2.81.4,5.29-17.8,4.97-35.67,9.93-53.93,14.78-6.24,1.66-8.65,3.39-8.56,5.79.45,11.5.38,23,.03,34.51-.06,1.96,1.91,3.41,7.03,4.7,5.85,1.48,11.15,3.13,16.96,4.62,6.62,1.7,12.64,3.23,10.92,6.25-1.25,2.2,5.15,3.83,12.97,4.38,7.06.5,14.14-.22,18.31-1.89,4.06-1.62,4.33-3.34.94-5.04-3.38-1.7-9.08-2.93-15.82-2.42-10.13.77-15.11-.88-21.9-2.32-18.14-3.84-24.53-8.56-23.07-14.91,2.03-8.86.69-17.79.29-26.69-.12-2.64,2.41-4.67,9.59-6.54,16.99-4.42,33.24-9.05,49.86-13.57,2.75-.75,5.85-1.4,10.32-2.46,10.15,2.81,20.31,5.38,29.24,8.24,2.76.88,2.99,2.55,3.03,3.87.27,7.53.5,15.06-.03,22.59-.2,2.81,2.77,4.87,10.16,6.88,42.85,11.63,85.37,23.36,127.65,35.14,6.19,1.72,12.6,2.35,21.09,2.33,28.85-.09,57.71-.12,86.55.02,8.76.04,15.03-.67,21.03-2.38,17.64-5.02,35.77-9.9,53.7-14.84,5.67-1.56,10.82-2.82,20.56-2.33,9.67.48,17.88-2.2,17.68-4.91-.19-2.57-7.9-4.61-17.46-4.62-9.95,0-19.04,2.24-17.06,5.02,1.92,2.7-2.43,4-8.41,5.6-17.14,4.57-33.96,9.24-50.59,13.95-6.63,1.88-13.69,2.8-23.63,2.72-26.84-.2-53.72-.15-80.58-.05-8.1.03-13.92-.68-19.64-2.27-41.6-11.59-83.41-23.12-125.45-34.59-6.52-1.78-9.35-3.61-9.17-6.15.52-7.39-.32-14.79.36-22.18.28-3.03-3.3-5.2-11.29-7.17-12.58-3.09-24.86-6.29-36.76-9.58-15.77-4.36-30.96-8.87-46.57-13.27-11.41-3.22-23.15-6.34-34.61-9.55-2.24-.63-3.83-1.43-6.89-2.59,5.16-.15,8.38-.33,11.6-.33,24.87-.03,49.75-.1,74.61,0,8.09.03,14.27-.58,19.77-2.23,7.38-2.22,15.4-4.28,23.21-6.39,4.45-1.2,9.28-1.64,16.04-1.52,16.78.3,33.67.24,50.51.18,6.65-.02,11.02.76,15.48,1.99,16.9,4.63,34.38,9.1,51.19,13.76,26.25,7.27,52.3,14.59,77.94,22.02,3.27.95,4.23,2.63,5.17,4.02,1.9,2.82,7.09,4.44,15.95,4.62,10.11.2,19.65-2.07,19.16-4.56-.49-2.47-10.86-5.1-19.65-4.35-9.67.82-14.81-.35-20.63-1.99-38.16-10.75-76.46-21.47-114.73-32.19-3.49-.98-7.01-1.94-10.66-2.87-6.48-1.65-13.81-2.42-23.02-2.3-15.2.2-30.45.05-45.68.05-.52-.36-1.04-.72-1.57-1.08,13.48-3.78,26.89-7.58,40.47-11.34,16.14-4.46,32.57-8.85,48.55-13.36,5.17-1.46,9.85-2.31,18.05-1.93,8.88.41,15.74-1.16,18.15-3.33,2.41-2.18-.99-4.46-8.36-5.61-11.73-1.83-26.97.66-25.38,4.53,1.01,2.47-2.35,3.78-7.8,5.27-42.27,11.58-84.53,23.17-126.45,34.85-6.01,1.67-12.51,1.92-20.19,1.92-115.4-.03-230.8-.02-346.2-.02-19.9,0-39.8-.06-59.68.05-8.02.05-14.01-.56-19.74-2.2-17.93-5.13-36.35-10.13-54.86-15.1-5.71-1.53-8.23-3.14-8.21-5.41.25-47.24.25-94.49.14-141.73,0-3.83-.57-49.78-.05-68.93.03-1.25.03-12.87,0-17.42-.51-69.53-1.22-139.06-1.58-208.6-.07-13.88,1.62-27.77,1.63-41.66.11-171.52.12-343.04-.14-514.57-.01-8.24,2.5-14.07,8.21-19.64,18.51-18.05,36.93-36.19,54.86-54.81,5.73-5.95,11.72-8.15,19.74-7.99,19.89.41,39.79.19,59.68.19,115.4,0,230.8.04,346.2-.06,7.69,0,14.19.88,20.19,6.96,41.92,42.4,84.18,84.47,126.45,126.52,5.45,5.42,8.82,10.18,7.8,19.15-1.59,14.06,13.65,23.1,25.38,16.45,7.37-4.18,10.78-12.45,8.36-20.36-2.41-7.9-9.27-13.6-18.15-12.1-8.2,1.39-12.88-1.7-18.05-6.99-15.98-16.36-32.41-32.28-48.55-48.49-13.58-13.64-26.99-27.44-40.47-41.18.52-1.31,1.04-2.61,1.57-3.92,15.23,0,30.48-.52,45.68.19,9.21.43,16.55-2.35,23.02-8.34,3.65-3.38,7.18-6.89,10.66-10.43,38.27-38.93,76.56-77.83,114.73-116.86,5.82-5.95,10.96-10.22,20.63-7.24,8.78,2.71,19.16-6.81,19.65-15.79.49-9.04-9.05-17.29-19.16-16.55-8.86.65-14.05,6.54-15.95,16.78-.94,5.07-1.9,11.17-5.17,14.61-25.65,26.96-51.7,53.55-77.94,79.93-16.81,16.9-34.28,33.14-51.19,49.95-4.47,4.44-8.83,7.3-15.48,7.22-16.84-.21-33.72-.41-50.51.67-6.76.44-11.59-1.15-16.04-5.51-7.81-7.66-15.83-15.13-23.21-23.18-5.5-6-11.68-8.21-19.77-8.09-24.87.36-49.74.12-74.61,0-3.22-.01-6.44-.65-11.6-1.2,3.06-4.22,4.65-7.13,6.89-9.4,11.46-11.64,23.2-22.99,34.61-34.67,15.61-15.98,30.8-32.37,46.57-48.19,11.9-11.94,24.18-23.54,36.76-34.77,7.99-7.13,11.57-15.04,11.29-26.03-.68-26.83.16-53.69-.36-80.53-.18-9.23,2.66-15.87,9.17-22.32,42.04-41.64,83.85-83.5,125.45-125.57,5.72-5.78,11.54-8.35,19.64-8.25,26.86.34,53.73.53,80.58-.19,9.94-.27,16.99,3.07,23.63,9.89,16.64,17.11,33.45,34.06,50.59,50.66,5.98,5.8,10.33,10.53,8.41,20.33-1.97,10.1,7.11,18.23,17.06,18.22Z"/>
        <path class="cls-1" d="M1458.96,3047.3c-9.29-1.5-9.03-3.66-9.02-6.01.03-14.1-.17-28.21.2-42.31.07-2.67-2.8-4.59-9.76-6.5-114.47-31.41-228.66-62.91-343.04-94.34-5.94-1.63-9.97-3.28-9.93-5.69.08-4.78-.71-9.57-.65-14.35.07-6.02,1.1-12.04.73-18.05-.12-1.93.91-3.5,5.73-4.85,10.43-2.93,20.88-5.85,31.39-8.75,8.77-2.43,17.42-4.89,26.55-7.21,6.66-1.69,9.72-3.56,9.66-6.12-.35-14.65-.44-29.3.06-43.95.09-2.69-4.42-4.33-10.54-6.01-39.13-10.72-78.1-21.48-117.34-32.17-6.7-1.82-10.5-3.67-10.49-6.43.32-71.47.31-142.95.37-214.42,0-7.53.06-15.06.06-22.59,0-7.63-.06-15.26-.09-22.89-.07-17.21.27-34.42.09-51.63-.01-1.09-.44-5.82-.31-6.85.49-3.92.3-7.94.31-11.91.18-62.49-.16-124.98-.09-187.46.03-27.71.09-55.41.09-83.12,0-27.34-.05-54.68-.06-82.03-.06-259.5-.05-518.99-.37-778.49-.01-10.03,3.79-16.71,10.49-23.33,39.24-38.8,78.21-77.88,117.34-116.79,6.12-6.09,10.64-12.07,10.54-21.82-.5-53.18-.41-106.37-.06-159.56.06-9.29-3-16.08-9.66-22.21-9.14-8.42-17.78-17.37-26.55-26.18-10.51-10.55-20.95-21.16-31.39-31.78-4.82-4.91-5.85-10.58-5.73-17.6.37-21.84-.66-43.69-.73-65.54-.06-17.37.74-34.74.65-52.11-.04-8.76,3.99-14.73,9.93-20.65,114.39-114.14,228.57-228.48,343.04-342.53,6.95-6.93,9.83-13.9,9.76-23.61-.38-51.2-.17-102.41-.2-153.61,0-8.52-.27-16.37,9.02-21.81,6.25-3.66,6.06-12.9,1.82-20.25-3.75-6.49-10.48-8.96-17.95-6.57-15.24,4.86-19.1,18.97-7.11,29.58,6.1,5.4,7.32,10.92,7.3,18.19-.17,51.2-.27,102.41.05,153.61.05,8.65-2.59,14.88-8.7,20.97-114.43,114.09-228.62,228.42-343.13,342.43-7.39,7.36-10.42,14.86-10.05,24.99.64,17.37.49,34.76.53,52.15.06,23.36.26,46.72-.16,70.07-.16,8.84,3.71,14.84,9.69,20.66,18.51,17.99,36.57,36.45,55.09,54.44,5.43,5.27,7.69,11.08,7.59,18.54-.34,24.85-.29,49.71-.51,74.56-.02,2.66-.78,5.31-1.56,10.29-4.95-4.35-8.3-6.99-11.29-9.97-26.4-26.33-52.72-52.74-79.09-79.1-25.3-25.29-50.54-50.66-76.05-75.74-5.46-5.37-8.4-10.66-6.13-18.47.94-3.22.34-6.91.28-10.39-.47-23.8-.65-47.61-1.7-71.38-.34-7.68,1.65-13.55,6.92-18.72,3.9-3.83,7.63-7.84,11.55-11.65,27.41-26.65,54.7-53.43,82.4-79.78,6.68-6.35,9.62-13.02,9.25-22.26-.63-15.88.12-31.82-.27-47.71-.19-7.98,2.03-14,7.9-19.8,42.08-41.59,83.84-83.5,125.66-125.37,5.36-5.37,10.09-9.51,19.26-7.88,10.76,1.92,18.33-6.01,18.66-16.31.31-9.61-6.77-17.3-16.31-17.73-10.48-.47-19.42,6.56-18.16,16.98,1.22,10.09-3.42,15.53-9.6,21.67-41.65,41.31-83,82.93-124.74,124.14-6.53,6.45-9.63,13.06-9.18,22.31.68,13.89-.74,27.91.46,41.73,1.16,13.37-4.4,22.22-13.45,31.18-28.93,28.65-57.13,58.03-85.64,87.09-4.63,4.72-7.94,9.59-7.97,16.87-.12,27.31-.84,54.62-1.34,81.93-.25,13.38,2.44,25.02,14.19,33.93,7.81,5.92,13.65,14.37,20.66,21.4,45.29,45.4,90.53,90.86,136.15,135.94,7,6.91,9.95,14.04,9.54,23.7-.6,13.89-.77,27.87.07,41.74.6,9.92-3.01,16.96-9.79,23.65-37.16,36.65-74.08,73.54-111.17,110.27-2.18,2.16-5.08,3.6-9.13,6.4-.45-4.87-.92-7.67-.93-10.46-.05-34.3-.5-68.61.22-102.89.24-11.51-3.56-19.52-11.54-27.44-58.25-57.76-116.15-115.87-174.14-173.89-4.44-4.44-8.7-9.06-13.28-13.85,2.88-3.58,4.51-6.06,6.57-8.1,22.17-22.04,44.27-44.14,66.69-65.92,6.79-6.6,11.14-13.42,10.17-23.46-1.24-12.82-2.08-25.74-1.97-38.61.33-38.23,1.58-76.46,1.63-114.69.01-10.3,3.01-17.69,10.3-24.88,41.77-41.19,83.02-82.9,124.76-124.11,6.93-6.84,9.81-13.92,9.74-23.65-.37-52.19-.02-104.39-.27-156.59-.03-7,1.71-12.15,6.78-17.14,24.44-24.07,48.59-48.44,72.71-72.84,5.43-5.49,10.22-9.14,19.29-7.08,9.71,2.21,18.54-6.98,18.84-16.65.27-9.01-7.24-17.07-16.62-17.82-10.32-.83-18.96,6.02-18.02,16.9.85,9.97-3.59,15.57-9.89,21.76-23.75,23.36-46.92,47.29-70.77,70.54-6.62,6.45-9.13,13.11-9.05,22.31.41,50.7-.09,101.41.42,152.12.11,10.84-3.03,18.57-10.75,26.18-42.14,41.52-83.71,83.6-125.72,125.26-5.71,5.66-8.81,11.39-8.32,19.6.89,14.85,1.49,29.75,1.42,44.62-.19,37.77-1,75.53-1.14,113.3-.03,8.08-2.53,14.12-8.25,19.78-15.86,15.68-31.14,31.95-46.97,47.66-6.04,5.99-12.96,11.08-21.21,18.05-.26-5.46-.48-7.86-.48-10.27-.1-42.63-.08-85.27-.34-127.9-.06-9.88-1.65-19.75-1.54-29.62.35-31.13,1.4-62.25,1.75-93.37.31-27.34.44-54.69-.18-82.02-.23-10.35,3.27-17.62,10.53-24.74,32.3-31.67,63.95-64,96.29-95.63,7.66-7.49,11-15.01,10.96-26-.39-117.32-.07-234.64-.32-351.96-.02-10.04,1.02-18.26,9.89-24.59,3.32-2.36,5.64-6.98,7.02-11.04,4.52-13.33-1.85-27.83-14.33-34.02-11.46-5.69-27.76-2.09-35.15,7.76-8.84,11.78-8.59,28.42,2.96,37.76,8.27,6.69,9.51,13.95,9.5,23.25-.16,114.34-.29,228.68.08,343.01.04,11.95-3.67,20.26-12.2,28.52-31.8,30.76-62.61,62.54-94.38,93.34-8.15,7.9-11.87,15.91-11.6,27.28,1,43.19,1.49,86.39,1.63,129.59.08,23.26-1.15,46.51-1.39,69.77-.26,25.74-.07,51.48-.07,77.23,0,24.32.02,48.64.03,72.95,0,3.48.37,7.01-.07,10.43-1.21,9.32,2.63,16.07,9.39,22.19,8.47,7.66,16.28,16.05,24.37,24.14,52.03,52.02,103.96,104.14,156.21,155.94,6.53,6.48,9.66,13.1,9.33,22.29-.55,15.39-.2,30.82-.23,46.23-.01,7.79,0,15.58,0,23.37-1.27.3-2.53.6-3.8.9-12.08-8.27-22.09-17.56-19.11-34.72.92-5.32.38-10.91.3-16.38-.17-12.41,2.73-26.11-1.63-36.85-4.34-10.71-16.01-18.46-24.47-27.5-1.02-1.09-2.17-2.07-3.11-3.22-5.43-6.61-12.02-9.01-20.89-8.82-29.33.61-58.69.58-88.03-.03-8.38-.18-14.12,2.63-19.65,8.27-16,16.33-32.37,32.29-48.4,48.59-21.59,21.98-16.59,13.28-17.86,42.62-.43,9.83,2.91,16.82,9.89,23.56,21.09,20.38,41.54,41.42,62.41,62.03,5.11,5.05,8.74,9.91,8.68,17.9-.06,8.85,5.42,14.57,12.78,16.18,7.4,1.62,13.83-.06,18.43-6.54,4.07-5.73,5.11-11.75,1.67-18.19-3.75-7.01-10.76-11.78-18.59-8.89-9.87,3.64-14.68-1.23-20.47-7.1-19.9-20.18-40.09-40.06-60.03-60.2-11.57-11.69-11.82-36.87-.38-48.42,18.53-18.72,37.41-37.11,55.93-55.84,4.45-4.5,8.99-7.03,15.62-6.97,29.34.28,58.69-.07,88.04.17,13.23.11,42.9,28.64,43.36,41.91.52,14.89.11,29.81-.14,44.72-.03,1.56-1.64,3.09-3.22,5.9-6.81-6.59-12.62-12.54-18.81-18.06-3.63-3.24-7.73-8.01-11.87-8.29-18.45-1.23-38.07-5.63-51.26,13.96-3.54,5.25-9.4,8.87-13.62,13.74-4.94,5.71-9.85,9.12-18.06,6.45-3.2-1.04-7.93.39-11.16,2.15-7.36,4.02-10.33,13.17-7.63,20.62,2.92,8.06,10.18,12.5,18.75,11.47,8.38-1,16.54-8.57,15.25-17.18-1.44-9.65,3.14-14.85,9.11-20.41,5.82-5.42,11.27-11.23,16.98-16.77,12.49-12.14,37.28-12.17,49.62.01,15.21,15.02,30.04,30.43,45.59,45.09,7.03,6.63,10.03,13.52,9.97,23.4-.4,61.14-.11,122.27-.15,183.41,0,1.72-1.18,3.43-2.08,5.91-2.53-1.22-4.56-1.66-5.81-2.9-14.85-14.67-29.46-29.6-44.43-44.16-5.56-5.41-6.59-11.64-6.54-18.93.25-38.77.41-77.55.06-116.32-.08-8.49,1.14-14.89,8.32-20.74,8.47-6.91,7.88-17.8.39-24.77-7.15-6.66-17.07-6.48-24.13.43-7.32,7.17-8.07,18.42.69,24.78,8.02,5.83,8.22,12.69,8.22,20.71-.01,39.77.31,79.54-.11,119.3-.09,8.78,2.72,15.07,8.82,20.96,14.66,14.16,28.28,29.48,43.65,42.8,10.13,8.77,13.13,18.26,13.11,31.14-.31,219.73-.24,439.46-.24,659.19,0,27.72-.13,55.44.15,83.15.13,13.36,1.65,26.72,1.5,40.07-.26,22.74-1.76,45.47-1.96,68.22-.29,32.8.12,65.61.24,98.42,0,2.48-.14,4.99.13,7.44.14,1.23.14,3.93,0,4.27-.27.68-.12,1.37-.13,2.05-.12,9.04-.53,18.07-.24,27.11.2,6.26.59,26.15.46,29.83-.28,7.63-.15,15.27-.15,22.9,0,60.52-.07,121.04.24,181.56.02,3.55-2.98,6.16-13.11,8.58-15.37,3.67-28.99,7.89-43.65,11.79-6.1,1.62-8.91,3.35-8.82,5.77.42,10.95.09,21.91.11,32.86,0,2.21-.2,4.1-8.22,5.7-8.76,1.75-8.01,4.85-.69,6.83,7.06,1.9,16.98,1.95,24.13.12,7.48-1.92,8.08-4.92-.39-6.82-7.18-1.61-8.39-3.38-8.32-5.71.35-10.68.19-21.36-.06-32.04-.05-2.01.98-3.73,6.54-5.21,14.97-4.01,29.57-8.12,44.43-12.16,1.25-.34,3.28-.46,5.81-.8.91.68,2.08,1.15,2.08,1.63.04,16.84-.25,33.68.15,50.52.06,2.72-2.94,4.62-9.97,6.44-15.55,4.04-30.37,8.28-45.59,12.42-12.34,3.36-37.13,3.35-49.62,0-5.71-1.53-11.16-3.13-16.98-4.62-5.98-1.53-10.56-2.96-9.11-5.62,1.29-2.37-6.87-4.46-15.25-4.73-8.57-.28-15.83.94-18.75,3.16-2.7,2.05.28,4.57,7.63,5.68,3.23.49,7.96.88,11.16.59,8.21-.73,13.12.2,18.06,1.78,4.21,1.34,10.08,2.34,13.62,3.78,13.2,5.39,32.82,4.18,51.26,3.84,4.14-.08,8.24-1.39,11.87-2.28,6.19-1.52,11.99-3.16,18.81-4.97,1.59.77,3.2,1.2,3.23,1.63.24,4.11.66,8.22.14,12.32-.46,3.65-30.14,11.51-43.36,11.54-29.34.07-58.69-.03-88.04.05-6.62.02-11.16-.68-15.62-1.92-18.52-5.16-37.4-10.22-55.93-15.38-11.44-3.18-11.19-10.12.38-13.34,19.94-5.55,40.13-11.02,60.03-16.58,5.78-1.62,10.59-2.96,20.47-1.95,7.83.79,14.84-.52,18.59-2.45,3.44-1.77,2.4-3.43-1.67-5.01-4.6-1.79-11.03-2.25-18.43-1.8-7.36.44-12.84,2.02-12.78,4.46.05,2.2-3.57,3.54-8.68,4.93-20.87,5.68-41.32,11.47-62.41,17.09-6.98,1.86-10.32,3.78-9.89,6.49,1.27,8.08-3.73,5.69,17.86,11.74,16.02,4.49,32.4,8.89,48.4,13.38,5.53,1.55,11.27,2.33,19.65,2.28,29.33-.17,58.69-.18,88.03,0,8.87.05,15.45-.61,20.89-2.43.94-.32,2.09-.59,3.11-.89,8.46-2.49,20.13-4.62,24.47-7.57,4.36-2.96,1.45-6.73,1.63-10.15.08-1.51.62-3.05-.3-4.51-2.98-4.73,7.03-7.29,19.11-9.56,1.27.08,2.53.17,3.8.25,0,2.15,0,4.29,0,6.44.02,4.24-.32,8.49.23,12.73.33,2.53-2.8,4.35-9.33,6.14-52.25,14.27-104.18,28.62-156.21,42.95-8.09,2.23-15.9,4.54-24.37,6.65-6.76,1.69-10.6,3.54-9.39,6.11.44.94.07,1.91.07,2.87-.01,6.7-.03,13.4-.03,20.09,0,7.09-.2,14.18.07,21.27.24,6.41,1.47,12.81,1.39,19.22-.15,11.9-.64,23.8-1.63,35.69-.26,3.13,3.45,5.34,11.6,7.51,31.77,8.48,62.58,17.24,94.38,25.71,8.53,2.27,12.24,4.56,12.2,7.85-.37,31.49-.24,62.98-.08,94.48.01,2.56-1.23,4.56-9.5,6.4-11.55,2.57-11.8,7.16-2.96,10.4,7.39,2.71,23.69,3.7,35.15,2.14,12.47-1.71,18.84-5.7,14.33-9.37-1.38-1.12-3.7-2.39-7.02-3.04-8.87-1.74-9.91-4.01-9.89-6.77.25-32.31-.06-64.63.32-96.94.04-3.03-3.31-5.1-10.96-7.16-32.34-8.71-63.99-17.62-96.29-26.34-7.26-1.96-10.76-3.96-10.53-6.81.62-7.53.49-15.06.18-22.59-.35-8.57-1.4-17.14-1.75-25.72-.11-2.72,1.48-5.44,1.54-8.16.26-11.74.24-23.49.34-35.23,0-.66.22-1.33.48-2.83,8.25,1.92,15.17,3.32,21.21,4.97,15.83,4.33,31.11,8.81,46.97,13.13,5.71,1.56,8.22,3.22,8.25,5.45.14,10.4.95,20.8,1.14,31.21.08,4.1-.53,8.2-1.42,12.29-.49,2.26,2.61,3.84,8.32,5.4,42.01,11.47,83.58,23.06,125.72,34.5,7.72,2.1,10.86,4.23,10.75,7.21-.52,13.96-.02,27.93-.42,41.9-.07,2.53,2.43,4.37,9.05,6.14,23.85,6.4,47.03,13,70.77,19.43,6.29,1.7,10.74,3.25,9.89,5.99-.93,3,7.7,4.88,18.02,4.66,9.38-.21,16.89-2.43,16.62-4.91-.29-2.67-9.13-5.19-18.84-4.59-9.07.57-13.86-.44-19.29-1.95-24.12-6.72-48.27-13.43-72.71-20.06-5.07-1.38-6.81-2.79-6.78-4.72.24-14.38-.1-28.75.27-43.13.07-2.68-2.82-4.63-9.74-6.51-41.75-11.35-83-22.84-124.76-34.18-7.29-1.98-10.29-4.01-10.3-6.85-.05-10.53-1.3-21.06-1.63-31.59-.11-3.54.73-7.1,1.97-10.63.97-2.76-3.38-4.64-10.17-6.46-22.41-6-44.52-12.09-66.69-18.16-2.06-.56-3.68-1.24-6.57-2.23,4.58-1.32,8.84-2.59,13.28-3.81,57.99-15.98,115.89-31.99,174.14-47.89,7.98-2.18,11.78-4.39,11.54-7.56-.72-9.44-.28-18.89-.22-28.34,0-.77.48-1.54.93-2.88,4.05.77,6.95,1.17,9.13,1.76,37.09,10.12,74.01,20.28,111.17,30.37,6.78,1.84,10.39,3.78,9.79,6.51-.84,3.82-.67,7.67-.07,11.5.42,2.66-2.54,4.62-9.54,6.53-45.62,12.42-90.86,24.94-136.15,37.44-7.01,1.94-12.85,4.26-20.66,5.89-11.75,2.45-14.43,5.66-14.19,9.35.5,7.52,1.22,15.04,1.34,22.56.03,2,3.34,3.34,7.97,4.65,28.51,8.01,56.71,16.1,85.64,23.99,9.05,2.47,14.6,4.91,13.45,8.59-1.2,3.81.22,7.67-.46,11.49-.45,2.55,2.65,4.37,9.18,6.14,41.74,11.35,83.09,22.81,124.74,34.19,6.18,1.69,10.83,3.19,9.6,5.97-1.26,2.87,7.68,4.81,18.16,4.68,9.54-.12,16.61-2.24,16.31-4.88-.33-2.84-7.9-5.02-18.66-4.49-9.17.45-13.9-.69-19.26-2.17-41.81-11.53-83.58-23.07-125.66-34.53-5.87-1.6-8.09-3.25-7.9-5.45.39-4.38-.36-8.77.27-13.14.37-2.55-2.58-4.38-9.25-6.13-27.7-7.26-54.99-14.63-82.4-21.97-3.92-1.05-7.65-2.15-11.55-3.21-5.27-1.43-7.26-3.04-6.92-5.16,1.05-6.55,1.22-13.11,1.7-19.66.07-.96.66-1.97-.28-2.86-2.27-2.15.66-3.61,6.13-5.09,25.51-6.91,50.74-13.9,76.05-20.86,26.37-7.26,52.7-14.53,79.09-21.79,2.99-.82,6.34-1.55,11.29-2.75.78,1.37,1.53,2.1,1.56,2.84.21,6.85.16,13.69.51,20.54.1,2.05-2.16,3.65-7.59,5.11-18.51,4.96-36.58,10.04-55.09,14.99-5.99,1.6-9.85,3.26-9.7,5.69.42,6.43.22,12.87.16,19.3-.04,4.79.11,9.58-.53,14.36-.37,2.79,2.66,4.86,10.05,6.88,114.51,31.4,228.7,62.89,343.13,94.32,6.11,1.68,8.75,3.39,8.7,5.78-.32,14.1-.22,28.21-.05,42.31.02,2-1.2,3.52-7.3,5.01-11.99,2.92-8.13,6.81,7.11,8.15,7.47.66,14.2-.02,17.95-1.81,4.24-2.02,4.43-4.57-1.82-5.58Z"/>
        <path class="cls-1" d="M789.61,3008.46c-.43-2.78-8.21-4.91-19.14-4.39-9.01.43-13.9-.61-19.34-2.11-41.35-11.46-82.68-22.94-124.37-34.31-6.63-1.81-8.89-3.69-8.87-6.19.24-30.4.02-60.8.41-91.2.04-3.27-3.35-5.63-11.94-7.92-30.01-8-59.15-16.25-88.93-24.31-5.76-1.56-8.64-3.14-8.3-5.4.63-4.24.76-8.49.22-12.73-.29-2.25,2.3-3.86,8.08-5.43,29.39-7.98,58.13-16.14,87.8-24.03,9.33-2.48,13.36-5.04,13.09-8.63-.79-10.54-.17-21.09-.58-31.63-.09-2.25,2.39-3.88,8.17-5.43,17.8-4.78,35.39-9.62,52.6-14.56,6.32-1.81,12.92-2.66,22.22-2.61,26.76.15,53.55.05,82.86.05-2.86,1.25-4.08,2.07-6.17,2.65-25.56,7.1-50.63,14.34-77.19,21.14-12.39,3.18-17.05,6.49-16.7,11.09,1,12.87.08,25.74.55,38.61.12,3.23-2.09,5.89-11.91,7.91-3.94.81-7.17,1.89-10.51,2.91-5.51,1.67-10.42,2.83-20.41,2.16-12.66-.85-23.56,2.11-23.67,5.62-.11,3.58,10.42,6.23,23.29,5.88,12.13-.34,21.41-3.65,17.93-7.12-2.17-2.17.37-3.36,5.41-4.62,1.47-.37,2.63-.84,4.23-1.16,18.95-3.71,24.55-8.72,22.16-14.98-1.81-4.74-.41-9.58-.33-14.37.02-.92.54-1.83.98-3.2,3.58.46,6.5.61,8.26,1.08,16.67,4.51,33.03,9.11,49.73,13.61,5.05,1.36,6.73,2.89,6.71,4.78-.2,17.66-.35,35.32-.21,52.98.05,6.7.58,13.4,1.56,20.09.31,2.1-1.18,3.53-7.62,4.9-8.01,1.7-7.8,4.69-1.12,6.47,5.47,1.46,16.74,1.72,21.93.51,7.3-1.7,9.34-5.51,1.48-6.88-12.63-2.2-10.05-5.12-9.85-8.26.54-8.47.27-16.94.27-25.41,0-14.93-.23-29.85.08-44.78.05-2.38-2.36-4.13-8.58-5.79-18.92-5.05-37.16-10.29-56.09-15.34-5.49-1.46-7.9-2.99-7.74-5.06.36-4.52.38-9.04.07-13.56-.12-1.79,1.98-3.16,6.47-4.39,31.3-8.61,62.54-17.24,93.76-25.88,4.49-1.24,9.68-1.71,16.11-1.67,17.4.1,34.82-.03,52.23.08,7.03.04,12.37-.58,17.23-1.92,31.95-8.82,63.83-17.67,96.17-26.39,7.43-2,7.53-4.27,7.53-6.76-.09-57.51,3.76-255.53,3.36-263.6.41-29.11-3.52-247.29-3.3-266.6.24-21.37-.16-42.75-.16-64.13,0-208.8.02-417.61.1-626.41,0-9.06-.1-17.29-7.53-24.56-32.34-31.65-64.22-63.76-96.17-95.8-4.86-4.87-10.19-7.14-17.23-6.98-17.4.4-34.82-.05-52.23.31-6.43.13-11.61-1.57-16.11-6.08-31.22-31.35-62.46-62.69-93.76-93.96-4.48-4.48-6.59-9.46-6.47-15.95.31-16.4.28-32.82-.07-49.21-.16-7.51,2.24-13.04,7.74-18.36,18.93-18.32,37.17-37.36,56.09-55.69,6.22-6.02,8.63-12.35,8.58-21.01-.31-54.19-.09-108.38-.08-162.57,0-30.75.27-61.51-.27-92.25-.2-11.41-2.78-21.99,9.85-29.98,7.86-4.97,5.83-18.8-1.48-24.99-5.19-4.39-16.45-3.44-21.93,1.86-6.68,6.46-6.89,17.3,1.12,23.48,6.44,4.97,7.93,10.14,7.62,17.78-.98,24.3-1.51,48.63-1.56,72.94-.14,64.12,0,128.25.21,192.37.02,6.87-1.66,12.42-6.71,17.36-16.7,16.35-33.06,33.04-49.73,49.42-1.76,1.73-4.68,2.28-8.26,3.93-.44-4.97-.96-8.3-.98-11.63-.08-17.4-1.48-34.95.33-52.16,2.38-22.72-3.21-40.93-22.16-54.38-1.6-1.13-2.76-2.86-4.23-4.2-5.04-4.56-7.59-8.91-5.41-16.77,3.48-12.6-5.8-24.62-17.93-25.84-12.88-1.3-23.4,8.34-23.29,21.33.11,12.71,11.01,23.46,23.67,20.39,10-2.43,14.91,1.79,20.41,7.86,3.34,3.68,6.57,7.62,10.51,10.55,9.81,7.32,12.02,16.96,11.91,28.71-.47,46.73.45,93.48-.55,140.19-.36,16.71,4.31,28.73,16.7,40.26,26.55,24.71,51.62,51.01,77.18,76.77,2.09,2.11,3.31,5.08,6.17,9.61-29.31,0-56.09-.35-82.86.19-9.31.19-15.91-2.89-22.22-9.47-17.21-17.93-34.8-35.52-52.6-52.87-5.78-5.64-8.25-11.57-8.17-19.72.41-38.28-.21-76.57.58-114.83.27-13.03-3.77-22.3-13.09-31.32-29.66-28.67-58.41-58.3-87.8-87.26-5.78-5.69-8.37-11.52-8.08-19.71.54-15.39.41-30.83-.22-46.22-.34-8.21,2.54-13.93,8.3-19.6,29.78-29.28,58.92-59.22,88.93-88.27,8.59-8.31,11.98-16.87,11.94-28.75-.39-110.37-.17-220.74-.41-331.11-.02-9.07,2.25-15.9,8.87-22.47,41.69-41.29,83.01-82.94,124.37-124.56,5.43-5.47,10.33-9.22,19.34-7.67,10.93,1.88,18.71-5.83,19.14-15.93.43-10.19-7.21-18.36-17.28-18.47-10.04-.11-17.85,7.12-17.23,18.2.41,7.26-1.5,12.12-6.45,17.03-28.26,27.99-56.28,56.23-84.51,84.26-2.12,2.1-5.21,3.23-9.14,5.59-.42-4.85-.88-7.7-.88-10.56,0-23.86-.37-47.74.32-71.58.3-10.23-2.61-17.81-9.95-25-28.41-27.84-56.26-56.25-84.54-84.23-6.86-6.79-12.52-12.52-10.46-24.12,2.18-12.21-10.32-23.07-22.38-22.26-11.35.76-20.95,12.5-19.6,23.96,1.45,12.29,13.63,21.6,25.91,17.7,8.52-2.7,12.98.54,18.1,5.68,29.46,29.61,58.88,59.25,88.61,88.57,5.46,5.38,7.54,10.97,7.43,18.47-.32,20.88-1.83,41.96.51,62.59,2.71,23.83-5.08,41.37-23.61,55.17-10.52,7.83-13.22,18.11-13.16,31.05.45,109.37.14,218.75.49,328.13.03,10.88-3.3,18.72-10.99,26.22-27.77,27.07-55,54.69-82.51,82.02-1.86,1.85-4.36,3.07-7.04,4.92-1.03-2.64-1.99-3.96-1.99-5.28-.07-50.71.07-101.42-.18-152.12-.04-7.78,3.25-13.04,8.49-18.11,12.86-12.45,25.25-25.38,38.22-37.71,5.82-5.53,8.56-11.48,8.5-19.64-.33-47.73-.38-95.45-.21-143.18.03-7.55-2.25-13.17-7.67-18.42-15.36-14.86-30.02-30.45-45.55-45.13-7.42-7.01-11.1-14.38-10.64-24.78.73-16.37.5-32.81.15-49.21-.18-8.72.35-15.9,8.38-22.23,8.38-6.6,7.59-18.34.48-25.02-7.28-6.85-18.72-6.41-25.39.96-6.79,7.5-6.66,18.02,2.28,24.83,6.62,5.05,7.82,10.75,7.77,17.92-.12,17.4.54,34.83-.36,52.18-.61,11.84,2.53,20.76,11.47,28.9,14.32,13.04,27.21,27.65,41.44,40.8,8.01,7.4,11.15,15.46,11.02,26.22-.44,37.78-1.53,75.63.31,113.33,1.11,22.84-4.5,40.29-22.9,54.1-8.06,6.05-14.65,14.04-21.52,20.76-2.14-1.35-2.91-1.6-2.92-1.87-.38-9.37-1.97-18.92-.76-28.09,2.98-22.71-3.75-40.33-22.47-54.11-8.06-5.94-15.45-12.85-12.74-26.07,1.87-9.11-8.13-16.34-17.65-15.85-9.47.49-16.92,8.29-16.76,17.55.16,9.78,7.48,18.42,16.91,16.61,10.95-2.11,16.69,3.21,22.83,10.02,3.99,4.42,8.08,8.87,12.7,12.6,8.07,6.51,10.34,14.49,10.31,24.76-.3,98.41.08,196.82-.38,295.22-.05,11.49,3.32,19.55,11.34,27.37,29.56,28.79,58.48,58.25,87.99,87.08,6.93,6.77,10.08,13.89,9.95,23.64-.47,35.29-.23,70.59-.38,105.89-.01,3.25-.85,6.5-1.5,11.1-3.27-1.93-5.6-2.75-7.18-4.32-64.43-64.23-128.74-128.6-193.27-192.73-6.11-6.07-8.68-12.3-8.62-21.01.37-51.21-.05-102.42.29-153.62.07-10.14-2.65-17.75-10.03-25.06-52.98-52.49-105.5-105.45-158.39-158.03-6.06-6.02-9.53-10.72-6.65-20.43,3.6-12.15-7.16-23.68-19.87-24.25-11.92-.54-22.56,9.36-22.6,21.03-.04,11.95,12.05,23.89,23.8,20.85,9.76-2.52,14.72,1.34,20.58,7.23,51.92,52.15,103.83,104.29,156.13,156.06,7.77,7.69,10.61,15.7,10.53,26.4-.41,49.22.43,98.45-.5,147.65-.25,13.41,4.4,22.24,13.45,31.08,31.32,30.56,62.11,61.65,93.06,92.58,58.03,58,116.1,115.95,173.94,174.14,7.09,7.14,14.36,10.81,24.8,10.71,50.23-.49,100.47.17,150.69-.57,12.17-.18,20.5,3.81,28.66,12.19,27.73,28.49,55.82,56.66,84.23,84.48,7.31,7.16,10.64,14.5,10.57,24.83-.45,71.58-.38,143.17-.53,214.75,0,2.74-.58,5.47-1.27,11.64-8.07-7.51-13.85-13.16-19.92-18.47-6.05-5.29-8.65-11.61-8.39-19.72.46-14.41.5-28.83.25-43.25-.15-8.64.16-15.96,8.4-22.13,8.03-6.01,7.61-17.14,1.3-23.79-7.06-7.44-18.22-7.81-25.4-.83-6.78,6.59-8.07,18.11-.27,23.83,9.35,6.84,9.66,15.17,9.37,24.75-.23,7.45.97,15.07-.17,22.34-3.83,24.5,4.05,43.63,24.36,57.78,9.91,6.91,12.28,16.46,12.25,28.35-.33,144.67-.28,289.35-.09,434.02.03,20.72.03,334.96,0,340.67-.19,39.85-.24,79.7.09,119.54.03,3.27-2.34,5.91-12.25,7.81-20.31,3.9-28.2,9.17-24.36,15.91,1.14,2-.06,4.1.17,6.15.29,2.64-.01,4.93-9.37,6.82-7.81,1.57-6.51,4.75.27,6.56,7.17,1.92,18.33,1.82,25.4-.23,6.31-1.83,6.73-4.9-1.3-6.55-8.24-1.7-8.55-3.72-8.4-6.09.25-3.97.21-7.94-.25-11.91-.26-2.23,2.34-3.97,8.39-5.43,6.07-1.46,11.85-3.02,19.92-5.09.69,1.7,1.27,2.45,1.27,3.21.15,19.72.07,39.43.53,59.15.07,2.84-3.26,4.87-10.57,6.84-28.41,7.66-56.49,15.42-84.23,23.27-8.16,2.31-16.5,3.41-28.66,3.36-50.22-.21-100.46-.02-150.69-.16-10.44-.03-17.71.99-24.8,2.95-57.84,16.03-115.91,31.99-173.94,47.96-30.95,8.52-61.74,17.08-93.06,25.5-9.06,2.43-13.71,4.87-13.45,8.56.93,13.55.09,27.11.5,40.67.09,2.95-2.76,5.15-10.53,7.27-52.29,14.26-104.21,28.62-156.13,42.98-5.87,1.62-10.82,2.69-20.58,1.99-11.75-.84-23.84,2.45-23.8,5.74.04,3.21,10.68,5.94,22.6,5.79,12.71-.16,23.47-3.33,19.87-6.68-2.88-2.67.59-3.97,6.65-5.63,52.89-14.48,105.41-29.07,158.39-43.53,7.38-2.01,10.1-4.11,10.03-6.9-.34-14.1.07-28.21-.29-42.31-.06-2.4,2.51-4.11,8.62-5.79,64.53-17.67,128.84-35.39,193.27-53.09,1.58-.43,3.91-.66,7.18-1.19.65,1.27,1.48,2.16,1.5,3.06.15,9.72-.09,19.44.38,29.17.13,2.69-3.02,4.65-9.95,6.51-29.52,7.94-58.43,16.06-87.99,23.99-8.03,2.15-11.4,4.37-11.34,7.54.45,27.1.07,54.21.38,81.31.03,2.83-2.24,5.03-10.31,6.82-4.62,1.03-8.71,2.25-12.7,3.47-6.14,1.88-11.88,3.34-22.83,2.76-9.43-.5-16.75,1.88-16.91,4.57-.15,2.55,7.3,4.7,16.76,4.84,9.52.14,19.52-1.86,17.65-4.37-2.71-3.64,4.68-5.55,12.74-7.18,18.72-3.8,25.45-8.65,22.47-14.91-1.21-2.53.38-5.16.76-7.74.01-.08.78-.14,2.92-.52,6.86,1.85,13.46,4.05,21.52,5.72,18.4,3.8,24.02,8.61,22.9,14.9-1.84,10.38-.75,20.81-.31,31.21.13,2.96-3.01,5.19-11.02,7.22-14.23,3.62-27.12,7.64-41.44,11.24-8.94,2.24-12.08,4.7-11.47,7.96.9,4.78.24,9.58.36,14.37.05,1.98-1.15,3.55-7.77,4.94-8.94,1.88-9.07,4.77-2.28,6.84,6.68,2.03,18.11,2.15,25.39.26,7.11-1.84,7.9-5.07-.48-6.89-8.03-1.74-8.56-3.72-8.38-6.12.35-4.52.59-9.04-.15-13.55-.47-2.87,3.22-4.9,10.64-6.83,15.53-4.04,30.2-8.34,45.55-12.43,5.42-1.44,7.69-2.99,7.67-5.07-.17-13.15-.12-26.29.21-39.44.06-2.25-2.68-3.88-8.5-5.41-12.97-3.4-25.36-6.96-38.22-10.39-5.24-1.4-8.53-2.85-8.49-4.99.25-13.97.11-27.93.18-41.9,0-.36.96-.73,1.99-1.45,2.69.51,5.18.85,7.04,1.36,27.51,7.53,54.74,15.13,82.51,22.59,7.69,2.07,11.03,4.23,10.99,7.22-.35,30.13-.03,60.25-.49,90.38-.05,3.57,2.65,6.4,13.16,8.55,18.53,3.8,26.32,8.63,23.61,15.2-2.34,5.68-.82,11.49-.51,17.24.11,2.06-1.97,3.61-7.43,5.09-29.74,8.08-59.16,16.24-88.61,24.4-5.12,1.42-9.58,2.31-18.1,1.56-12.28-1.07-24.47,1.49-25.91,4.88-1.35,3.16,8.24,6.39,19.6,6.6,12.06.22,24.56-2.77,22.38-6.13-2.07-3.2,3.59-4.77,10.46-6.64,28.28-7.71,56.12-15.53,84.54-23.2,7.34-1.98,10.25-4.07,9.95-6.89-.69-6.57-.33-13.14-.32-19.72,0-.79.46-1.57.88-2.91,3.94.65,7.02.96,9.14,1.54,28.22,7.72,56.24,15.5,84.51,23.21,4.95,1.35,6.86,2.69,6.45,4.69-.63,3.05,7.18,5.04,17.23,5.01,10.06-.03,17.71-2.28,17.28-5.09ZM638.45,1024.61c-7.26-.13-14.28-7.12-14.36-14.29-.09-8,7.56-15.35,15.31-14.7,7.37.62,13.92,7.77,13.71,14.98-.2,7.16-7.5,14.14-14.65,14.02ZM528.39,229.51c-7.42-.14-14.09-6.89-14.04-14.21.06-7.42,6.68-14.22,13.99-14.35,7.97-.15,15.18,7.21,14.77,15.08-.4,7.55-7.04,13.63-14.72,13.49ZM205.36,699.59c-7.19.12-14.27-6.83-14.41-14.15-.14-7.26,6.76-14.83,13.66-14.98,7.97-.18,15.43,7.17,15.25,15.02-.17,7.35-6.98,13.98-14.5,14.1Z"/>
        <path class="cls-1" d="M2055.11,2832.69c-6.95-1.91-18.56-1.96-24.87.41-5.33,2-11.56,2.25-19.25,2.25-51.23-.03-102.46-.08-153.69,0-8.77.01-14.75-.86-20.74-2.53-29.64-8.29-59.9-16.42-89.43-24.75-7.29-2.05-14.9-2.76-25.06-2.74-85.55.11-171.1.04-256.64.18-12.41.02-21.37-.97-30.09-3.42-39.29-11.06-79.07-21.98-119.06-32.85-7.99-2.17-11.88-4.35-11.47-7.54.95-7.25,0-14.51.54-21.77.2-2.68-2.91-4.6-9.8-6.48-51.98-14.15-103.45-28.44-155.56-42.56-8.81-2.39-13.52-4.75-12.68-8.24,1.09-4.5-.06-9.03.49-13.55.26-2.12-2.38-3.63-7.69-5.07-18.8-5.08-37.1-10.31-56.1-15.33-6.66-1.76-9.26-3.59-9.25-6.13.26-46.28.28-92.56.16-138.83-.02-6.15-1.45-12.3-1.5-18.45-.04-5.19,1.35-10.38,1.46-15.57.28-12.71.34-45.07.34-47.26,0-.99-.06-95.29-.34-141.44-.11-18.85-1.5-37.69-1.46-56.53.05-22.33,1.48-44.66,1.5-66.99.12-168.02.1-336.04-.16-504.06-.01-9.21,2.59-15.86,9.25-22.25,19.01-18.24,37.3-37.21,56.1-55.66,5.31-5.21,7.95-10.72,7.69-18.41-.55-16.39.6-32.86-.49-49.19-.84-12.67,3.86-21.24,12.68-29.91,52.1-51.25,103.58-103.14,155.56-154.52,6.9-6.82,10.01-13.81,9.8-23.53-.55-26.33.41-52.71-.54-79.02-.42-11.59,3.48-19.51,11.47-27.38,39.99-39.45,79.77-79.12,119.06-119.26,8.72-8.91,17.68-12.49,30.09-12.42,85.55.53,171.1.27,256.64.66,10.16.05,17.77-2.51,25.06-9.97,29.52-30.23,59.79-59.73,89.43-89.84,5.99-6.09,11.97-9.25,20.74-9.2,51.23.29,102.46.13,153.69,0,7.69-.02,13.92.91,19.25,8.17,6.31,8.6,17.92,8.41,24.87,1.49,6.91-6.88,6.92-19.02.02-25.5-7.28-6.84-18.16-6.88-24.85,1.82-5.49,7.14-11.8,7.74-19.51,7.72-51.73-.13-103.46.18-155.18-.26-9.29-.08-15.83,2.71-22.23,9.24-29.24,29.82-59.02,59.1-88.3,88.88-7.03,7.15-14.14,10.72-24.74,10.67-87.04-.4-174.08.06-261.12-.22-9.73-.03-16.98,2.38-23.83,9.29-42.68,43.09-85.57,85.98-128.6,128.73-6.13,6.09-8.46,12.59-8.31,21.2.45,26.83-.24,53.69.3,80.52.2,10.16-2.44,17.75-9.87,25.08-49.52,48.91-98.61,98.27-147.87,147.45-3.09,3.09-6.47,5.88-12.06,10.92-.87-5.3-1.56-7.58-1.56-9.87-.03-12.43-.29-24.87.3-37.27.46-9.67-2.7-16.97-9.71-23.73-18.6-17.93-36.48-36.61-55.01-54.62-5.76-5.6-8.63-11.28-8.17-19.58.73-13.38.76-26.87-.04-40.24-.62-10.34,3-17.59,10.28-24.83,83.88-83.44,167.38-167.26,251.28-250.68,7.28-7.24,10.46-14.43,10.35-24.71-.46-45.23.06-90.47-.32-135.7-.08-9.23,2.82-15.68,9.37-22.16,48.4-47.91,96.44-96.19,144.57-144.38,6.64-6.65,12.51-12.9,23.76-12.97,11.11-.06,19.31-12.88,17.94-23.56-1.41-10.97-11.99-19.1-23.52-18.09-11.66,1.02-20.88,10.54-18.44,22.47,2.21,10.79-2.43,16.36-9.07,22.96-49.32,49.07-98.23,98.57-147.71,147.49-7.45,7.37-10.06,14.88-9.96,25,.43,45.23.12,90.47.44,135.71.06,8.01-2.03,14.11-7.86,19.85-32.23,31.74-64.14,63.8-96.15,95.76-52.78,52.67-105.45,105.46-158.47,157.89-7.02,6.94-9.62,14.21-9.32,23.82.54,17.38.45,34.8-.11,52.18-.26,8.15,2.32,14.15,8.06,19.78,18.46,18.09,36.25,36.88,55.03,54.62,6.75,6.38,9.74,12.68,9.64,21.94-.42,37.77-.37,75.56.02,113.33.09,9.15-2.52,15.95-9.2,22.35-18.29,17.55-35.81,35.89-53.99,53.56-6.46,6.27-9.59,12.79-9.54,22.16.98,176.89,1.74,353.79,2.24,530.69.08,27.72-1.81,55.44-1.98,83.17-.32,53.67-.07,107.35,0,161.02,0,2.25,0,8.17,0,8.79-.06,14.78-.31,29.57,0,44.35.16,7.64,2.06,15.27,1.98,22.91-.5,48.72-1.26,97.45-2.24,146.17-.05,2.58,3.08,4.38,9.54,6.1,18.18,4.87,35.7,9.92,53.99,14.75,6.68,1.76,9.29,3.63,9.2,6.16-.39,10.4-.43,20.81-.02,31.22.1,2.55-2.88,4.29-9.64,6.04-18.78,4.89-36.56,10.06-55.03,15.04-5.74,1.55-8.32,3.2-8.06,5.45.55,4.79.64,9.59.11,14.37-.3,2.65,2.3,4.65,9.32,6.56,53.02,14.44,105.69,28.98,158.47,43.49,32.02,8.8,63.93,17.63,96.15,26.37,5.83,1.58,7.91,3.26,7.86,5.47-.32,12.46,0,24.92-.44,37.38-.1,2.79,2.51,4.86,9.96,6.89,49.48,13.47,98.38,27.11,147.71,40.62,6.63,1.82,11.27,3.35,9.07,6.32-2.44,3.29,6.78,5.91,18.44,6.19,11.53.28,22.11-1.96,23.52-4.98,1.37-2.94-6.83-6.47-17.94-6.49-11.25-.02-17.12-1.74-23.76-3.57-48.13-13.27-96.16-26.57-144.57-39.77-6.55-1.79-9.45-3.56-9.37-6.1.38-12.46-.15-24.92.32-37.38.11-2.83-3.07-4.81-10.35-6.81-83.9-22.98-167.4-46.06-251.28-69.04-7.28-1.99-10.89-3.99-10.28-6.84.8-3.68.78-7.4.04-11.08-.45-2.29,2.41-3.85,8.17-5.39,18.53-4.96,36.4-10.11,55.01-15.04,7.02-1.86,10.17-3.87,9.71-6.54-.59-3.42-.33-6.84-.3-10.27,0-.63.7-1.26,1.56-2.72,5.58,1.39,8.96,2.16,12.06,3.01,49.26,13.55,98.35,27.14,147.87,40.61,7.43,2.02,10.07,4.11,9.87,6.91-.53,7.39.15,14.79-.3,22.18-.14,2.37,2.18,4.16,8.31,5.84,43.03,11.77,85.92,23.59,128.6,35.46,6.84,1.9,14.09,2.57,23.82,2.56,87.04-.08,174.08.05,261.12-.06,10.59-.01,17.71.97,24.74,2.94,29.28,8.2,59.06,16.27,88.3,24.48,6.4,1.8,12.94,2.57,22.23,2.54,51.72-.12,103.45-.03,155.18-.07,7.71,0,14.02.16,19.51,2.13,6.7,2.4,17.57,2.39,24.85.5,6.89-1.78,6.88-5.13-.02-7.02Z"/>
        <path class="cls-1" d="M186.15,2819.25c-1.45-2.25,1.23-3.56,6.53-5,30.41-8.27,60.44-16.66,91.01-24.89,6.61-1.78,9.23-3.6,9.12-6.14-.47-10.81.03-21.63-.43-32.44-.11-2.68,2.74-4.63,9.82-6.49,16.9-4.44,33.2-9.06,49.42-13.69,5.63-1.61,11.74-2.2,19.85-2.17,29.83.11,59.68-.06,89.51.09,8.84.04,14.93-.79,20.89-2.46,28.99-8.08,58.81-15.95,87.17-24.2,10.8-3.14,22.37-4.09,37.17-3.88,16.79.25,33.66.06,50.49.12,29.81.11,59.64.13,89.42.47,11.48.13,19.54-.82,27.53-3.07,30.21-8.52,60.99-16.9,91.85-25.24,6.49-1.76,9.35-3.58,9.28-6.13-.42-14.24-.04-28.48-.41-42.71-.06-2.53,2.59-4.34,9.3-6.11,19.03-5.02,37.13-10.3,55.99-15.36,5.05-1.36,7.22-2.72,7.2-4.66-.19-29.71-.13-59.42-.14-89.13,0-6-.01-12,0-18,0-18.58.03-37.17.02-55.76,0-1.09,0-11.99,0-15.96.01-67.48-.01-134.95-.02-202.43,0-21.78,0-43.56,0-65.35,0-107.86-.05-215.72.14-323.58.01-7.06-2.15-12-7.2-16.92-18.86-18.39-36.97-37.56-55.99-55.77-6.72-6.43-9.37-13-9.3-22.18.36-51.69-.02-103.39.41-155.08.08-9.27-2.79-15.89-9.28-22.26-30.86-30.3-61.63-60.7-91.85-91.64-7.98-8.17-16.04-11.64-27.53-11.16-29.78,1.24-59.61,1.32-89.42,1.72-16.83.23-33.7-.44-50.49.45-14.8.78-26.37-2.67-37.17-14.07-28.36-29.94-58.18-58.5-87.17-87.85-5.96-6.03-12.05-9.07-20.89-8.92-29.83.53-59.68-.09-89.51.32-8.11.11-14.22-2.03-19.85-7.87-16.22-16.81-32.52-33.57-49.42-49.69-7.08-6.75-9.93-13.83-9.82-23.57.46-39.26-.03-78.53.43-117.79.11-9.2-2.51-15.81-9.12-22.28-30.57-29.88-60.59-60.32-91.01-90.36-5.3-5.23-7.99-9.99-6.53-18.17,1.84-10.37-6.25-18.99-15.83-19.56-9.41-.56-18.45,7.76-18.83,17.35-.38,9.45,7.78,18.79,18.02,17.56,8.93-1.07,13.75,2.79,19.14,8.2,29.81,29.95,59.64,59.87,89.78,89.48,5.88,5.77,8.02,12.02,7.92,19.91-.29,23.85-.18,47.71-.39,71.57-.03,3.22-.95,6.43-1.78,11.65-4.46-3.66-7.62-5.84-10.3-8.51-15.52-15.41-31.13-30.74-46.27-46.52-6.34-6.6-13.12-9.08-22.38-9.02-51.72.37-103.44-.09-155.16.1-7.93.03-13.88-1.05-19.35-7.94-6.67-8.39-17.79-8.08-24.99-1.16-6.69,6.44-7.01,17.25-.72,24.25,6.48,7.21,18.53,8.13,25.02-.08,6.27-7.94,13.52-8.62,22.22-8.6,50.23.14,100.46.2,150.69-.14,8.64-.06,15.13,2.42,21.12,8.56,16.65,17.09,33.28,34.23,50.75,50.47,8.37,7.78,12.94,15.94,11.49,27.34-.37,2.94.17,5.98-.13,8.94-.82,8.06,2.11,14.13,8.07,19.72,11.95,11.22,23.34,23.05,34.86,34.74,5.72,5.81,11.2,11.86,18.46,19.57-5.25.81-8,1.61-10.74,1.61-59.68.1-119.36.04-179.04.22-6.53.02-11.05-2.14-15.44-7.04-3.09-3.44-7.97-6.1-12.52-7.22-9.29-2.3-19.25,3.66-23.01,12.52-3.87,9.11-.96,19.7,6.93,25.27,7.87,5.55,19.39,5.68,26.16-1.14,5.86-5.9,11.19-9.64,20.34-9.6,93.99.42,187.99.25,281.98.3,25.43.01,25.32.21,43.65,18.7,27.3,27.54,54.77,54.91,82.12,82.4,4.29,4.31,8.44,7.78,15.37,7.45,22.68-1.06,45.38-1.91,68.08-2.03,15.36-.08,30.71,1.47,46.08,1.82,14.91.34,29.85.49,44.75-.06,9.61-.36,16.78,2.36,23.71,9.46,28.1,28.83,56.65,57.22,85.45,85.37,6.94,6.78,9.99,13.79,9.9,23.56-.42,50.2.06,100.4-.45,150.6-.11,11.19,2.35,19.68,10.85,27.57,17.12,15.87,32.7,33.41,49.95,49.12,9.38,8.55,12.41,17.68,12.37,30.04-.36,120.68-.19,241.36-.19,362.05,0,24.75-.17,49.49,0,74.24.08,11.89,1.21,23.78,1.13,35.67-.23,35.76-.84,71.51-1.24,107.26-.04,3.46-.04,13.02,0,13.97.4,9.85.19,36.09.11,39.37-.17,6.82,0,13.63,0,20.45,0,33.24-.18,66.48.19,99.72.04,3.4-2.98,5.92-12.37,8.27-17.25,4.33-32.83,9.16-49.95,13.53-8.51,2.17-10.97,4.51-10.85,7.59.52,13.83.04,27.65.46,41.48.08,2.69-2.97,4.62-9.9,6.49-28.79,7.75-57.34,15.57-85.45,23.51-6.92,1.96-14.1,2.7-23.71,2.61-14.9-.15-29.84-.11-44.75-.02-15.37.1-30.72.52-46.08.5-22.7-.03-45.4-.27-68.08-.56-6.93-.09-11.08.86-15.37,2.05-27.35,7.57-54.82,15.11-82.12,22.69-18.32,5.09-18.22,5.15-43.65,5.15-93.99.01-187.99-.03-281.98.08-9.15.01-14.48-1.02-20.34-2.64-6.77-1.88-18.3-1.84-26.16-.31-7.89,1.53-10.79,4.45-6.93,6.96,3.76,2.44,13.72,4.08,23.01,3.45,4.55-.31,9.44-1.04,12.52-1.99,4.39-1.35,8.91-1.95,15.44-1.94,59.68.05,119.36.04,179.04.06,2.74,0,5.49.22,10.74.44-7.25,2.12-12.73,3.79-18.46,5.39-11.51,3.22-22.9,6.48-34.86,9.57-5.96,1.54-8.88,3.21-8.07,5.43.3.81-.24,1.65.13,2.46,1.45,3.14-3.11,5.39-11.49,7.53-17.47,4.47-34.1,9.19-50.75,13.9-5.99,1.69-12.48,2.38-21.12,2.36-50.23-.09-100.46-.08-150.69-.04-8.7,0-15.95-.18-22.22-2.37-6.49-2.26-18.55-2.01-25.02-.02-6.29,1.93-5.97,4.91.72,6.68,7.2,1.91,18.32,1.99,24.99-.32,5.47-1.9,11.42-2.19,19.35-2.19,51.72.05,103.44-.07,155.16.03,9.26.02,16.05-.67,22.38-2.48,15.14-4.35,30.76-8.57,46.27-12.81,2.68-.73,5.84-1.34,10.3-2.34.82,1.44,1.75,2.32,1.78,3.21.2,6.57.1,13.14.39,19.71.09,2.17-2.04,3.89-7.92,5.48-30.14,8.16-59.98,16.4-89.78,24.65-5.39,1.49-10.21,2.55-19.14,2.26-10.24-.34-18.4,2.23-18.02,4.84.38,2.64,9.42,4.93,18.83,4.78,9.58-.16,17.67-2.53,15.83-5.39Z"/>
        <path class="cls-1" d="M565.12,2649.42c-17.51,4.84-35.3,9.61-52.66,14.49-5.67,1.59-11.7,2.23-19.82,2.19-26.85-.12-53.71-.11-80.56,0-9.08.03-15.8-.68-22.24-2.56-17.35-5.06-35.73-9.85-53.31-14.85-6.32-1.8-13.02-2.63-22.3-2.58-27.34.14-54.71,0-82.06.08-8.32.02-14.97-.22-20.63-2.34-5.5-2.06-13.81-2.16-21.45-1-6.83,1.03-10.51,3.28-8.49,5.19,1.97,1.86,10.76,4.01,17.71,3.72,4.89-.2,10.26-1.07,13.63-2.09,4.16-1.26,8.34-1.71,14.21-1.71,28.84.04,57.69-.04,86.53.04,4.67.01,10.69.25,13.76,1.05,19.64,5.14,38.63,10.46,57.7,15.69-4.26,1.97-9.74,1.3-14.23,1.24-7.55-.11-13.62.47-18.45,2.09-7.31,2.46-14.72,4.9-22.1,7.35,8.27-1.78,16.82-3.49,24.52-5.44,5.9-1.5,11.88-2.18,19.96-2.17,38.79.09,77.59-.12,116.36.12,12.2.07,20.6-1.01,28.65-3.34,17.05-4.95,35.2-9.61,52.03-14.61,5.49-1.63,11-2.02,18.25-2.01,39.79.03,79.58-.1,119.36.06,10.95.04,18.66-.89,26.07-3.05,17.02-4.95,34.84-9.68,53.79-14.91,1.17,1.22,2.4,1.91,2.42,2.6.19,6.84-.19,13.69.41,20.53.21,2.42-2.66,4.19-8.7,5.82-18.11,4.88-36.16,9.79-53.87,14.78-5.68,1.6-11.78,2.23-19.84,2.2-27.3-.1-54.6-.05-81.91-.05-14.85,0-29.72-.06-44.55.09-3.5.03-7.7.57-10.22,1.26-19.08,5.19-38.07,10.41-56.55,15.76-7.25,2.1-14.23,3.06-25.61,2.97-29.25-.22-58.6.11-87.85.54-6.26.09-12.64,1.38-18.26,2.4-4.46.82-7.96,2.05-11.67,3.16-6.77,2.02-12.53,3.97-25.12,3.22-9.37-.56-16.57,1.93-16.66,4.64-.09,2.68,6.91,4.64,16.82,4.72,9.75.08,18.77-1.81,17.55-4.41-1.37-2.93,3.49-4.64,10.16-6.36,3.99-1.03,8.71-1.93,11.68-3.15,8.39-3.45,20.14-3.86,33.85-3.63,21.81.37,43.71.35,65.55.57,12.02.12,21.87-.72,30.68-3.25,16.15-4.63,34.25-8.76,50.06-13.47,10.35-3.08,22.05-3.76,36.09-3.67,35.22.23,70.45.19,105.66.47,10.9.09,18.8-.85,26.25-2.99,17.5-5.05,35.48-9.98,53.71-14.83,6.58-1.75,9.54-3.6,9.38-6.14-.5-7.66.09-15.33-.52-23-.18-2.27,2.17-3.86,7.93-5.42,30.46-8.26,60.43-16.66,91-24.89,7.3-1.97,10.48-3.99,10.45-6.83-.34-26.42-.09-52.85-.3-79.27-.05-5.88-.27-36.49-.01-45.93.32-12.15.14-24.3.03-36.46,0-.94,0-10.87,0-14.28.11-44.12.29-88.24-.03-132.36-.25-34.25-1.57-68.5-1.7-102.75-.08-21.33,1.67-42.66,1.71-63.99.21-95.93-.04-191.87.3-287.8.04-10.31-3.15-17.65-10.45-24.79-30.57-29.88-60.54-60.37-91-90.37-5.76-5.68-8.11-11.47-7.93-19.69.61-27.82.01-55.67.52-83.5.17-9.23-2.79-15.93-9.38-22.29-18.23-17.61-36.22-35.5-53.71-53.84-7.44-7.8-15.35-11.18-26.25-10.87-35.21,1.01-70.45.9-105.66,1.72-14.03.33-25.74-2.13-36.09-13.33-15.81-17.11-33.91-32.09-50.06-48.91-8.81-9.17-18.66-12.23-30.68-11.79-21.85.8-43.74.75-65.55,2.07-13.71.83-25.46-.66-33.85-13.17-2.97-4.44-7.69-7.72-11.68-11.45-6.67-6.25-11.53-12.45-10.16-23.09,1.22-9.45-7.8-16.31-17.55-16.02-9.91.29-16.91,7.42-16.82,17.14.09,9.82,7.29,18.86,16.66,16.83,12.59-2.73,18.35,4.36,25.12,11.68,3.71,4.01,7.21,8.49,11.67,11.46,5.62,3.73,12,8.39,18.26,8.73,29.25,1.56,58.59,2.78,87.85,1.97,11.38-.31,18.36,3.17,25.61,10.79,18.48,19.43,37.47,38.38,56.55,57.22,2.52,2.49,6.72,4.44,10.22,4.57,14.83.54,29.7.32,44.55.32,27.3,0,54.61.18,81.91-.19,8.05-.11,14.16,2.16,19.84,7.98,17.71,18.13,35.76,35.93,53.87,53.67,6.04,5.92,8.91,12.34,8.7,21.12-.59,24.84-.22,49.7-.41,74.55-.02,2.52-1.24,5.02-2.42,9.46-18.95-18.97-36.76-36.17-53.79-54.13-7.41-7.82-15.13-11.22-26.07-11.06-39.78.58-79.57.1-119.36.23-7.26.02-12.76-1.38-18.25-7.31-16.82-18.17-34.97-35.1-52.03-53.06-8.06-8.48-16.45-12.41-28.65-12.14-38.77.87-77.57.13-116.36.44-8.08.07-14.06-2.42-19.96-7.87-7.69-7.11-16.24-13.29-24.52-19.77,7.38,8.88,14.79,17.74,22.1,26.67,4.82,5.89,10.9,7.98,18.45,7.6,4.49-.23,9.97-2.65,14.23,4.49-19.07,18.98-38.06,38.32-57.7,56.98-3.07,2.92-9.09,3.77-13.76,3.82-28.84.31-57.69.02-86.53.16-5.87.03-10.06-1.63-14.21-6.19-3.37-3.7-8.75-6.86-13.63-7.59-6.95-1.04-15.74,6.75-17.71,13.51-2.02,6.93,1.66,15.1,8.49,18.85,7.64,4.19,15.95,3.85,21.45-3.64,5.66-7.7,12.31-8.58,20.63-8.49,27.35.28,54.71-.23,82.06.29,9.28.18,15.98-2.85,22.3-9.37,17.58-18.16,35.96-35.55,53.31-53.93,6.44-6.82,13.16-9.42,22.24-9.29,26.85.36,53.71.4,80.56-.03,8.11-.13,14.15,2.17,19.82,7.96,17.36,17.73,35.15,35.03,52.66,52.61.74.74.31,2.64.53,5.29-15.8,0-31.13.37-46.42-.13-10.07-.33-17.56,2.64-24.89,10.11-41.42,42.24-83.44,83.89-125.18,125.81-5.36,5.38-10.09,9.65-19.19,8.22-10.57-1.66-18.38,6.45-18.66,16.47-.28,9.96,7.94,18.22,17.87,17.94,9.61-.27,18.66-8.92,16.67-18.83-1.86-9.27,2.61-13.73,7.95-19.06,41.17-41.09,82.43-82.09,123.21-123.55,7.64-7.77,15.57-10.6,26.3-10.53,61.17.41,122.34.34,183.51.03,10.12-.05,17.61,2.66,24.97,10.12,51.71,52.34,103.68,104.42,156.19,155.96,9.35,9.18,13.11,18.33,13.11,31.28.03,102.86.88,205.73,1.1,308.59.14,62.96-.33,125.93-.6,188.89-.12,27.82-.49,55.63-.62,83.45-.01,3.15-.01,12.31,0,13.17.13,7.66.49,15.32.62,22.98.27,17.34.74,34.68.6,52.03-.23,28.33-1.08,56.66-1.1,85,0,3.57-3.77,6.09-13.11,8.62-52.5,14.2-104.48,28.54-156.19,42.96-7.37,2.05-14.85,2.8-24.97,2.79-61.17-.09-122.34-.1-183.51,0-10.72.02-18.65-.76-26.3-2.9-40.79-11.42-82.04-22.71-123.21-34.03-5.34-1.47-9.81-2.69-7.95-5.25,1.99-2.73-7.06-5.11-16.67-5.19-9.92-.08-18.15,2.2-17.87,4.94.28,2.76,8.09,4.99,18.66,4.54,9.09-.39,13.83.78,19.19,2.27,41.74,11.55,83.76,23.02,125.18,34.65,7.32,2.06,14.82,2.87,24.89,2.78,15.3-.14,30.62-.04,46.42-.04-.22.73.21,1.25-.53,1.46Z"/>
        <path class="cls-1" d="M328.8,2675.91c-.1-.03-.29-.08-.29-.08-.09.08-.2.15-.3.22.21-.04.43-.08.64-.13.51-.17,1.01-.34,1.52-.5-.62.13-1.25.27-1.87.4l.29.08Z"/>
        <path class="cls-1" d="M1929.59,2944.51c-11.73.58-17.47-1.28-24.03-3.09-49.93-13.74-99.78-27.51-149.69-41.26-25.65-7.07-51.07-14.21-77.22-21.13-9-2.38-13.11-4.88-12.24-8.32.96-3.81-.25-7.67.38-11.49.42-2.54-2.47-4.42-9.15-6.17-16.21-4.24-31.92-8.63-47.73-12.99-2.25-.62-3.95-1.39-7.11-2.53,5.22-.18,8.45-.38,11.67-.38,35.81-.04,71.62,0,107.43-.08,8.57-.02,15.11.71,21.15,2.4,25.41,7.13,51.09,14.2,76.89,21.23,5.27,1.43,8.2,2.81,7.48,5.01-1.03,3.13,7.38,5.3,17.96,5.14,9.72-.15,16.41-2.19,16.05-4.92-.37-2.86-8.14-5.11-18.53-4.54-9.3.52-13.76-.74-19.07-2.21-25.96-7.18-52.18-14.28-77.91-21.52-6.08-1.71-12.51-2.39-21.03-2.37-39.79.08-79.58-.02-119.36.1-9.22.03-15.9-.66-22.13-2.58-8.26-2.54-16.4-5.65-27.08-6.89-10.64-1.24-24.36-.54-36.74-.57-19.89-.05-39.8-.12-59.68.07-8.82.08-14.85-.78-20.84-2.44-40.91-11.39-82.26-22.65-123.04-34.07-8.59-2.41-17.26-3.99-29.98-3.43-13.41.59-23.2-.95-32.62-3.64-27.59-7.88-56.07-15.54-84.46-23.21-6.16-1.67-8.88-3.43-8.44-5.82.57-3.1-1.58-6.12,10.13-8.43,6.97-1.37,5.02-4.56-1.25-6.24-6.14-1.64-16.66-1.77-23.23-.28-7.33,1.66-10.06,5.04-2.78,6.52,12.01,2.44,10.99,5.58,10.14,8.8-.72,2.73,2.99,4.58,9.96,6.46,30.94,8.32,61.51,16.75,91.78,25.26,6.16,1.73,12.59,2.69,21.01,2.33,17.51-.75,29.6,1.34,41.53,4.74,38,10.83,76.96,21.41,115.86,31.99,6.92,1.88,9.64,3.79,9.37,6.51-.75,7.52.05,15.06-.3,22.59-.11,2.37,2.5,4.15,8.63,5.82,54.01,14.75,107.8,29.56,161.67,44.36,6.28,1.73,12.46,3.17,10.35,6.25-1.65,2.4,8.85,4.63,17.58,4.53,9.28-.11,16.93-2.28,17.02-4.81.09-2.72-8.07-5.28-17.92-4.81-10.62.5-16.58-.8-23.16-2.62-51.91-14.36-103.88-28.71-156.19-42.95-7.66-2.09-11.36-4.18-11.05-7.19.7-6.84.18-13.69.23-20.54,0-1.07.38-2.15.72-3.91,14.95,0,28.29,0,41.62,0,16.41,0,32.84.12,49.23-.06,8.76-.09,14.94.75,20.95,2.42,29.68,8.28,59.6,16.5,89.66,24.68,5.69,1.55,8.58,3.15,8.25,5.42-.65,4.51-.14,9.03-.43,13.55-.14,2.19,2.34,3.89,8.11,5.47,77.51,21.25,154.84,42.56,232.21,63.85,6.89,1.9,14.45,3.44,12.01,6.88-1.77,2.49,8.3,4.64,17.36,4.54,9.07-.1,16.92-2.34,16.99-4.85.08-2.57-7.5-5.05-17.01-4.57Z"/>
        <path class="cls-1" d="M740.35,2586.45c-9.89,2.18-11.67,5.85-6.69,8.99,4.64,2.92,14.22,4.64,25.97,4.57,12.18-.07,20.71-1.75,25.75-4.73,4.98-2.95,3.23-6.43-6.62-8.58-8.31-1.81-9.7-3.88-9.34-6.45.38-2.73.56-5.48-.13-8.21-.65-2.56,2.85-4.39,9.32-6.14,30.47-8.26,60.45-16.65,90.99-24.89,6.2-1.67,8.86-3.37,8.76-5.75-.38-9.17-.09-18.34-.1-27.52-.01-11.89-.11-23.78-.11-35.67,0-13.38.08-26.76.09-40.13,0-1.03,0-9.98,0-13.72,0-48.57-.09-97.14-.09-145.71,0-43.17.09-86.34.11-129.51,0-33.3-.28-66.61.1-99.9.1-8.65-2.56-14.8-8.76-20.87-30.54-29.91-60.52-60.39-90.99-90.37-6.47-6.37-9.97-12.99-9.32-22.29.69-9.89.51-19.88.13-29.81-.35-9.34,1.03-16.84,9.34-23.42,9.86-7.81,11.61-20.44,6.62-31.17-5.04-10.85-13.58-16.94-25.75-17.19-11.76-.24-21.34,5.99-25.97,16.6-4.98,11.39-3.2,24.72,6.69,32.63,7.23,5.78,9.22,12.01,8.97,20.51-.39,13.41.47,26.86-.17,40.25-.44,9.19,2.38,15.78,9.03,22.3,30.15,29.59,59.55,59.95,89.75,89.49,7.47,7.3,10.01,14.84,9.86,25-.52,35.16-.39,70.33-.12,105.49.14,18.33,1.62,36.66,1.57,54.99-.06,22.8-1.26,45.59-1.62,68.38-.29,18.23-.06,36.47-.07,54.71-.01,25.34-.01,50.69,0,76.03,0,3.98,0,17.52,0,18.61,0,6.98,0,13.96,0,20.94.01,5.02-.22,10.05.07,15.07.36,6.28,1.56,12.56,1.62,18.84.05,5.05-1.43,10.1-1.57,15.15-.27,9.69-.4,19.37.12,29.06.15,2.8-2.4,4.88-9.86,6.89-30.2,8.14-59.6,16.5-89.75,24.65-6.64,1.8-9.46,3.61-9.03,6.14.64,3.69-.22,7.39.17,11.09.25,2.34-1.74,4.06-8.97,5.65Z"/>
        <path class="cls-1" d="M1410.31,3026.39c-3.85-2.76-14.01-4.95-24.44-4.27-11.5.75-17.41-.72-24.23-2.69-15.09-4.36-31.04-8.49-46.08-12.86-7.36-2.14-15.07-3.08-26.13-2.99-27.82.22-55.68,0-83.53.05-6.33.01-11.33-.35-15.98-1.66-17.35-4.9-34.88-9.75-52.77-14.5-6.94-1.84-10.03-3.78-9.78-6.5.69-7.52-.15-15.06.53-22.58.23-2.59-3.03-4.37-9.46-6.11-30.47-8.25-60.56-16.6-90.96-24.87-5.46-1.49-9.6-2.83-9.28-5.25.37-2.83-7.37-4.63-16.91-4.68-8.68-.05-16.56,1.78-17.74,4.12-1.23,2.44,4.7,5.03,14.58,5.31,9.46.27,15.18,1.65,21.22,3.33,27.99,7.78,55.97,15.56,84.46,23.2,7.75,2.08,11.12,4.24,10.89,7.22-.58,7.53.17,15.06-.38,22.58-.17,2.28,2.43,3.87,8.13,5.41,31.15,8.45,61.92,17.01,93.17,25.44,5.48,1.48,7.64,2.98,7.62,5.05-.22,17.66-.19,35.32-.1,52.98,0,1.83-1.09,3.3-6.18,4.78-7.57,2.19-6.33,5.14,1.1,6.94,6.61,1.6,16.54,1.56,23.14-.08,7.56-1.88,8.62-4.57.61-6.88-5.69-1.64-5.71-3.35-5.71-5.26.02-17.25-.37-34.5.33-51.74.15-3.73-2.42-6.7-13.59-8.9-3.61-.71-7.32-1.38-10.99-2.07.87-.38,1.75-.76,2.62-1.14,1.26-.16,2.52-.47,3.79-.47,24.36-.03,48.73-.11,73.07.03,4.45.03,9.83.7,13.08,1.56,18.62,4.93,36.57,10.06,55.11,15.01,5.27,1.41,3.8,2.93,3.47,4.56-.59,2.89,4.18,5.11,13.42,6.34,8.58,1.15,17.43.94,25.32-.71,8.88-1.85,12.35-4.98,8.59-7.67Z"/>
        <path class="cls-1" d="M1469.48,2777.66c7.44.05,11.96.92,16.55,2.24,7.23,2.07,14.99,4.01,22.01,6.13,5.48,1.66,11.74,2.23,19.8,2.22,63.14-.07,126.29.04,189.42-.13,11.61-.03,19.53.95,27.28,3.2,17.08,4.97,35.22,9.65,52.48,14.57,5.67,1.61,11.63,2.31,19.71,2.24,15.9-.12,31.82.01,47.72-.07,9.09-.05,17.18.06,24.48,2.07,6.06,1.66,13.59,1.34,20.4-.11,6.35-1.35,8.62-3.55,5.7-5.5-2.7-1.81-10.82-3.29-17.95-2.98-3.7.16-7.94.62-10.44,1.34-4.63,1.33-9.74,1.64-16.05,1.61-15.9-.09-31.83-.14-47.72.01-8.71.08-15.03-.77-20.97-2.44-18.05-5.09-36.63-10.04-54.63-15.15-5.96-1.69-12.08-2.5-20.93-2.38-16.37.22-32.81,0-49.21.09-6.96.04-12.18-.6-17.33-1.88-25.84-6.44-25.95-6.41-26.04-16.09,0-.41-.25-.83.03-1.23,5.13-7.24-5.2-12.62-25.84-16.93-7.33-1.53-13.55-3.32-13.96-6.36-.33-2.41-9.95-3.89-18.69-3.61-8.26.27-14.57,2.08-15.23,4.37-.67,2.35,5.42,5.03,13.92,5.07,23.23.11,31.07,5.66,44.56,9.17,2.54.66,2.22,2.31,2.29,3.51.26,4.1.91,8.23-.13,12.31-.82,3.2,2.88,5.54,11.63,7.5,3.71.83,6.7,1.91,10.02,2.87-.52.31-1.04.62-1.56.93-3.76.11-7.52.31-11.28.31-31.82.03-63.64-.04-95.46.07-8.64.03-15.38-.62-21.12-2.38-5.31-1.63-10.83-3.21-16.67-4.69-5.32-1.35-8.76-2.69-8.96-4.89-.25-2.69-8.98-4.63-17.71-4.57-8.41.06-16.25,2.11-16.88,4.41-.76,2.81,5.62,5.06,16.74,5.13Z"/>
        <path class="cls-1" d="M867.65,2992.79c-18.82-5.08-37.37-10.23-56.08-15.33-6.05-1.65-11.33-3.19-11.13-5.93.18-2.53-8.31-4.28-16.9-4.26-9.03.02-17.12,2.21-17.43,4.72-.29,2.34,5.76,4.56,15.14,4.73,8.34.15,13.64,1.2,19.05,2.73,17.38,4.89,34.95,9.73,52.79,14.49,5.76,1.54,8.5,3.14,8.36,5.41-.46,7.25-.38,14.51-.05,21.76.11,2.34-2.23,4.17-8.47,5.83-18.21,4.85-36.03,9.82-53.85,14.78-4.73,1.32-9.69,2.09-16.78,2.25-10.35.23-16.51,2.35-16.09,4.9.39,2.32,7.89,4.46,16.18,4.62,9.25.18,17.78-1.54,18.08-4.35.46-4.27,12.57-5.67,22.65-8.81,1.04,1.72,1.85,2.46,1.87,3.21.12,5.89-.18,11.77.24,17.66.16,2.24-2.41,3.98-8.21,5.47-4.73,1.21-9.57,2.4-13.91,3.72-6.13,1.85-11.66,3.4-22.62,2.95-9.07-.37-16.97,2.24-17.17,4.69-.17,2.16,5.97,4.27,13.81,4.74,9.07.55,19.13-.85,20.38-3.51,1.25-2.66,7.43-4.03,13.16-5.68,8.92-2.57,20.96-4.77,25.77-7.82,4.56-2.9,1.68-6.71,1.79-10.11.17-5.48.38-10.95-.03-16.43-.16-2.08,1.91-3.69,7.4-5.11,7.26-1.87,13.94-3.91,21.28-5.75,5.55-1.39,7.94-2.93,7.86-5.04-.36-8.76-.36-17.52.01-26.28.08-1.86-2.62-3.04-7.11-4.25Z"/>
        <path class="cls-1" d="M463.39,2872.25c-.72-2.43-8.07-4.42-16.53-4.47-9.83-.06-17.36,1.71-18.26,4.85-.57,1.97-3.62,3.26-8.43,4.56-19.13,5.18-37.78,10.5-57.05,15.64-5.87,1.56-8.24,3.2-8.14,5.42.34,7.66-.22,15.33.25,22.99.16,2.66-2.67,4.59-9.72,6.48-28.83,7.73-57.07,15.64-85.46,23.49-6,1.66-11.57,3.12-21.42,3.15-9.05.03-14.97,2.48-14.41,4.87.58,2.46,7.59,4.4,16.32,4.52,8.83.12,18.28-1.52,17.98-3.91-.41-3.26,6.6-4.96,13.59-6.88,12.33-3.38,24.6-6.77,37.02-10.12,1.93-.52,4.5-.86,8.06-1.52.74,1.17,1.62,1.92,1.63,2.68.17,9.72,0,19.43.49,29.15.1,1.9-3.28,2.96-7.17,4.25-6.04,2-5.42,4.64.37,6.38,5.99,1.8,15.51,2.06,23.03.63,8.09-1.54,10.53-4.74,3.07-6.81-6.61-1.84-6.8-3.75-6.77-5.96.13-10.4.33-20.8-.18-31.2-.13-2.68,1.67-4.89,9.7-6.47,22.25-4.38,30.22-10.17,26.95-17.67-2.24-5.13-.1-10.39-.63-15.58-.27-2.64,2.27-4.67,9.42-6.55,17.95-4.73,35.23-9.65,52.7-14.51,4.63-1.29,9.2-2.2,16.56-2.32,11.41-.19,17.82-2.39,17.02-5.08Z"/>
        <path class="cls-1" d="M591.28,2724.42c17.23-4.74,34.8-9.39,51.38-14.29,6.88-2.03,14.34-2.61,23.74-2.61,51.69.05,103.39-.03,155.08.08,8.18.02,14.13-.57,19.79-2.15,18.8-5.27,38.13-10.4,56.85-15.69,4.9-1.39,9.14-2.03,16.69-1.79,11.69.37,20.53-2.34,19.19-5.29-1.13-2.49-8.24-4.26-17.16-4.27-9.78,0-18.75,1.9-17.08,4.54,2.12,3.36-4.45,5.06-11.51,6.99-16.6,4.52-33.23,9.04-49.65,13.61-5.55,1.55-11.39,2.24-19.7,2.22-63.12-.1-126.24-.04-189.36-.02-15.78,0-31.59-.12-47.33.12-4.27.07-9.02,1.06-12.35,1.97-29,7.88-57.73,15.84-86.54,23.77-14.75,4.06-29.59,8.11-44.2,12.21-4.41,1.24-9.07,1.97-15.66,1.93-15.9-.09-31.81-.06-47.71-.02-5.89.02-10.56-.34-13.71-1.89-1.62-.8-4.28-1.52-7.05-2.04-9.33-1.74-21.29-1.22-28.09,1.12-6.67,2.3-5.95,5.89,1.58,7.87,8.32,2.19,21.39,2.22,29.59-.04,3.11-.86,5.4-1.94,8.92-3.24,16.66,0,34.04-.17,51.34.06,11.86.16,20.32-.87,28.7-3.23,39.6-11.15,80.21-22.03,119.72-33.21,11.13-3.15,23.15-4.47,38.55-3.99,10.65.33,21.35.54,35.78.9-19.99,5.55-37.03,10.51-55.02,15.18-7.92,2.06-11.61,4.13-10.66,7.16.91,2.91,1.77,5.8-9.52,8.04-8.24,1.63-6.28,5.13,1.27,6.88,6.72,1.56,18.36,1.33,24.44-.47,6.13-1.82,6.82-5.11-1.18-6.59-12.79-2.36-6.59-5.63-8.33-8.54-1.43-2.39,3.84-3.81,9.2-5.28Z"/>
        <path class="cls-1" d="M1467.59,2702.12c3.15-.65,6.62-1.37,8.46-2.29,4.3-2.14,9.72-2.55,18.42-2.12,9.71.47,16.73-1.77,16.43-4.54-.23-2.12-10.54-4.63-18.22-4.44-8.74.21-15.12,2.26-13.26,4.91,1.7,2.43-1.65,3.67-8.09,5.15-8.67,1.99-17.41,4.26-22.91,6.91-4.34,2.09-4.98,4.94-5.25,7.47-.7,6.56-.55,13.13-.18,19.7.14,2.36-2.01,4.19-8.63,5.78-8.11,1.95-15.44,4.16-24.37,6.59-19.88-5.49-37.73-10.41-55.59-15.34-37.55-10.36-74.86-20.78-112.87-31.01-7.81-2.1-9.23-4.33-8.81-7.01.38-2.41-1.2-4.72,8.12-6.55,8.79-1.72,8.29-4.87,1.21-6.82-7.19-1.98-18.47-1.97-25.33.03-6.73,1.96-6.82,5.11,1.7,6.87,7.22,1.49,8.91,3.23,7.8,5.33-2.45,4.63,4.31,7.83,16.37,11.07,52.23,14.05,103.28,28.44,155.07,42.61,6.52,1.78,9.82,3.56,9.4,6.11-.61,3.69-.4,7.39-.13,11.08.16,2.18-1.4,3.74-8.97,5.11-10.7,1.95-11.85,5.28-5.03,7.91,7.32,2.82,20.56,3.39,30.05,1.29,10.24-2.26,12.39-6.52,1.85-8.53-11.59-2.22-12.06-4.94-11.68-8.15.38-3.14.29-6.29-.02-9.44-.19-1.92,1.97-3.42,7.12-4.73,6.93-1.76,13.01-3.78,20.17-5.46,7.53-1.76,9.96-3.8,9.72-6.49-.59-6.56,2.41-13.23-.94-19.67-2.81-5.4,4.63-8.48,18.39-11.34Z"/>
        <path class="cls-1" d="M1639.26,2974.21c-9.52.43-14.77-.67-20.59-2.29-28.69-7.97-57.59-15.87-86.37-23.81-14.37-3.96-14.78-10.58-.68-14.52,17.44-4.87,34.93-9.73,52.82-14.47,6.88-1.82,9.46-3.76,10.48-6.42,2.02-5.31-5.87-8.79-18.79-12.52-13.61-3.93-27.34-5.81-46.79-5.18-11.27.37-22.84-.02-34.26.08-7.47.07-13.08-.56-18.46-2.06-30.35-8.48-60.94-16.89-91.73-25.24-5.84-1.58-8.02-3.28-7.78-5.48.42-3.83.12-7.66.12-11.49h.02c0-3.01.36-6.02-.1-9.03-.44-2.93-.45-5.5,9.98-7.54,7.18-1.41,5.44-4.94-1.13-6.6-6.35-1.6-16.76-1.65-23.29-.12-7.19,1.69-9.58,5.08-2.14,6.53,11.78,2.3,10.35,5.3,10.34,8.41-.02,6.84.19,13.68-.26,20.52-.16,2.35,2.12,4.15,8.32,5.83,31.48,8.55,62.72,17.17,93.79,25.83,5.65,1.58,11.51,2.33,19.68,2.25,16.88-.15,33.8.03,50.69-.07,7.57-.05,13.39.6,18.43,2.13,5.35,1.62,10.87,3.21,16.83,4.65,7.28,1.76,9.38,3.85,9.97,6.5.86,3.92-3.87,6.68-14.32,9.31-17.6,4.42-33.7,9.29-50.86,13.85-5.89,1.56-7.17,3.26-8.04,5.42-2.17,5.4,5.06,9.21,19.37,12.85,27.72,7.05,53.75,14.6,80.57,21.92,5.42,1.48,9.26,2.86,8.49,5.3-.96,3.04,7.28,4.93,17.66,4.78,9.82-.13,16.74-2.13,16.63-4.79-.12-2.78-7.83-5.02-18.58-4.54Z"/>
        <path class="cls-1" d="M1739.17,2925.12c.1-1.5.02-3.01.02-4.51h.07c0-3.69-.54-7.4.17-11.08.55-2.83-2.91-4.87-10.2-6.86-43.82-11.93-87.22-23.97-130.8-35.96-10.19-2.8-20.34-5.62-30.82-8.34-5.39-1.4-8.4-2.73-7.13-4.99,1.71-3.03-6.6-5.49-16.68-5.54-8.81-.05-17.47,2.19-17.85,4.61-.42,2.66,7.26,5.16,17.69,4.9,8.89-.22,13.89.86,19.26,2.34,46.03,12.67,92.12,25.33,138.19,37.99,8.09,2.22,15.98,4.5,24.3,6.66,5.11,1.32,7.16,2.81,7.1,4.73-.25,7.8-.31,15.6-.07,23.39.06,2.07-2.41,3.62-7.63,5.1-25.65,7.26-25.66,6.81-62.83,7.46-24.88.43-43-1.55-57.79-6.85-4.66-1.67-9.06-2.86-6.58-5.36,2.82-2.83-4.43-5.13-14.66-5.54-9.18-.37-18.01,1.45-19.34,3.98-1.41,2.68,5.16,5.31,15.83,5.36,9.18.04,14.76,1.21,20.36,2.81,3.79,1.08,8.41,2,11.5,3.21,9.04,3.55,21.34,4.42,36.3,4.11,13.35-.27,26.84-.18,40.23-.03,9.12.1,16.31-.55,22.41-2.49,9.09-2.88,21.94-5.24,27.18-8.55,4.77-3.01,1.55-6.98,1.78-10.52Z"/>
        <path class="cls-1" d="M275.26,2838.43c-5.61,1.42-4.46,3.53-.52,5.32,3.78,1.72,11.16,2.59,17.92,2.14,7.53-.5,12.82-1.87,13.32-3.92.33-1.35-1.3-3.11-4.5-4.07-4.95-1.49-5.89-2.98-5.84-4.83.21-7.66.26-15.32-.14-22.97-.11-2.09,2.28-3.61,7.61-5.06,42.61-11.67,85.06-23.38,127.39-35.12,4.78-1.33,9.44-2.11,16.65-2.2,10.51-.14,16.72-2.19,16.56-4.76-.15-2.45-6.89-4.47-15.59-4.67-10.08-.23-18.78,1.54-19.11,4.49-.25,2.18-3.67,3.47-8.83,4.88-43.34,11.85-86.38,23.78-129.7,35.63-5.72,1.57-8.3,3.2-7.98,5.44.58,4.1.17,8.2.17,12.31h.04c0,3.56-.15,7.11.05,10.67.14,2.48.29,4.76-7.49,6.73Z"/>
        <path class="cls-1" d="M1539.01,2960.94c-5.37.08-12.01.74-15.46,1.8-4.96,1.51-9.94,1.94-16.83,1.93-39.75-.06-79.51-.09-119.26,0-8.63.02-14.96-.69-20.96-2.41-16.52-4.73-33.33-9.4-50.62-13.91-7.79-2.04-11.37-4.18-11.07-7.19.72-7.24-.04-14.5.47-21.75.18-2.63-2.09-4.63-9.23-6.54-23.89-6.38-47.02-12.97-70.63-19.43-7.38-2.02-15.33-3.88-23.05-5.8-5.09-1.27-7.63-2.77-7.31-4.71.78-4.77,1.36-9.55,1.74-14.33.12-1.47,1.43-2.59,6.1-3.49,5.57-1.07,8.73-2.61,7.91-4.58-.71-1.69-7.59-3.91-12.79-4.2-5.59-.31-17.34,1.31-20.38,2.81-3.38,1.67-2.97,3.96,3.32,5.19,8.04,1.58,9.63,3.48,9.44,5.96-.34,4.23.51,8.47.4,12.71-.06,2.19,2.46,3.88,8.19,5.46,30.15,8.32,59.81,16.78,90.02,25.08,6.8,1.87,10.13,3.74,9.87,6.47-.72,7.52.05,15.05-.42,22.57-.16,2.53,2.7,4.41,9.24,6.16,18.88,5.05,37.47,10.19,55.81,15.39,6.4,1.81,13.44,2.52,22.56,2.46,19.86-.13,39.75-.04,59.63-.04v-.02c19.38,0,38.76.06,58.14-.03,8.32-.04,15.14.2,20.67,2.32,4.55,1.75,13.78,1.95,20.34,1.06,6.7-.91,10.89-3.16,9.55-5.12-1.36-2-7.88-3.94-15.37-3.83Z"/>
        <path class="cls-1" d="M511.25,2746.31c6.91,0,11.37.13,15.7-.03,9.91-.36,15.76-2.53,14.66-5.24-.98-2.42-8.25-4.23-17.2-4.27-9.27-.05-17.01,1.96-17.85,4.55-1.21,3.72-3.13,7.42-3.79,11.14-.65,3.69-.49,7.4.04,11.09.31,2.18-3.63,3.56-8.71,4.96-32.75,8.99-65.4,18.01-98.08,27.02-9.49,2.62-18.66,5.33-28.57,7.81-6.79,1.71-9.41,3.56-9.33,6.12.41,13.55-.39,27.11.53,40.66.28,4.09-3.79,7.16-15.11,9.63-1.94.42-3.92.88-5.35,1.43-8.71,3.35-20.43,4.37-35.08,4.03-7.85-.18-13.69-.55-19.37-2.29-9.32-2.86-24.47-1.94-29.08,1.45-2.67,1.97-.23,4.23,5.95,5.51,6.67,1.38,16.97,1.58,21.63-.29,7.07-2.84,16.47-2.76,26.32-2.53,12.93.31,21.76-1.24,31.55-3.51,19.58-4.52,26.45-9.72,25.21-16.77-2.12-12.02-.25-24.09-.76-36.14-.12-2.87,3.33-4.88,10.54-6.84,40.71-11.06,80.79-22.29,121.75-33.28,9.39-2.52,13.58-5.12,12.88-8.66-.78-3.96-.49-7.94-.35-11.91.04-1.17,1.17-2.34,1.87-3.65Z"/>
        <path class="cls-1" d="M1072.9,3045.11c-3.65-.75-9.4-1.43-13.41-1.18-8.26.51-13.02-.43-18.17-1.88-17.71-4.99-35.46-9.97-53.71-14.81-5.96-1.58-8.1-3.25-8.04-5.44.25-8.89.1-17.79.1-26.68h-.1c0-8.62-.45-17.24.24-25.86.24-3.03-3.51-5.11-11.16-7.16-29.51-7.93-58.34-16.06-87.76-24.01-6.48-1.75-9.91-3.53-9.58-6.1.61-4.78.31-9.58.02-14.36-.11-1.87.6-3.39,7.14-4.57,6.23-1.13,8.43-2.97,6.26-5.07-2.14-2.08-7.3-3.24-14.8-3.54-8.37-.34-12.67,1.26-16.18,2.96-3.68,1.78-5.67,3.99,1.46,5.17,10.92,1.8,9.86,4.41,9.77,7.14-.14,4.38.15,8.76-.19,13.13-.18,2.33,2.23,4.09,8.58,5.79,30.23,8.12,59.7,16.46,89.89,24.59,7.41,1.99,10.18,4.13,10.14,6.91-.25,17.1.19,34.21-.39,51.31-.11,3.32,3.56,5.64,12.23,7.86,16.71,4.29,32.33,8.89,48.68,13.29,6.52,1.75,12.18,3.29,10.18,6.27-1.41,2.1,6.61,4.12,14.48,4.52,7.26.36,15.1-.77,18.48-2.67,3.32-1.86,2.15-4.3-4.14-5.59Z"/>
        <path class="cls-1" d="M732.4,2963.62c6.62.44,14.33-.42,18.16-2.04,4.01-1.69,3.96-4.33-1.76-5.68-3.72-.88-9.76-1.62-14.38-1.48-8,.24-13.13-.52-18.34-1.98-18.11-5.08-36.39-10.11-54.85-15.1-4.98-1.34-7.24-2.79-7.09-4.72.35-4.52.35-9.04-.07-13.55-.18-1.93,1.76-3.4,6.93-4.73,7.64-1.96,14.54-4.13,22.19-6.08,5.12-1.31,7.27-2.73,7.23-4.68-.27-14.92-.38-29.85-.03-44.77.06-2.46-3.56-4.1-9.47-5.71-30.7-8.39-61.17-16.84-91.8-25.25-2.09-.57-4.83-.97-6.95-1.39,1.27-1.91,2.55-2.97,2.57-4.04.07-2.6-7.81-4.79-16.82-4.85-9.16-.06-17.39,2-18.11,4.53-.75,2.62,5.89,5.27,15.3,5.02,11.42-.29,17.43,1.44,24.08,3.28,28.76,7.96,57.43,15.94,86.37,23.85,5.68,1.55,8.48,3.2,8.44,5.43-.24,14.24-.29,28.48,0,42.72.05,2.26-2.7,3.86-8.42,5.41-9.54,2.57-21.74,4.96-26.58,8.14-4.62,3.04.12,7.05-1.71,10.54-3.72,7.07,5.36,12.29,25.07,16.71,13.04,2.93,23.98,6.55,36.16,9.78,6.62,1.75,11.72,3.43,10.62,6.31-.83,2.17,5.72,3.85,13.26,4.35Z"/>
        <path class="cls-1" d="M1269.23,2849.82c.33-2.83-2.36-5.01-10.22-6.86-6.03-1.42-11.33-3.07-16.82-4.65-6.31-1.82-12.61-3.37-23.06-3.1-3.43.09-7.34-1.02-10.92-1.63-4.11-.7-7.77-1.77-12.2-2.11-7.58-.59-16.13.92-19.14,2.98-3.1,2.11-.32,4.5,6.72,5.76,7.18,1.29,15.31,1.07,21.82-.53,3.57-.88,6.89-2.11,11.1-2.45,6.28-.5,12.74,0,17.68,1.46,5.45,1.6,10.67,3.29,16.84,4.65,10.46,2.31,12.63,5.37,12.66,8.77.07,7.1.46,14.19.35,21.29-.05,3.14-.71,6.28-1.6,9.41-.72,2.52,1.97,4.48,9.11,6.14,6.43,1.5,12.75,3.11,17.93,4.92,6.91,2.43,15.47,3.36,26.09,2.96,14.56-.56,25.47.8,35.41,3.84,14.95,4.57,31.21,8.83,47.32,13.11,6.2,1.64,9.38,3.39,8.74,5.79-.58,2.18-.12,4.38-.11,6.57.01,1.92-.23,3.84.07,5.75.34,2.14-1,3.81-8,5.33-8.71,1.88-8.32,4.87-1.16,6.85,6.88,1.9,17.18,2,24.18.24,7.75-1.95,8.22-5.16-.78-7.18-6.81-1.53-8.13-3.21-8.01-5.36.24-4.24-.43-8.49.21-12.73.38-2.53-2.25-4.39-8.95-6.16-19.36-5.12-38.32-10.36-57.01-15.67-5.29-1.5-10.87-2.29-18.33-2.19-4.47.06-8.95.01-13.42.06-8.43.08-14.98-.72-21.12-2.43-26.5-7.38-26.87-7.34-26.75-18.61.09-8.07.46-16.14,1.39-24.21Z"/>
        <path class="cls-1" d="M922.26,2832.37c39.32-10.43,77.51-21.19,115.75-31.92,8.24-2.31,16.65-3.86,28.1-3.09,10.5-.38,18.6-.04,25.41,2.48,5.4,2,17.61,1.58,24.04-.22,6.3-1.77,6.17-4.94-.29-6.67-6.62-1.77-18.68-2.13-23.96-.08-6.81,2.64-15.35,2.79-24.83,2.46-13.6-.47-23.22,1.02-32.61,3.66-40.31,11.33-81.1,22.52-122.12,33.65-8.06,2.19-12.55,4.46-10.99,7.58.4.81-.01,1.64.1,2.46.28,2-1.29,3.53-7.89,4.92-9.65,2.03-9.13,4.26-.68,6.59,8.16,2.25,15.4,2.34,23.15.28,7.71-2.05,7.98-5.26-1.05-7.09-6.39-1.29-6.45-2.78-7.14-4.58-1.64-4.26,3.44-7.37,15.01-10.44Z"/>
        <path class="cls-1" d="M458.8,2857.47c-9.13,1.94-8.45,5.15-.5,7.16,6.64,1.68,18.05,1.58,24.31-.21,7.11-2.04,6.62-5.33-2.57-7.16-5.78-1.15-7.1-2.35-7.07-4.12.19-11.23.24-22.45-.04-33.68-.05-1.95,1.95-3.42,7.1-4.71,5.51-1.38,10.36-2.97,16.02-4.29,10.13-2.38,16.88-5.05,13.08-8.96-.92-2.81.35-5.18,9.95-7.16,7.47-1.54,5.87-4.77-.97-6.57-6.58-1.73-17.96-1.67-24.29.12-6.96,1.97-8.23,4.95-.27,6.52,11.88,2.35,8.21,5.5,9.24,8.51.91,2.66-3.7,4.55-10.82,5.93-21.65,4.2-27.78,9.82-25.99,16.98,2.17,8.72.45,17.51.55,26.28.02,2.1-.5,3.83-7.73,5.36Z"/>
        <path class="cls-1" d="M1971.46,2880.15c-6.2.42-12.95,1.59-16.74,2.99-4.89,1.8-9.26,2.17-17.29,2.05-20.79-.31-41.67-.1-62.52-.1,0-.03,0-.06,0-.09-17.88,0-35.76-.07-53.62.03-7.99.05-14.18-.54-19.84-2.16-14.09-4.04-28.41-8.03-43.27-11.85-6.11-1.57-5.72-3.25-5.28-5.2.49-2.18-4.33-3.55-11.49-4.28-7.44-.76-13.88-.12-18.86,1.41-5.1,1.57-5.83,3.45-2.27,5.34,3.27,1.74,8.95,2.83,15.77,2.45,9.37-.53,14.82.71,20.62,2.34,13.85,3.92,28.31,7.67,42.03,11.62,5.64,1.62,11.63,2.21,19.73,2.19,37.24-.09,74.48-.03,111.72-.02,2.48,0,5.14.12,7.39-.09,8.17-.75,13.26.13,17.05,2.08,1.12.58,3.17,1.05,5.08,1.47,8.4,1.86,15.05,1.97,23,.44,7.62-1.47,11.12-4.11,8.63-6.5-2.41-2.32-11.97-4.65-19.83-4.12Z"/>
        <path class="cls-1" d="M1820.23,2754.56c8.38.16,15.7-1.22,18.21-3.44,3.71-3.28-5.6-6.81-18.06-6.12-10.19.57-15.5-.49-21.67-2.25-16.96-4.81-34.21-9.55-51.67-14.23-5.77-1.55-8.44-3.17-8.13-5.43.64-4.51.09-9.04.43-13.55.17-2.2-2.43-3.88-8.26-5.45-17.44-4.68-34.23-9.54-51.65-14.22-3.47-.93-8.3-1.49-12.65-2.17,3.21,1.39,5.92,2.91,9.98,4.07,15.17,4.34,30.65,8.6,46.47,12.76,6.63,1.74,9.65,3.62,9.29,6.15-.6,4.24.15,8.49-.5,12.73-.38,2.53,2.34,4.36,9.1,6.14,18.71,4.91,36.56,10.07,55.07,15.04,5.62,1.51,8.84,2.92,8.13,5.29-.71,2.37,8.09,4.52,15.89,4.67Z"/>
        <path class="cls-1" d="M1666.18,2687.44c-.11,0-.23,0-.34.01-.01.03-.03.06-.04.09,0,0,.05-.01.11-.03l-.11.03c.32.05.66.1.99.16-.2-.09-.4-.18-.61-.26h0Z"/>
        <path class="cls-1" d="M265.88,2691.91c-6.65,1.87-12.36,3.38-24.14,2.36-11.37-.98-22.56,2.06-23.13,5.33-.6,3.41,7.23,5.71,19.69,5.78,13.79.08,23.76-2.03,22.17-5.49-1.64-3.57,4.71-5.39,12.95-7.57,11.82-3.14,22.13-6.7,32.98-10.11-6.9,1.38-14.03,2.69-20.46,4.22-7.11,1.69-13.47,3.63-20.07,5.48Z"/>
        <path class="cls-1" d="M1656.77,2679.45c-5.42-.52-15.26.22-19.03,1.45-4.13,1.34-4.8,3.79.09,5.27,2.91.88,7.93,1.52,12.28,1.68,5.09.19,10.47-.23,15.74-.4.49-1.18,1.21-2.35,1.38-3.53.29-1.99-4.28-3.87-10.46-4.46Z"/>
        <path class="cls-1" d="M328.21,2676.05c-7.8,1.55-16.06,2.98-19.75,5.61,8.66-1.32,16.24-2.93,19.75-5.61Z"/>
        <path class="cls-1" d="M307.85,2681.76c-.49.15-.96.3-1.45.46.6-.12,1.2-.24,1.79-.36,0,0-.19-.05-.29-.08.1.03.29.08.29.08.08-.07.18-.13.27-.19-.21.03-.41.06-.62.09h0Z"/>
      </g>
    </g>
  </g>
</svg>