<?xml version="1.0" encoding="UTF-8"?>
<svg id="Layer_2" data-name="Layer 2" xmlns="http://www.w3.org/2000/svg" viewBox="0 0 626.44 983.96">
  <defs>
    <style>
      .cls-1 {
        fill: #9e6830;
      }

      .cls-1, .cls-2, .cls-3, .cls-4, .cls-5, .cls-6, .cls-7, .cls-8, .cls-9, .cls-10, .cls-11, .cls-12, .cls-13, .cls-14, .cls-15, .cls-16, .cls-17, .cls-18, .cls-19, .cls-20, .cls-21, .cls-22, .cls-23, .cls-24, .cls-25, .cls-26, .cls-27, .cls-28, .cls-29, .cls-30, .cls-31, .cls-32, .cls-33, .cls-34, .cls-35, .cls-36, .cls-37, .cls-38, .cls-39, .cls-40, .cls-41, .cls-42, .cls-43, .cls-44, .cls-45, .cls-46, .cls-47, .cls-48, .cls-49, .cls-50, .cls-51, .cls-52, .cls-53, .cls-54, .cls-55, .cls-56, .cls-57, .cls-58 {
        stroke-width: 0px;
      }

      .cls-2 {
        fill: #422d11;
      }

      .cls-3 {
        fill: #1e2221;
      }

      .cls-4 {
        fill: #21190c;
      }

      .cls-5 {
        fill: #70512d;
      }

      .cls-6 {
        fill: #1d2122;
      }

      .cls-7 {
        fill: #6d421a;
      }

      .cls-8 {
        fill: #e3d3c1;
      }

      .cls-9 {
        fill: #e5f9f8;
      }

      .cls-10 {
        fill: #202122;
      }

      .cls-11 {
        fill: #35708d;
      }

      .cls-12 {
        fill: #9e6733;
      }

      .cls-13 {
        fill: #397d83;
      }

      .cls-14 {
        fill: #c4d7d5;
      }

      .cls-15 {
        fill: #212224;
      }

      .cls-16 {
        fill: #dccbb7;
      }

      .cls-17 {
        fill: #090a05;
      }

      .cls-18 {
        fill: #97673c;
      }

      .cls-19 {
        fill: #c6dde2;
      }

      .cls-20 {
        fill: #150d09;
      }

      .cls-21 {
        fill: #764821;
      }

      .cls-22 {
        fill: #978a9a;
      }

      .cls-23 {
        fill: #c8edf1;
      }

      .cls-24 {
        fill: #bfc2c4;
      }

      .cls-25 {
        fill: #c96b66;
      }

      .cls-26 {
        fill: #9e6932;
      }

      .cls-27 {
        fill: #4a2606;
      }

      .cls-28 {
        fill: #352511;
      }

      .cls-29 {
        fill: #1d160e;
      }

      .cls-30 {
        fill: #a3b3b4;
      }

      .cls-31 {
        fill: #76461e;
      }

      .cls-32 {
        fill: #356e8b;
      }

      .cls-33 {
        fill: #bec1c2;
      }

      .cls-34 {
        fill: #83e0dd;
      }

      .cls-35 {
        fill: #97653a;
      }

      .cls-36 {
        fill: #1f2223;
      }

      .cls-37 {
        fill: #72431e;
      }

      .cls-38 {
        fill: #512b0a;
      }

      .cls-39 {
        fill: #56b3aa;
      }

      .cls-40 {
        fill: #140a07;
      }

      .cls-41 {
        fill: #9a6830;
      }

      .cls-42 {
        fill: #cfafa3;
      }

      .cls-43 {
        fill: #080904;
      }

      .cls-44 {
        fill: #c3c4c5;
      }

      .cls-45 {
        fill: #7a939d;
      }

      .cls-46 {
        fill: #906841;
      }

      .cls-47 {
        fill: #f58d8b;
      }

      .cls-48 {
        fill: #1f2022;
      }

      .cls-49 {
        fill: #cf6e6b;
      }

      .cls-50 {
        fill: #76471f;
      }

      .cls-51 {
        fill: #4684a7;
      }

      .cls-52 {
        fill: #f58c8b;
      }

      .cls-53 {
        fill: #986733;
      }

      .cls-54 {
        fill: #decfb9;
      }

      .cls-55 {
        fill: #cfc0af;
      }

      .cls-56 {
        fill: #4f3618;
      }

      .cls-57 {
        fill: #562d0d;
      }

      .cls-58 {
        fill: #abafb1;
      }
    </style>
  </defs>
  <g id="Layer_1-2" data-name="Layer 1">
    <g>
      <path class="cls-15" d="M382.69,683.68c-.16,85.21-.32,170.41-.45,255.62,0,1.99.23,3.98.36,5.97,4.97,4.73,7.33,4.74,12.48.03.13-5.49.38-10.98.38-16.47,0-78.96,0-157.92-.08-236.88-.01-9.83,1.83-7.89-9.83-8.44-.95-.04-1.91.1-2.86.16Z"/>
      <path class="cls-51" d="M129.6,532.69c-10.2,3.35-20.58,6.04-30.54,10.21-21.54,9.02-32.01,25.92-34.49,48.14-2.96,26.58-1.07,53.23.36,79.84.94,17.45,2.31,34.88,3.44,52.33,3.09,47.68,6.08,95.36,10.77,142.92.44,4.51,1.87,6.76,6.47,6.83,1.8.03,3.68.36,4.67,2.28,3.56,1.17,7.24.59,10.86.63,9.28.08,18.56-.01,27.85.04,3.54.02,6.93-.41,10.11-2,3.14.45,6.4-2.77,9.47.31,1.06-1.37,1.02-2.97.95-4.58-.38-10.82,1.51-21.51,1.88-32.3.42-12.27,1.8-24.5,2.53-36.76.71-11.95,1.55-23.87,3.83-35.65.47-2.44,1.11-4.88.71-7.41-1.63-4.83,0-9.66.62-14.31,2.58-18.95,4.43-37.96,5.73-57.04.6-8.84-.79-17.61-1.22-26.41-.36-7.44-.55-14.98-2.08-22.35-.58-4.84.05-5.57,4.8-5.55,18.15.06,36.16-2.01,54.22-3.43,1.16-.09,2.31-.33,3.47-.39,5.92-.34,6.96.37,6.75,6.18-.37,10.17-.26,20.49,1.44,30.35,2.96,17.06,2.95,34.29,4.79,51.38,1.96,18.3,3.27,36.65,4.37,55.02,1.04,17.38,2.51,34.73,3.75,52.09.31,4.38.09,8.92,1.26,13.27,1.27,14.32,2.72,28.62,3.7,42.95.29,4.18,1.78,6.45,5.79,7.15,1.38.24,2.45.93,3.34,1.97,4.3,2.62,9.41,2.27,14,2.82,10.69,1.3,21.58,1.3,32.37.09,1.27-2.45,3.78-2.52,5.99-2.96,3.99-.78,6.01-3.1,6.48-7.08,3.07-26.43,6.73-52.79,9.1-79.3,1.99-22.2,4.14-44.39,6.22-66.59,2.44-17.73,2.88-35.5,1.97-53.38-.52-10.28-1.33-20.53-2.16-30.79-.28-3.53,1.71-4.09,4.53-4.38,11.08-1.15,22.25-.85,33.33-2,29.25-3.03,58.74-4.45,86.97-13.94,9.71-3.26,18.7-7.79,27.07-13.65,5.69-3.98,10.06-9.16,13.76-14.96,1.13-1.77,1.82-3.58.55-5.58-3.31-3.02-7.26-5.2-10.85-7.87-10.8-8.04-17.77-19.65-27.5-28.72-11.46-10.69-24.22-19.02-38.7-24.85-4.05.57-6.78-2.42-10.13-3.75-2.29-.69-4.29-2.17-6.72-2.5-9.34-4.42-18.7-.42-27.91.34-19.65,1.62-39.22,4.19-58.9,5.71-7.95.61-15.8,1.55-23.73.15-8.77-.87-17.61-.94-26.37-1.14-13.29-.31-26.58-.89-39.84-1.47-19.24-.84-38.5-1.28-57.73-2.56-9.6-.64-19.26-.26-28.88-1.17-4.59-.43-8.82,1-12.53,3.82Z"/>
      <path class="cls-47" d="M363.6,200.64c-20.12,7.51-39.14,17.41-58.51,26.6-23.44,11.12-37.95,28.83-44.64,53.64-7.31,27.12-13.02,54.66-22.05,81.31-.92,2.71-.93,4.89,2.28,5.92,1.58.51,2.42,1.66,2.73,3.25,10.47,4.45,20.65,9.61,31.46,13.25,2.21.75,4.43,1.5,6.62-.09,2.38-3.68.54-7.55.09-11.15-2.5-19.79-3.53-39.67-4.16-59.57-.26-8.27.43-16.54,1.58-24.75-2.19,16.14-1.1,32.28-.55,48.48.65,19.1,4.92,37.88,4.38,57.05-.13,6.35.04,12.71.1,19.05-.39,6.89,2.88,12.96,4.84,19.22,3.21,10.26,6.32,20.57,10.12,30.68,2,5.32,3.3,11.08,5.04,16.61.44,1.38.38,3.07,2.27,3.5,5.06-3.84,10.73-6.67,16.32-9.56,5.75-2.99,11.71-4.51,18.67-3.67,15.34,1.85,30.67,4.16,46.17,4.43,5.04.09,9.97-.46,14.83-1.7,29.18-7.48,58.59-14.08,87.27-23.48,8.67-2.84,17.31-6,26.34-7.69,1.94-.36,3.94-.8,5.46-2.27-1.23-6.5-.06-12.82,1.37-19.14-.08-4.13-1.52-8-2.35-11.99-.54-4.77-3.86-8.14-5.89-12.16-3.51-6.95-5.29-14.65-7.39-22.14-4.19-14.97-8.22-30-10.61-45.41,3.22,17.76,7.9,35.15,12.93,52.46,1.39,4.77,2.77,9.55,4.73,14.15,1.01,2.38,2.19,4.51,5.09,4.89,8.1-2.98,16.03-6.41,24.23-9.11,17.98-5.92,36.04-11.6,54.22-16.89,7.31-1.57,9.29-4.31,8.51-11.71-3.2-6.03-3.16-13.01-5.65-19.26-.67-1.68-1.28-3.37-2.2-4.93-6.44-19.74-11.89-39.79-19.17-59.27-9.48-25.35-25.51-44.32-50.91-55.01-15.92-6.7-31.15-14.97-47.22-21.35-9.1-3.61-18.31-6.95-27.46-10.42-1.87,5.35-5.65,9.32-9.68,13.03-13.31,12.25-28.77,20.08-46.85,22.39-5.86.75-11.66.25-17.27-1.39-9.97-2.92-14.71-10.28-13.94-20.8.12-1.7,1.61-3.9-1.15-5.01Z"/>
      <path class="cls-14" d="M129.6,532.69c14.27-4.49,28.73-.58,43.09-.82,9.62-.16,19.25.97,28.89,1.33,22.28.83,44.56,1.38,66.83,2.4,8.98.41,17.95.71,26.93.85,5.77.93,11.59.4,17.38.33,3.55-.04,4.78-2.2,3.84-5.88-1.93-7.58-3.76-15.23-6.51-22.52-6.46-17.13-11.17-34.82-17.01-52.14-6.22-18.43-12.52-36.87-17.69-55.62-1.8-6.51-4.61-11.62-10.36-15.07-5.03-1.17-10.16-.67-15.22-.52-3.87.11-6.69-.86-8.3-4.5-1.49,8.2-8.34,6.64-13.48,6.7-25.46.3-50.92.13-76.37.13-13.15,0-26.29-.17-39.43.1-6.35.13-12.55-1.18-18.87-1.05-7.47.15-9.58,2.36-7.45,9.55,3.44,11.61,7.35,23.09,11.19,34.58,6.32,18.88,12.79,37.71,19.11,56.6,4.52,13.5,7.84,27.42,14.11,40.31.91,1.88,1.19,3.71-.66,5.26Z"/>
      <path class="cls-58" d="M604.24,362.45c-.08,7.16-1.15,8.61-8.02,10.85-2.21,3.74-.42,7.5.11,11.16,3.81,25.94,4.66,51.96,2.08,78.04-.75,7.61-3.09,15.03-6.04,22.09-2.5,5.99-6.84,10.01-13.88,10.58-2.93.24-6.45-.25-8.44,3.01,4.09,1.71,4.6,4.53,3.63,8.71-4.95,21.19-7.56,42.82-11.87,64.13-1.71,8.44-3.02,17.01-6.22,25.1-.97,2.45-1.98,4.86-5.1,4.49-11.7-1.37-23.52-1.11-35.22-2.62-1.7-.22-3.18-.91-4.57-1.83-3.73-.42-5.35,3.53-8.58,4.17.6,4.22,4.05,3.4,6.61,3.37,11.66-.16,23.25.65,34.81,2.05,1.89.23,4.39-.31,5.17,2.04.64,1.92-1.12,3.34-2.22,4.76-6.77,8.71-16.45,12.03-26.66,14.28-26.18,5.77-52.86,8.22-79.32,12.19-6.72,1.01-13.43,1.99-19.98,4.14-15.87,5.22-24.93,15.97-27.04,32.42-.5,3.91-1.77,5.5-5.79,5.52-4,.02-4.14.48-3.38,3.16,8.36,1.86,11.19.11,18.05-.95,12.95-2,25.84-4.36,38.78-6.39,24.76-3.87,49.53-7.67,74.32-11.35,3.58-.53,7.29-.22,10.94-.3,6.15-1.47,12.54-1.71,18.6-3.65.09-1.22.42-2.33,1.67-2.83,23.68-9.46,33.5-28.75,37.53-52.39,7.81-45.81,16.08-91.54,23.72-137.37,5.48-32.9,11.22-65.76,16.96-98.62,1.21-6.94,3-14.08-.45-21.05-1.15-2.34-2.51-4.27-5.16-4.97-6.82-1.06-9.46.38-11.78,6.6-1.39,3.73-2.6,7.52-3.25,11.46Z"/>
      <path class="cls-41" d="M322.41,52.85c4.1,11.55,1.57,20.13,2.21,30.21.71,11.3.69,22.52.25,33.8-.35,8.91-1.33,17.88,1.31,26.66.4.12.55-1.01.74-.4,1.51,4.71,2.33,9.7,5.75,13.62.48.6,1.04,1.11,1.68,1.52,3.41,1.77,5.61.54,6.12-3.02.71-4.91,3.55-8.49,6.58-12.04,3.19-3.75,7.03-6.04,12.17-5.43,4.32.52,8.55-1,12.89-.5,9.01,1.04,15.65,5.97,21.27,12.65,1.71,1.74,2.16,4.09,3.05,6.23,1.44,3.45,3.61,5.97,7.66,6.19,1.54-.14,2.98-.65,4.43-1.17,10.91-5.7,16.33-16.27,22.62-25.96,3.8-5.85,7.14-12.08,6.51-19.52.14-8.93-.17-17.87.14-26.79.26-7.64-2.62-13.44-8.7-17.86-1.86-1.35-3.9-2.57-4.64-4.97-1.22-3.83-.48-7.81-.86-11.71-2.19-9.31-5.32-11.4-14.7-12.45-21.78-2.45-43.49,1.03-65.24.17-5.41-.21-9.54,2.27-12.6,6.74-2.97,4.33-4.93,9.02-5.82,14.78-.44-2.77-.24-5.05-.59-7.27-.22-1.38.49-3.63-2.24-3.49Z"/>
      <path class="cls-6" d="M148.56,874.21c-.18-1.98.16-4.37-3.26-2.67-1.53.76-3.41.8-5.13,1.17-2.06.97-2.07,2.92-2.05,4.72.03,3.29-1.51,5.25-4.52,6.37-13.25,4.94-26,5.31-37.62-4.16-2.21-1.8-4.65-2.42-7.39-2.28-7.16.95-11.86,6.26-17.26,10.12-13.54,9.68-28.09,17.08-44.07,21.78-6.05,1.78-12.1,3.72-17.61,6.94-3.97,2.32-7.35,5.17-8.82,9.75-2.17,6.75-.05,10.17,6.88,11.31,8.89,1.45,17.88,2.19,26.83,1.9,34.41-1.15,68.64-5,102.94-7.68,9.36-.73,9.74-1.81,9.68-11.33-.02-2.5.31-5.09-.24-7.47-2.99-12.99-1.11-25.73,1.65-38.45Z"/>
      <path class="cls-10" d="M258.42,896.33c-1.96,1.46-3.99,2.7-5.06,5.17-7.05,16.13-17.32,30.25-27.82,44.22-3.82,5.08-7.12,10.44-8.71,16.7-2.4,9.43-.34,14.74,8.92,17.45,25.07,7.35,49.09,5.55,70.16-11.49,7.48-6.05,11.46-14.78,12.47-24.31,1.26-11.94.35-23.92-.99-35.84-.21-1.85-.79-3.56-1.97-5.04-.27-.19-.61-.53-.85-.47-6.44,1.73-10.01-2.7-14.37-6.15-6.65-5.26-14.39-6.63-22.49-3.48-3.07,1.19-6.14,2.3-9.29,3.24Z"/>
      <path class="cls-43" d="M322.41,52.85c1.86,4.69.27,9.92,2.52,14.54,1.78-1.58,1.64-4.07,2.22-6.21,1.1-4.05,2.58-7.85,4.92-11.37,2.82-4.23,6.5-6.41,11.66-6.32,21.6.38,43.18-2,64.8-.19,9.43.79,11.14,1.82,13.7,11.18.64,4.62,4.37,6.77,7.92,7.89,6.53,2.06,12.09,6.02,18.45,8.3,1.56.56,3.13,1.05,4.74,1.43,3.42.81,5.22-.9,5.33-4.01.15-4.26.51-8.57-.27-12.83-1.46-20.71-10.71-36.72-29.76-45.55-26.32-12.19-53.24-13.1-80.21-1.66-5.07,2.15-9.66,5.18-13.88,8.74-11.35,9.56-13.99,22.05-12.14,36.06Z"/>
      <path class="cls-33" d="M383.5,683.68c2.1-2.58,4.94-1.01,7.42-1.23,2.56-.23,3.58-.77,3.72-3.82.72-15.66,9.05-28.5,25.25-33.64,14.44-4.58,29.43-5.75,44.32-7.68,11.96-1.55,23.86-3.47,35.77-5.36,6.69-1.06,13.37-2.19,19.98-3.64,11.52-2.53,22.31-6.46,29.3-16.92,3.14-4.69,2.41-6.45-3.14-6.97-12.71-1.2-25.41-2.52-38.21-2.08-2.08.07-4.47.62-5.63-2.03.55-3.23-.56-4.71-3.97-3.77,1.59,2.04.39,3.52-.76,5.3-8.85,13.7-22.22,21.04-36.93,26.51-19.63,7.3-40.2,9.86-60.86,12.17-21.45,2.4-42.97,3.85-64.51,4.88-3.59.17-4.14,2.09-3.77,4.93,2.46,19.3,6.38,47.92,6.42,38.64.03-6.8.14-6.9,6.93-7.01,1.16-.02,2.32.04,3.41-.49,1.28-1.59,3.07-1.22,4.63-.95,8.05,1.39,16.21,1.15,24.3,1.64,4.09.24,8.03,3.45,6.34,1.49Z"/>
      <path class="cls-48" d="M545,661.61c-4.67-1.8-8.82,1.1-13.23,1.6-1.73.2-4.55-1.03-5.37,2.05,9.96,2.31,15.92,8.43,17.75,18.55,6.32,35.06,12.59,70.13,19.02,105.17,7.65,41.76,15.44,83.5,23.17,125.24,1.05,5.65,3.21,7.92,6.92,7.2,3.96-.77,5.58-4.02,4.59-9.47-10.98-60.11-21.99-120.21-32.97-180.32-2.87-15.72-5.66-31.46-8.43-47.2-1.54-8.77-5.11-16.48-11.45-22.82Z"/>
      <path class="cls-1" d="M363.6,200.64c.77,3.86-.8,7.69.1,11.62,2.04,8.94,8.29,14.66,17.28,16.28,16.06,2.89,30.58-1.65,44.49-8.88,10.25-5.33,18.89-12.75,26.08-21.88,1.41-1.79,2-3.33.93-5.36-4.93-6.41-4.98-14.24-6.08-21.71-1.32-9-2.24-18.07-3.33-27.11-.48-.39-.92-.34-1.32.12-.95,1.21-1.4,2.66-1.64,4.12-1.86,11.34-8.83,19.38-17.03,26.66-3.47,3.08-7.06,6.09-10.26,9.39-12.52,12.93-28.25,15.6-45.14,15.12-1.44-.04-2.97-.75-4.25.51.05.37.1.74.16,1.11Z"/>
      <path class="cls-24" d="M232.35,632.03c.13-5.03-1.6-6.2-6.27-5.75-15.37,1.46-30.76,2.69-46.16,3.84-4.8.36-9.65.24-14.47.2-6.68-.04-7.13.53-5.18,7.15,1.45-.75,1-2.8,2.48-3.6,1.69.74,1.08,2.2.92,3.37-.3,2.14-.44,4.28-.64,6.42-1.03,10.83,2.83,18.78,13.2,23.05,5.03.17,10.01.8,14.98,1.53,3.67-1.79,7.58-1.04,11.31-.7,8.93.82,21.59,1.82,30.56,1.87,3.06.02-1.21-17.74-.71-37.38Z"/>
      <path class="cls-17" d="M363.44,199.54c18.6,2.6,35.56-.52,49.61-14.05,5.37-5.17,10.78-10.31,16.33-15.28,8.01-7.17,11.3-16.55,13.02-26.73,1.54-8.39,2.89-16.81,2.25-25.39-.17-2.34.95-5.8-1.93-6.5-3.18-.78-5.41,1.71-6.37,4.89.64,7.65-3.49,13.66-7.23,19.61-5.73,9.09-11.51,18.26-20.84,24.3-1.52,1.05-3.21,2.31-4.91,2.31-6.08,0-9.4,3.57-12.93,7.94-4.62,5.72-10.69,9.33-18.67,8.53-6.34-.64-13.09,1.4-18.8-3.06-4.01-2.39-6.08-6.37-8.16-10.26-1.82-3.4-3.45-6.75-8.13-6.73-.81,0-1.58-1.08-2.25-1.8-.33-.32-.65-.63-.98-.95-.96-.76-1.61-2.7-3.05-1.76-1.03.68-.84,2.35-.03,3.57,2.71,10.35,7.22,19.75,14.42,27.77,5.26,5.86,11.04,10.97,18.65,13.58Z"/>
      <path class="cls-36" d="M348.22,681.5c-2.39-1.57-5.18-.88-7.76-1.39-3.21-.63-3.95.86-3.92,3.83.13,11.49.05,22.99.02,34.48,0,1.65-.19,3.31-.28,4.96-.04,42.82-.08,85.63-.13,128.45,0,7.83-.05,15.66,0,23.49.03,5.22,2.28,8.24,6.1,7.94,4.79-.38,5.66-3.75,5.66-7.83.07-42.32.2-84.63.28-126.95.04-22.33.03-44.65.04-66.98Z"/>
      <path class="cls-3" d="M191.19,668.24c-4.65-2.8-9.57-3.24-14.73-1.76-4.18,2.19-5.24,6.44-6,10.37-4.03,20.68-8.01,41.37-11,62.24-.87,6.04-2.02,12.06-2.22,18.19-.15,6.8-2.57,13.25-2.97,20.06-.64,11.07-1.91,22.1-2.65,33.16-1.19,17.68-2.21,35.37-3.2,53.07-.11,2.03-.93,4.35,1.09,6.06,1.96-11.07,3.9-22.15,5.88-33.22,9.05-50.62,18.11-101.25,27.15-151.87,1.14-6.37,3.14-12.26,8.66-16.29Z"/>
      <path class="cls-53" d="M444.4,133.38c4.5.45,8.25-1.16,11-4.61,6.35-7.95,10.9-16.7,10.54-27.24-.17-4.81-1.44-9.29-6.16-11.75-1.67-.87-1.86-2.08-1.76-3.67.13-2.14.13-4.29.19-6.44-2.17-.03-1.93,1.76-2.15,3.04-.3,1.74-.21,3.56-1.45,5.02-12.36,7.48-13.01,9.28-10.94,24.37.72,5.25.06,10.64.19,15.96.05,1.77-.61,3.66.56,5.32Z"/>
      <path class="cls-18" d="M88.57,877.35c3.28,1.11,5.95,3.12,8.74,5.19,8.33,6.17,17.99,7.03,27.87,5.36,8.46-1.43,15.93-4.29,14.99-15.2-15.31,3.13-30.78,1.22-46.18,1.56-1.31.03-2.68-.13-3.71.98-.08,1.1-.91,1.59-1.7,2.12Z"/>
      <path class="cls-35" d="M241.46,380.52c-1.02,5.06,1.38,6.1,5.99,5.82,5.95-.36,11.95.02,17.93.09,6.9,1.73,10.41,6.25,11.63,13.18.65,3.71,2.11,7.32,3.61,10.83.73,1.71,1.1,3.98,3.73,4.04-.01-6.69-.03-13.38-.04-20.07-.96-1.99-.5-4.11-.4-6.14.13-2.71-.89-3.9-3.57-3.69-10.2-2.05-19.23-7.13-28.72-11.03-2.59-1.07-4.84-3.89-8.21-2.2.29,3.25-1.74,6.02-1.95,9.17Z"/>
      <path class="cls-56" d="M444.4,133.38c-.05-10.75-.03-21.51-.18-32.26-.08-5.6,3.63-8.19,7.83-10.41,1.42-.75,3.21-.81,4.31-2.21-6.08-5.62-13.34-9.88-18.49-16.58-3.11-4.04-8.27-4.71-12.67-6.58-.85-.36-1.55.32-1.93,1.15.3,2.63,2.33,3.83,4.25,5.13,6.03,4.08,9.18,9.44,8.87,17.06-.38,9.26-.05,18.54-.03,27.82,1.67-2.13,4.02-3.19,6.88-4.53.11,10.82.24,21.18-.82,31.53.24-.03.46.01.67.13.44-3.41.88-6.82,1.32-10.23Z"/>
      <path class="cls-28" d="M423.26,66.49c6.81,1.25,12.5,4.1,17.05,9.7,4.28,5.27,9.6,9.63,16.04,12.3,1.91-2.67-.22-6.19,1.85-8.83.44-8.13,1.53-16.26.21-24.4-.09,3.81-.18,7.62-.29,11.43-.09,3.37-.9,5.44-5.1,3.95-4.51-1.61-9.09-2.87-13-5.87-3.93-3.02-9.52-2.26-13.41-5.92-1.5-1.41-3.07-2.75-4.37-4.38.25,4.01-.71,8.13,1.02,12.01Z"/>
      <path class="cls-46" d="M258.42,896.33c2.42.81,4.43.7,6.91-.77,8.9-5.29,20.59-3.16,27.79,5.33,2.9,3.41,5.27,4.92,9.36,2.6.78-.44,1.95-.22,2.94-.3.05-3.96.1-7.93.15-11.89-1.66-1.58-3.75-1.01-5.67-1.02-7.93-.05-15.89.36-23.79-.14-5.63-.35-11.11-2.64-16.91-1.76-.26,2.65-.52,5.3-.77,7.95Z"/>
      <path class="cls-44" d="M604.24,362.45c1.07-.16,1.89-.64,1.93-1.83.11-3.18,1.67-5.96,2.47-8.95,1.46-5.45,5.18-7.65,10.64-7.28-3.92-1.74-7.95-3.02-12.32-2.95-3.54.06-6.89-.62-9.7-2.98,2.17,8.04,2.28,16.68,6.99,23.98Z"/>
      <path class="cls-2" d="M330.37,158.18c-.27-2.8.66-3.58,3.07-1.81-2.84-4.72-5.13-9.67-6.4-15.95-.45,1.61-.66,2.35-.87,3.09,1.57,4.84,2,10,4.19,14.66Z"/>
      <path class="cls-52" d="M498.31,596.55c2.23.29,3.35,1.77,3.97,3.77,3.82,1.17,5.81-1.53,8.01-3.78,2.24-.67,2.74-2.61,3.45-4.5,3.39-9.02,4.98-18.35,6.5-27.88,1.64-10.29,1.15-20.46,1.53-30.68.12-3.16-.02-6.29-1.26-9.29-.95-2.29-.25-4.5.37-6.79,1.19-4.36,1.68-8.78-.27-13.11-4.53-2.12-9.23-.58-13.68-.09-8.28.91-16.61,1.2-24.85,1.41-20.59.52-41.16,1.97-61.78,1.28-2.33-.08-4.63-.41-6.94-.67-6.35-.69-12.54-.71-18.36,2.74-9.57,5.67-19.54,3.88-29.48,1.02-2.87-.83-5.71-1.78-8.57-2.66-12.5-3.88-22.8.71-32.33,8.29-.91.73-1.74,1.59-1.28,2.96,5.85,1.72,11.71,3.35,17.89,3.34,17.26-.02,34.51,0,51.77-.01,2.83,0,5.62.12,8.32,1.16,1.97.76,4.42.82,2.57,4.16-.98,1.76.94,2.48,2.27,3.13,2.11.5,3.68,2.57,6.12,2.08,3.6.66,6.55,2.97,10.03,3.94,18.6,7.63,34.06,19.62,47.32,34.52,5.88,6.6,11.12,13.78,18.37,19.03,3.31,2.4,6.16,5.52,10.31,6.62Z"/>
      <path class="cls-30" d="M406.15,530.35c-.56-1.3-3.7-2.68.01-3.85,1.27-.4,2.14-.8,2.02-2.29-.16-1.93-1.68-1.54-2.92-1.9-12.68-3.62-25.65-1.26-38.47-1.9-6.31-.31-12.69-.55-18.96.04-8.36.78-16.25-2.48-24.5-2.06-4.74.22-6.4-2.67-7.42-6.77-2.13-8.53-5.97-16.52-8.2-25.04-.14-.76-.39-1.47-.76-2.14-.45-.67-1.06-1.1-1.89-1.16-3.2-10.78-6.66-21.48-10.18-32.15-3.12-9.45-6.6-18.89-8.76-28.69-.58-2.64-2.21-5.06-1.79-7.97-4.04-5.81-5.22-12.7-7.25-19.26-2.07-6.68-4.91-8.91-11.71-8.78,10.03,8.14,9.7,20.91,13.74,31.64,6.17,16.38,11.1,33.23,16.45,49.91,3.03,9.43,5.7,18.97,8.81,28.37,3.78,11.42,7.78,22.76,10.79,34.43,1.04,4.05.42,5.46-3.89,5.58-5.31.15-10.63.07-15.95.09,6.01,1.77,12.2,1.17,18.23.75,13.37-.94,26.72-2.32,40.03-3.88,13.31-1.56,26.78-1.79,39.91-4.75,4.53-1.02,8.35,1.81,12.65,1.78Z"/>
      <path class="cls-11" d="M138.55,619c1.29,17.39,2.63,34.22,3.74,51.07.77,11.63-.27,23.25-1.3,34.82-.93,10.53-2.48,21.01-3.57,31.53-1.4,13.49-2.7,26.99-3.9,40.49-.56,6.27-.83,12.57-1.11,18.87-.39,8.95-.78,17.92-1.27,26.85-.56,10.08-1.85,20.13-1.7,30.26.02,1.36-.8,3.76,1.04,3.84,2.42.11,1.46-2.23,1.54-3.82.75-15.23.98-30.53,2.56-45.68,1.82-17.48,1.53-35.07,3.8-52.51,2.22-17.04,4.01-34.15,5.97-51.23.11-.99.12-2,.05-3-.95-13.75,1.02-27.44.29-41.26-.72-13.59-2.43-27.05-3.29-40.6-.08-1.23-.37-2.82-1.62-2.7-2.27.21-.99,2.36-1.22,3.06Z"/>
      <path class="cls-32" d="M292.7,536.48c-17.98,4.59-34.99,11.58-47.6,26.01-15.64,17.91-15.61,39.85-14.39,62.52,2.63-2.77,2.71-2.78,2.63-6.32-.26-11.48-.06-22.96,3.15-34.07,4.33-15,14.35-25.54,27.41-33.48,7.99-4.86,16.75-7.92,25.53-10.94,1.37-.47,2.64-1.27,3.95-1.92-.23-.6-.45-1.2-.68-1.8Z"/>
      <path class="cls-22" d="M422.31,536.38c-2.93-2.38-5.81-4.87-10.03-3.94,2.96,2.3,5.8,4.89,10.03,3.94Z"/>
      <path class="cls-26" d="M306.5,486.53c3.27,10.22,6.44,20.47,9.87,30.63,1.4,4.13,4.44,1.9,6.96,1.24,7.49-5.43,14.7-11.46,24.81-11.05,4.03.17,7.9,1.08,11.67,2.38,4.88,1.68,9.91,2.7,14.91,3.89,7.62,1.82,14.72.34,21.12-3.42,5.33-3.14,10.78-3.03,16.37-2.64,15.78,1.11,31.53.93,47.32.03,10.61-.61,21.27-.09,31.9-1.07,9.57-.88,19.19-1.19,28.78-1.74,1.78,1.15,3.77,1.17,5.75.93,13.28-1.64,26.53-3.47,39.74-5.56,1.61-.26,3.32-.39,4.5-1.78,2.84-1.55,6.05-1.63,9.11-1.82,7.69-.48,12.2-5.21,14.67-11.61,5.04-13.08,7.22-26.77,7.37-40.84.19-17.77-.7-35.48-2.31-53.16-.54-5.91-1.87-11.75-2.84-17.63-6.21,1.73-12.47,3.28-18.61,5.24-17.83,5.68-35.78,11.04-53.19,17.98-2.1.84-4.1,1.94-6.15,2.91-3.57,2.96.61,6-.1,8.99l2.11,11.93c.6,4.71,1.13,9.45,2.75,13.95,1.05,2.93-1.31,3.66-2.91,4.93-21.03,4.83-41.21,12.57-62.06,18-21.18,5.52-42.37,11.04-63.74,15.77-9.43,2.09-19.2-.22-28.78-1.11-10.07-.93-20.12-2.11-30.16-3.38-4.09-.52-7.5,1.15-10.9,2.75-5.69,2.68-11.24,5.66-16.83,8.54-1.4.72-2.26,1.93-2.58,3.49.4.36.8.73,1.2,1.09,3.55.92,5.59-2.34,8.55-3.14,2.37-.64,4.65-1.71,6.94-2.68-5.06,2.7-10.52,4.65-15.27,7.96Z"/>
      <path class="cls-13" d="M295.26,309c-.14,15.03,7.42,23.96,18.64,26.06,13.14,2.46,26.14-9.12,28.71-20.24,1.61-6.96.7-13.04-2.12-19.17-3.9-8.47-12.86-13.27-22.41-12.14-7.3.86-12.46,4.22-16.72,9.22-4.25,4.98-6,11.28-6.11,16.27Z"/>
      <path class="cls-25" d="M280.33,384.59c2.36.95,3.39,2.57,3.12,5.22-.16,1.53-.53,3.28.85,4.61.71-10.35-1.27-20.48-2.65-30.65-.62-4.6-.53-9.25-1.08-13.88-.94-7.89-.73-15.91-1.26-23.86-.89-13.26-.86-26.47,1.57-39.59.2-1.11.22-2.22-1.01-2.34-1.18-.12-1.49,1.12-1.63,2.11-.64,4.59-1.65,9.17-1.78,13.77-.65,23.77.66,47.44,3.56,71.06.53,4.34,2.91,9.01.31,13.55Z"/>
      <path class="cls-49" d="M518.18,408.42c.99-2.99-1.98-6.02.1-8.99-2.75-.23-3.27-2.48-3.99-4.49-6.86-19.19-11.89-38.87-16.02-58.8-.6-2.91-1.37-5.78-1.98-8.69-.25-1.17-.44-2.7-1.81-2.5-1.89.28-1.33,2.18-.99,3.24,2.01,6.34,2.42,13,4.06,19.39,4.15,16.1,8.31,32.2,13.87,47.9,1.65,4.65,6.26,7.71,6.77,12.94Z"/>
      <path class="cls-42" d="M520.12,439.23c4.32.51,5.84-1.07,4.2-5.35-1.69-4.4-1.86-9.26-4.04-13.53-.24,4.75-2.9,9.11-2.11,14.09.29,1.86.35,3.57,1.95,4.79Z"/>
      <path class="cls-9" d="M205.38,463.69c-.02-8.68-7.46-16.28-15.94-16.28-6.05,0-11.16,5.91-11.03,12.76.16,8.81,7.67,16.33,16.22,16.21,6.77-.09,10.78-4.82,10.75-12.7Z"/>
      <path class="cls-33" d="M570.21,498.36c-13.88,1.83-27.76,3.66-41.65,5.47-2.77.36-5.56.63-8.34.94-.42,4.85,1.01,9.89-1.73,14.53-.58.99-.44,2.72-.04,3.92,3.71,11,2.49,22.49,1.28,33.39-1.22,11.04-1.28,22.74-7.12,33.04-1.11,1.95-.66,4.85-2.33,6.87,0,1.43.19,2.66,2.02,2.81,3.78.31,7.55.93,11.33.98,8.77.12,17.49.66,26.15,2.01,4.91.76,6.18-2.32,7.39-6.11,4.35-13.72,6.6-27.86,9.08-41.98,2.91-16.56,6.04-33.08,9.12-49.61,1.14-6.14,1.2-6.13-5.17-6.27Z"/>
      <path class="cls-2" d="M334.42,157.32c.46.86.9,2.46,1.39,2.48,6.47.19,6.92,6.11,9.67,9.85,1.91,2.6,3.06,5.98,6.66,6.99.15-.18.29-.37.44-.55-1.01-4.71-4.96-7.7-6.9-11.94-4.27-9.34-4.38-9.72,3.69-16.05,10.79-5.1,21.65-5.27,32.61-.57,2.59,1.11,5.18,2.22,7.59,3.71.69.44,1.42.78,2.22.96,1.8-.05,3.55-.15,2.6-2.77-7.16-9.45-16.25-14.69-28.49-13.19-1.47.18-2.98.11-4.47.11-11.12-.06-20.14,6.99-21.92,17.83-.62,3.77-1.85,4.57-5.09,3.16Z"/>
      <path class="cls-40" d="M409.67,86.91c-9.36-8.7-23.78-11.28-33.36-6.88-2.01.93-3.23,2.23-2.86,4.63.4,2.6,2.19,3.13,4.37,2.91,1.8-.18,3.6-.53,5.37-.91,8.39-1.8,16.78-3.17,26.47.25Z"/>
      <path class="cls-20" d="M327.5,87.83c7.01-1.77,13.59-.4,20.23.55,1.76.25,4.26.96,4.55-2.21.25-2.75-.38-5.12-3.56-5.54-8.03-1.07-15.84-1.29-21.22,7.19Z"/>
      <path class="cls-2" d="M352.13,176.64c.31,1.04.98,1.6,2.04,1.92,12.57,3.8,31.96,4.47,40.02-10.63,1.2-2.24,3.38-3.63,6.15-3.47,3.46.2,6-1.31,7.93-4.06-1.48-.24-2.73.45-3.99,1.05-1.55,1.1-2.81.05-4.02-.67-4.66-2.8-4.65-2.82-7.08,1.93-.3.58-.6,1.16-.89,1.75-3.55,8.53-10.43,12.16-19.17,12.55-5.77.26-11.61.59-17.31-1.02-1.11-.31-2.29-.47-3.35.28l-.33.37Z"/>
      <path class="cls-5" d="M403.03,100.58c1.35.23,3.14,1.58,3.78-.63.6-2.08-1.29-2.29-2.78-2.55-4.96-.87-9.02-4.17-14.68-3.76-6.34.45-10.26,2.05-10.5,9,1.02.56,1.26-.99,2.08-1.22,2.33,0,4.14-1.81,6.46-1.84,3.14-1.28,6.27-2.32,9.32.23,2.15-.13,4.17.8,6.31.77Z"/>
      <path class="cls-4" d="M347.62,100.42c-1.43-2.67-8.42-3.48-10.22-1.15-.08.11.51.73.78,1.12-.9,1.73-.3,3.04,1.15,4.11,3.07,3.48,5.42,1.15,7.81-.96,1.1-.9,1.14-1.96.48-3.12Z"/>
      <path class="cls-29" d="M397.16,99.45c-2.9-4.77-6.52-2.28-10.01-.99-.93,1.46-1.1,2.85.42,4.06,2.88,2.79,5.76,2.19,8.64.01,1.45-.68,2.11-1.6.95-3.08Z"/>
      <path class="cls-31" d="M393.46,164.54c.51-.84,1.23-1.62,1.49-2.53.77-2.74,2.08-3.19,4.19-1.26,1.55,1.43,3.15,2.58,5.15.69-3.87-.57-5.89-3-7.07-6.58-.63-1.92-.6-4.32-2.83-5.45-.15,1.93-1.46,2.1-2.97,1.95-.7,4.61-.1,9.01,2.05,13.17Z"/>
      <path class="cls-27" d="M363.37,133.32c5.12-1.14,9.7-2.16,14.73-3.28-5.45-3.06-11.24-1.81-14.73,3.28Z"/>
      <path class="cls-55" d="M387.57,102.52c-.14-1.35-.28-2.71-.42-4.06-2.59-.1-4.47,1.3-6.22,2.97,1.9,2.28,3.84,4.26,6.64,1.1Z"/>
      <path class="cls-57" d="M360.25,132.7c-2.25-1.42-3.88-2.52-5.58-3.49-.98-.56-2.33-1.31-3.02.13-.71,1.48.29,2.57,1.75,2.97,2,.54,3.94,1.86,6.85.39Z"/>
      <path class="cls-16" d="M339.33,104.5c-.38-1.37-.77-2.74-1.15-4.11-2.17.23-3.82,1.44-6.16,3.03,2.84.86,4.56,3.59,7.31,1.08Z"/>
      <path class="cls-8" d="M397.16,99.45c.47,1.27-.42,2.12-.95,3.08,2.8,1.22,4.81-.35,6.81-1.95-1.84-.94-3.41-3.32-5.86-1.13Z"/>
      <path class="cls-54" d="M347.62,100.42c-.16,1.04-.32,2.08-.48,3.12,1.52,3.29,3.23.05,4.84.08.74.01.98-.89.5-1.49-1.24-1.54-2.96-1.93-4.86-1.72Z"/>
      <path class="cls-7" d="M306.5,486.53c6.38-1.21,11.54-5.28,17.48-7.52.77-.29,1.38-1.16.77-2.01-.56-.79-1.48-.53-2.27-.19-5.46,2.39-11.14,4.34-16.21,7.58.08.71.15,1.43.23,2.15Z"/>
      <path class="cls-50" d="M526.61,437.71c2.31,1.18,4.58.95,6.54.54,8.29-1.72,15.98.66,23.72,2.96,1.26.38,2.95,2.24,3.8.25.75-1.74-1.67-2.13-2.8-2.88-2.83-1.89-6.28-1.82-9.46-2.55-6.2-1.42-12.53-.56-18.81-.49-1.08.01-2.25.51-3,2.16Z"/>
      <path class="cls-21" d="M343.94,493.47c-9.26-1.42-23.77,7.87-27.86,17.66,7.81-8.19,17.09-14.1,27.86-17.66Z"/>
      <path class="cls-37" d="M331.93,484.43c-7.29,2.66-14.8,4.87-20.8,10.18-.87.77-.97,1.74-.25,2.65.97,1.23,1.8.34,2.41-.39,4.53-5.38,10.61-7.6,17.29-8.78,1.34-.24,3.11-.72,3.24-2.59.07-1.15-1.08-.97-1.89-1.08Z"/>
      <path class="cls-34" d="M319.79,291.34c-10.85.09-17.68,8.03-17.53,20.37.12,9.36,7.32,15.8,17.52,15.65,8.81-.12,16.52-9.04,16.52-19.11,0-9.53-7.29-17-16.52-16.92Z"/>
      <path class="cls-12" d="M393.46,164.54c.01-4.5-.38-8.94-2.05-13.17-.36-.33-.72-.65-1.08-.98-1.26-.81-2.22-.12-3.06.71-1.24,1.24-2.72,1.93-4.44,1.86-9.43-.38-18.76,1.55-28.2,1.1-5.47-.26-5.48-.11-5.19-5.58.04-.78-.28-1.21-1.12-1.13-8.63,7.24-8.74,12.62-.45,23.08,1.54,1.94,3.05,3.9,4.58,5.84,11.37,3.15,22.64,4.43,33.49-1.85,3.89-2.25,6.69-5.31,7.51-9.88Z"/>
      <path class="cls-31" d="M348.33,147.34c-2.15,8.07-2.14,7.82,7.31,8.16,9.61.34,19.12-2.02,28.68-.95,3.7.41,3.34-3.79,6-4.16-12.76-8.27-26.21-9.99-40.42-4.2-.58.24-1.05.76-1.57,1.16Z"/>
      <path class="cls-39" d="M319.15,324.46c6.67-.1,14.65-8.25,13.9-14.88-1.06-9.33-5.2-15.41-12.62-15.1-8.58.36-14.71,5.42-14.74,16.84-.02,7.09,6.39,13.24,13.46,13.14Z"/>
      <path class="cls-38" d="M352.35,163.5c7.76,12.51,20.44,10.45,26.9-.46-9,4.23-17.44,6.45-26.9.46Z"/>
      <path class="cls-23" d="M330.26,307.94c-.07-6.67-4.72-11.26-11.38-11.22-6.22.04-11.33,6.04-11.38,13.36-.05,6.95,4.88,11.82,11.98,11.85,5.46.03,10.86-6.98,10.79-14Z"/>
      <path class="cls-45" d="M319.91,312.22c.32,1.12.55,2.23.95,3.27.51,1.32,1.51,2.4,2.91,2.43,1.45.04,2.4-1.23,2.92-2.43,1.5-3.43,1.85-7.04,1.27-10.75-.63-4.02-3.27-4.2-5.66-2.22-2.71,2.24-5.19,1.02-7.83.69-.45-.06-.9-.63-1.27-.56-1.79.35-2.32,1.93-2.5,3.36-.45,3.48-.46,7.09,2,9.86.52.59,3.06,1.06,4.23-1.01.61-1.07,1.92-1.74,2.99-2.65Z"/>
      <path class="cls-19" d="M322.4,311.02c.5,1.19-1.03,3.69,1.37,3.85,1.68.11,1.59-2.16,1.8-3.61.07-.49.14-.98.25-1.46.48-1.99.7-4.68-1.47-4.89-1.91-.18-1.79,2.67-1.94,4.43-.04.49,0,.99,0,1.69Z"/>
    </g>
  </g>
</svg>